<?xml version="1.0" encoding="utf-8"?>
<svg xmlns="http://www.w3.org/2000/svg" xmlns:xlink="http://www.w3.org/1999/xlink" width="600" height="400" viewBox="0 0 2400 1600">
<defs>
  <clipPath id="clip990">
    <rect x="0" y="0" width="2400" height="1600"/>
  </clipPath>
</defs>
<path clip-path="url(#clip990)" d="
M0 1600 L2400 1600 L2400 0 L0 0  Z
  " fill="#ffffff" fill-rule="evenodd" fill-opacity="1"/>
<defs>
  <clipPath id="clip991">
    <rect x="480" y="0" width="1681" height="1600"/>
  </clipPath>
</defs>
<path clip-path="url(#clip990)" d="
M147.108 1486.45 L2352.76 1486.45 L2352.76 47.2441 L147.108 47.2441  Z
  " fill="#ffffff" fill-rule="evenodd" fill-opacity="1"/>
<defs>
  <clipPath id="clip992">
    <rect x="147" y="47" width="2207" height="1440"/>
  </clipPath>
</defs>
<polyline clip-path="url(#clip992)" style="stroke:#000000; stroke-linecap:butt; stroke-linejoin:round; stroke-width:2; stroke-opacity:0.1; fill:none" points="
  401.084,1486.45 401.084,47.2441 
  "/>
<polyline clip-path="url(#clip992)" style="stroke:#000000; stroke-linecap:butt; stroke-linejoin:round; stroke-width:2; stroke-opacity:0.1; fill:none" points="
  825.454,1486.45 825.454,47.2441 
  "/>
<polyline clip-path="url(#clip992)" style="stroke:#000000; stroke-linecap:butt; stroke-linejoin:round; stroke-width:2; stroke-opacity:0.1; fill:none" points="
  1249.82,1486.45 1249.82,47.2441 
  "/>
<polyline clip-path="url(#clip992)" style="stroke:#000000; stroke-linecap:butt; stroke-linejoin:round; stroke-width:2; stroke-opacity:0.1; fill:none" points="
  1674.19,1486.45 1674.19,47.2441 
  "/>
<polyline clip-path="url(#clip992)" style="stroke:#000000; stroke-linecap:butt; stroke-linejoin:round; stroke-width:2; stroke-opacity:0.1; fill:none" points="
  2098.57,1486.45 2098.57,47.2441 
  "/>
<polyline clip-path="url(#clip990)" style="stroke:#000000; stroke-linecap:butt; stroke-linejoin:round; stroke-width:4; stroke-opacity:1; fill:none" points="
  147.108,1486.45 2352.76,1486.45 
  "/>
<polyline clip-path="url(#clip990)" style="stroke:#000000; stroke-linecap:butt; stroke-linejoin:round; stroke-width:4; stroke-opacity:1; fill:none" points="
  401.084,1486.45 401.084,1467.55 
  "/>
<polyline clip-path="url(#clip990)" style="stroke:#000000; stroke-linecap:butt; stroke-linejoin:round; stroke-width:4; stroke-opacity:1; fill:none" points="
  825.454,1486.45 825.454,1467.55 
  "/>
<polyline clip-path="url(#clip990)" style="stroke:#000000; stroke-linecap:butt; stroke-linejoin:round; stroke-width:4; stroke-opacity:1; fill:none" points="
  1249.82,1486.45 1249.82,1467.55 
  "/>
<polyline clip-path="url(#clip990)" style="stroke:#000000; stroke-linecap:butt; stroke-linejoin:round; stroke-width:4; stroke-opacity:1; fill:none" points="
  1674.19,1486.45 1674.19,1467.55 
  "/>
<polyline clip-path="url(#clip990)" style="stroke:#000000; stroke-linecap:butt; stroke-linejoin:round; stroke-width:4; stroke-opacity:1; fill:none" points="
  2098.57,1486.45 2098.57,1467.55 
  "/>
<path clip-path="url(#clip990)" d="M347.612 1532.02 L377.287 1532.02 L377.287 1535.95 L347.612 1535.95 L347.612 1532.02 Z" fill="#000000" fill-rule="evenodd" fill-opacity="1" /><path clip-path="url(#clip990)" d="M387.426 1514.29 L405.783 1514.29 L405.783 1518.22 L391.709 1518.22 L391.709 1526.7 Q392.727 1526.35 393.746 1526.19 Q394.764 1526 395.783 1526 Q401.57 1526 404.949 1529.17 Q408.329 1532.34 408.329 1537.76 Q408.329 1543.34 404.857 1546.44 Q401.384 1549.52 395.065 1549.52 Q392.889 1549.52 390.621 1549.15 Q388.375 1548.78 385.968 1548.04 L385.968 1543.34 Q388.051 1544.47 390.273 1545.03 Q392.496 1545.58 394.972 1545.58 Q398.977 1545.58 401.315 1543.48 Q403.653 1541.37 403.653 1537.76 Q403.653 1534.15 401.315 1532.04 Q398.977 1529.94 394.972 1529.94 Q393.097 1529.94 391.222 1530.35 Q389.371 1530.77 387.426 1531.65 L387.426 1514.29 Z" fill="#000000" fill-rule="evenodd" fill-opacity="1" /><path clip-path="url(#clip990)" d="M417.542 1542.97 L422.426 1542.97 L422.426 1548.85 L417.542 1548.85 L417.542 1542.97 Z" fill="#000000" fill-rule="evenodd" fill-opacity="1" /><path clip-path="url(#clip990)" d="M442.611 1517.37 Q439 1517.37 437.171 1520.93 Q435.366 1524.47 435.366 1531.6 Q435.366 1538.71 437.171 1542.27 Q439 1545.82 442.611 1545.82 Q446.245 1545.82 448.051 1542.27 Q449.88 1538.71 449.88 1531.6 Q449.88 1524.47 448.051 1520.93 Q446.245 1517.37 442.611 1517.37 M442.611 1513.66 Q448.421 1513.66 451.477 1518.27 Q454.555 1522.85 454.555 1531.6 Q454.555 1540.33 451.477 1544.94 Q448.421 1549.52 442.611 1549.52 Q436.801 1549.52 433.722 1544.94 Q430.667 1540.33 430.667 1531.6 Q430.667 1522.85 433.722 1518.27 Q436.801 1513.66 442.611 1513.66 Z" fill="#000000" fill-rule="evenodd" fill-opacity="1" /><path clip-path="url(#clip990)" d="M772.48 1532.02 L802.156 1532.02 L802.156 1535.95 L772.48 1535.95 L772.48 1532.02 Z" fill="#000000" fill-rule="evenodd" fill-opacity="1" /><path clip-path="url(#clip990)" d="M816.276 1544.91 L832.595 1544.91 L832.595 1548.85 L810.651 1548.85 L810.651 1544.91 Q813.313 1542.16 817.896 1537.53 Q822.503 1532.88 823.683 1531.53 Q825.929 1529.01 826.808 1527.27 Q827.711 1525.51 827.711 1523.82 Q827.711 1521.07 825.766 1519.33 Q823.845 1517.6 820.743 1517.6 Q818.544 1517.6 816.091 1518.36 Q813.66 1519.13 810.882 1520.68 L810.882 1515.95 Q813.706 1514.82 816.16 1514.24 Q818.614 1513.66 820.651 1513.66 Q826.021 1513.66 829.216 1516.35 Q832.41 1519.03 832.41 1523.52 Q832.41 1525.65 831.6 1527.57 Q830.813 1529.47 828.706 1532.07 Q828.128 1532.74 825.026 1535.95 Q821.924 1539.15 816.276 1544.91 Z" fill="#000000" fill-rule="evenodd" fill-opacity="1" /><path clip-path="url(#clip990)" d="M842.41 1542.97 L847.294 1542.97 L847.294 1548.85 L842.41 1548.85 L842.41 1542.97 Z" fill="#000000" fill-rule="evenodd" fill-opacity="1" /><path clip-path="url(#clip990)" d="M857.526 1514.29 L875.882 1514.29 L875.882 1518.22 L861.808 1518.22 L861.808 1526.7 Q862.826 1526.35 863.845 1526.19 Q864.863 1526 865.882 1526 Q871.669 1526 875.049 1529.17 Q878.428 1532.34 878.428 1537.76 Q878.428 1543.34 874.956 1546.44 Q871.484 1549.52 865.164 1549.52 Q862.989 1549.52 860.72 1549.15 Q858.475 1548.78 856.067 1548.04 L856.067 1543.34 Q858.151 1544.47 860.373 1545.03 Q862.595 1545.58 865.072 1545.58 Q869.076 1545.58 871.414 1543.48 Q873.752 1541.37 873.752 1537.76 Q873.752 1534.15 871.414 1532.04 Q869.076 1529.94 865.072 1529.94 Q863.197 1529.94 861.322 1530.35 Q859.47 1530.77 857.526 1531.65 L857.526 1514.29 Z" fill="#000000" fill-rule="evenodd" fill-opacity="1" /><path clip-path="url(#clip990)" d="M1227.21 1517.37 Q1223.6 1517.37 1221.77 1520.93 Q1219.96 1524.47 1219.96 1531.6 Q1219.96 1538.71 1221.77 1542.27 Q1223.6 1545.82 1227.21 1545.82 Q1230.84 1545.82 1232.65 1542.27 Q1234.48 1538.71 1234.48 1531.6 Q1234.48 1524.47 1232.65 1520.93 Q1230.84 1517.37 1227.21 1517.37 M1227.21 1513.66 Q1233.02 1513.66 1236.07 1518.27 Q1239.15 1522.85 1239.15 1531.6 Q1239.15 1540.33 1236.07 1544.94 Q1233.02 1549.52 1227.21 1549.52 Q1221.4 1549.52 1218.32 1544.94 Q1215.26 1540.33 1215.26 1531.6 Q1215.26 1522.85 1218.32 1518.27 Q1221.4 1513.66 1227.21 1513.66 Z" fill="#000000" fill-rule="evenodd" fill-opacity="1" /><path clip-path="url(#clip990)" d="M1247.37 1542.97 L1252.25 1542.97 L1252.25 1548.85 L1247.37 1548.85 L1247.37 1542.97 Z" fill="#000000" fill-rule="evenodd" fill-opacity="1" /><path clip-path="url(#clip990)" d="M1272.44 1517.37 Q1268.83 1517.37 1267 1520.93 Q1265.19 1524.47 1265.19 1531.6 Q1265.19 1538.71 1267 1542.27 Q1268.83 1545.82 1272.44 1545.82 Q1276.07 1545.82 1277.88 1542.27 Q1279.71 1538.71 1279.71 1531.6 Q1279.71 1524.47 1277.88 1520.93 Q1276.07 1517.37 1272.44 1517.37 M1272.44 1513.66 Q1278.25 1513.66 1281.31 1518.27 Q1284.38 1522.85 1284.38 1531.6 Q1284.38 1540.33 1281.31 1544.94 Q1278.25 1549.52 1272.44 1549.52 Q1266.63 1549.52 1263.55 1544.94 Q1260.5 1540.33 1260.5 1531.6 Q1260.5 1522.85 1263.55 1518.27 Q1266.63 1513.66 1272.44 1513.66 Z" fill="#000000" fill-rule="evenodd" fill-opacity="1" /><path clip-path="url(#clip990)" d="M1645.93 1544.91 L1662.25 1544.91 L1662.25 1548.85 L1640.31 1548.85 L1640.31 1544.91 Q1642.97 1542.16 1647.55 1537.53 Q1652.16 1532.88 1653.34 1531.53 Q1655.58 1529.01 1656.46 1527.27 Q1657.37 1525.51 1657.37 1523.82 Q1657.37 1521.07 1655.42 1519.33 Q1653.5 1517.6 1650.4 1517.6 Q1648.2 1517.6 1645.75 1518.36 Q1643.32 1519.13 1640.54 1520.68 L1640.54 1515.95 Q1643.36 1514.82 1645.82 1514.24 Q1648.27 1513.66 1650.31 1513.66 Q1655.68 1513.66 1658.87 1516.35 Q1662.07 1519.03 1662.07 1523.52 Q1662.07 1525.65 1661.26 1527.57 Q1660.47 1529.47 1658.36 1532.07 Q1657.78 1532.74 1654.68 1535.95 Q1651.58 1539.15 1645.93 1544.91 Z" fill="#000000" fill-rule="evenodd" fill-opacity="1" /><path clip-path="url(#clip990)" d="M1672.07 1542.97 L1676.95 1542.97 L1676.95 1548.85 L1672.07 1548.85 L1672.07 1542.97 Z" fill="#000000" fill-rule="evenodd" fill-opacity="1" /><path clip-path="url(#clip990)" d="M1687.18 1514.29 L1705.54 1514.29 L1705.54 1518.22 L1691.46 1518.22 L1691.46 1526.7 Q1692.48 1526.35 1693.5 1526.19 Q1694.52 1526 1695.54 1526 Q1701.32 1526 1704.7 1529.17 Q1708.08 1532.34 1708.08 1537.76 Q1708.08 1543.34 1704.61 1546.44 Q1701.14 1549.52 1694.82 1549.52 Q1692.64 1549.52 1690.38 1549.15 Q1688.13 1548.78 1685.72 1548.04 L1685.72 1543.34 Q1687.81 1544.47 1690.03 1545.03 Q1692.25 1545.58 1694.73 1545.58 Q1698.73 1545.58 1701.07 1543.48 Q1703.41 1541.37 1703.41 1537.76 Q1703.41 1534.15 1701.07 1532.04 Q1698.73 1529.94 1694.73 1529.94 Q1692.85 1529.94 1690.98 1530.35 Q1689.13 1530.77 1687.18 1531.65 L1687.18 1514.29 Z" fill="#000000" fill-rule="evenodd" fill-opacity="1" /><path clip-path="url(#clip990)" d="M2065.73 1514.29 L2084.09 1514.29 L2084.09 1518.22 L2070.01 1518.22 L2070.01 1526.7 Q2071.03 1526.35 2072.05 1526.19 Q2073.07 1526 2074.09 1526 Q2079.87 1526 2083.25 1529.17 Q2086.63 1532.34 2086.63 1537.76 Q2086.63 1543.34 2083.16 1546.44 Q2079.69 1549.52 2073.37 1549.52 Q2071.19 1549.52 2068.92 1549.15 Q2066.68 1548.78 2064.27 1548.04 L2064.27 1543.34 Q2066.35 1544.47 2068.58 1545.03 Q2070.8 1545.58 2073.28 1545.58 Q2077.28 1545.58 2079.62 1543.48 Q2081.96 1541.37 2081.96 1537.76 Q2081.96 1534.15 2079.62 1532.04 Q2077.28 1529.94 2073.28 1529.94 Q2071.4 1529.94 2069.53 1530.35 Q2067.67 1530.77 2065.73 1531.65 L2065.73 1514.29 Z" fill="#000000" fill-rule="evenodd" fill-opacity="1" /><path clip-path="url(#clip990)" d="M2095.85 1542.97 L2100.73 1542.97 L2100.73 1548.85 L2095.85 1548.85 L2095.85 1542.97 Z" fill="#000000" fill-rule="evenodd" fill-opacity="1" /><path clip-path="url(#clip990)" d="M2120.91 1517.37 Q2117.3 1517.37 2115.47 1520.93 Q2113.67 1524.47 2113.67 1531.6 Q2113.67 1538.71 2115.47 1542.27 Q2117.3 1545.82 2120.91 1545.82 Q2124.55 1545.82 2126.35 1542.27 Q2128.18 1538.71 2128.18 1531.6 Q2128.18 1524.47 2126.35 1520.93 Q2124.55 1517.37 2120.91 1517.37 M2120.91 1513.66 Q2126.72 1513.66 2129.78 1518.27 Q2132.86 1522.85 2132.86 1531.6 Q2132.86 1540.33 2129.78 1544.94 Q2126.72 1549.52 2120.91 1549.52 Q2115.1 1549.52 2112.03 1544.94 Q2108.97 1540.33 2108.97 1531.6 Q2108.97 1522.85 2112.03 1518.27 Q2115.1 1513.66 2120.91 1513.66 Z" fill="#000000" fill-rule="evenodd" fill-opacity="1" /><polyline clip-path="url(#clip992)" style="stroke:#000000; stroke-linecap:butt; stroke-linejoin:round; stroke-width:2; stroke-opacity:0.1; fill:none" points="
  147.108,1445.95 2352.76,1445.95 
  "/>
<polyline clip-path="url(#clip992)" style="stroke:#000000; stroke-linecap:butt; stroke-linejoin:round; stroke-width:2; stroke-opacity:0.1; fill:none" points="
  147.108,1106.46 2352.76,1106.46 
  "/>
<polyline clip-path="url(#clip992)" style="stroke:#000000; stroke-linecap:butt; stroke-linejoin:round; stroke-width:2; stroke-opacity:0.1; fill:none" points="
  147.108,766.959 2352.76,766.959 
  "/>
<polyline clip-path="url(#clip992)" style="stroke:#000000; stroke-linecap:butt; stroke-linejoin:round; stroke-width:2; stroke-opacity:0.1; fill:none" points="
  147.108,427.463 2352.76,427.463 
  "/>
<polyline clip-path="url(#clip992)" style="stroke:#000000; stroke-linecap:butt; stroke-linejoin:round; stroke-width:2; stroke-opacity:0.1; fill:none" points="
  147.108,87.9666 2352.76,87.9666 
  "/>
<polyline clip-path="url(#clip990)" style="stroke:#000000; stroke-linecap:butt; stroke-linejoin:round; stroke-width:4; stroke-opacity:1; fill:none" points="
  147.108,1486.45 147.108,47.2441 
  "/>
<polyline clip-path="url(#clip990)" style="stroke:#000000; stroke-linecap:butt; stroke-linejoin:round; stroke-width:4; stroke-opacity:1; fill:none" points="
  147.108,1445.95 166.005,1445.95 
  "/>
<polyline clip-path="url(#clip990)" style="stroke:#000000; stroke-linecap:butt; stroke-linejoin:round; stroke-width:4; stroke-opacity:1; fill:none" points="
  147.108,1106.46 166.005,1106.46 
  "/>
<polyline clip-path="url(#clip990)" style="stroke:#000000; stroke-linecap:butt; stroke-linejoin:round; stroke-width:4; stroke-opacity:1; fill:none" points="
  147.108,766.959 166.005,766.959 
  "/>
<polyline clip-path="url(#clip990)" style="stroke:#000000; stroke-linecap:butt; stroke-linejoin:round; stroke-width:4; stroke-opacity:1; fill:none" points="
  147.108,427.463 166.005,427.463 
  "/>
<polyline clip-path="url(#clip990)" style="stroke:#000000; stroke-linecap:butt; stroke-linejoin:round; stroke-width:4; stroke-opacity:1; fill:none" points="
  147.108,87.9666 166.005,87.9666 
  "/>
<path clip-path="url(#clip990)" d="M50.9921 1446.4 L80.6679 1446.4 L80.6679 1450.34 L50.9921 1450.34 L50.9921 1446.4 Z" fill="#000000" fill-rule="evenodd" fill-opacity="1" /><path clip-path="url(#clip990)" d="M94.7882 1459.3 L111.108 1459.3 L111.108 1463.23 L89.1632 1463.23 L89.1632 1459.3 Q91.8252 1456.54 96.4085 1451.91 Q101.015 1447.26 102.196 1445.92 Q104.441 1443.39 105.321 1441.66 Q106.223 1439.9 106.223 1438.21 Q106.223 1435.45 104.279 1433.72 Q102.358 1431.98 99.2558 1431.98 Q97.0567 1431.98 94.603 1432.75 Q92.1725 1433.51 89.3947 1435.06 L89.3947 1430.34 Q92.2188 1429.2 94.6724 1428.63 Q97.1261 1428.05 99.1632 1428.05 Q104.534 1428.05 107.728 1430.73 Q110.922 1433.42 110.922 1437.91 Q110.922 1440.04 110.112 1441.96 Q109.325 1443.86 107.219 1446.45 Q106.64 1447.12 103.538 1450.34 Q100.436 1453.53 94.7882 1459.3 Z" fill="#000000" fill-rule="evenodd" fill-opacity="1" /><path clip-path="url(#clip990)" d="M99.1632 1092.25 Q95.5521 1092.25 93.7234 1095.82 Q91.9178 1099.36 91.9178 1106.49 Q91.9178 1113.6 93.7234 1117.16 Q95.5521 1120.7 99.1632 1120.7 Q102.797 1120.7 104.603 1117.16 Q106.432 1113.6 106.432 1106.49 Q106.432 1099.36 104.603 1095.82 Q102.797 1092.25 99.1632 1092.25 M99.1632 1088.55 Q104.973 1088.55 108.029 1093.16 Q111.108 1097.74 111.108 1106.49 Q111.108 1115.22 108.029 1119.82 Q104.973 1124.41 99.1632 1124.41 Q93.353 1124.41 90.2743 1119.82 Q87.2188 1115.22 87.2188 1106.49 Q87.2188 1097.74 90.2743 1093.16 Q93.353 1088.55 99.1632 1088.55 Z" fill="#000000" fill-rule="evenodd" fill-opacity="1" /><path clip-path="url(#clip990)" d="M94.7882 780.304 L111.108 780.304 L111.108 784.239 L89.1632 784.239 L89.1632 780.304 Q91.8252 777.55 96.4085 772.92 Q101.015 768.267 102.196 766.925 Q104.441 764.401 105.321 762.665 Q106.223 760.906 106.223 759.216 Q106.223 756.462 104.279 754.726 Q102.358 752.989 99.2558 752.989 Q97.0567 752.989 94.603 753.753 Q92.1725 754.517 89.3947 756.068 L89.3947 751.346 Q92.2188 750.212 94.6724 749.633 Q97.1261 749.054 99.1632 749.054 Q104.534 749.054 107.728 751.739 Q110.922 754.425 110.922 758.915 Q110.922 761.045 110.112 762.966 Q109.325 764.864 107.219 767.457 Q106.64 768.128 103.538 771.346 Q100.436 774.54 94.7882 780.304 Z" fill="#000000" fill-rule="evenodd" fill-opacity="1" /><path clip-path="url(#clip990)" d="M101.524 414.257 L89.7188 432.706 L101.524 432.706 L101.524 414.257 M100.297 410.183 L106.177 410.183 L106.177 432.706 L111.108 432.706 L111.108 436.595 L106.177 436.595 L106.177 444.743 L101.524 444.743 L101.524 436.595 L85.9225 436.595 L85.9225 432.081 L100.297 410.183 Z" fill="#000000" fill-rule="evenodd" fill-opacity="1" /><path clip-path="url(#clip990)" d="M99.5798 86.1032 Q96.4317 86.1032 94.5799 88.2559 Q92.7512 90.4087 92.7512 94.1587 Q92.7512 97.8855 94.5799 100.061 Q96.4317 102.214 99.5798 102.214 Q102.728 102.214 104.557 100.061 Q106.408 97.8855 106.408 94.1587 Q106.408 90.4087 104.557 88.2559 Q102.728 86.1032 99.5798 86.1032 M108.862 71.4505 L108.862 75.7097 Q107.103 74.8764 105.297 74.4365 Q103.515 73.9967 101.756 73.9967 Q97.1261 73.9967 94.6724 77.1217 Q92.2419 80.2467 91.8947 86.5661 Q93.2604 84.5522 95.3206 83.4874 Q97.3808 82.3995 99.8576 82.3995 Q105.066 82.3995 108.075 85.5707 Q111.108 88.7189 111.108 94.1587 Q111.108 99.4827 107.959 102.7 Q104.811 105.918 99.5798 105.918 Q93.5845 105.918 90.4132 101.335 Q87.2419 96.7281 87.2419 88.0013 Q87.2419 79.8069 91.1308 74.9458 Q95.0197 70.0616 101.571 70.0616 Q103.33 70.0616 105.112 70.4088 Q106.918 70.756 108.862 71.4505 Z" fill="#000000" fill-rule="evenodd" fill-opacity="1" /><path clip-path="url(#clip992)" d="
M854.847 603.354 L872.954 561.888 L892.579 521.247 L913.643 481.596 L936.06 443.094 L959.74 405.897 L984.589 370.153 L1010.51 336.006 L1037.39 303.595 L1065.12 273.05 
  L1093.6 244.494 L1122.71 218.041 L1152.33 193.799 L1182.34 171.865 L1212.63 152.327 L1243.06 135.264 L1273.52 120.744 L1303.89 108.827 L1334.04 99.5592 L1363.85 92.9791 
  L1393.2 89.113 L1421.97 87.9763 L1450.05 89.5736 L1477.33 93.8985 L1503.68 100.934 L1529.02 110.651 L1553.23 123.01 L1576.22 137.963 L1597.89 155.448 L1618.17 175.396 
  L1636.96 197.726 L1654.19 222.347 L1669.79 249.162 L1683.71 278.062 L1695.87 308.93 L1706.24 341.643 L1714.77 376.068 L1721.43 412.068 L1726.19 449.496 L1729.03 488.203 
  L1729.94 528.032 L1728.92 568.823 L1725.97 610.412 L1721.11 652.631 L1714.34 695.311 L1705.71 738.279 L1695.23 781.363 L1682.97 824.389 L1668.96 867.183 L1653.26 909.574 
  L1635.94 951.39 L1617.07 992.464 L1596.71 1032.63 L1574.96 1071.73 L1551.9 1109.6 L1527.62 1146.08 L1502.23 1181.05 L1475.82 1214.34 L1448.49 1245.84 L1420.37 1275.4 
  L1391.56 1302.92 L1362.19 1328.28 L1332.35 1351.38 L1302.19 1372.13 L1271.81 1390.44 L1241.35 1406.24 L1210.92 1419.46 L1180.65 1430.06 L1150.65 1437.99 L1121.06 1443.21 
  L1091.98 1445.72 L1063.54 1445.49 L1035.85 1442.52 L1009.02 1436.84 L983.164 1428.46 L958.378 1417.42 L934.766 1403.75 L912.423 1387.53 L891.438 1368.8 L871.896 1347.65 
  L853.876 1324.16 L837.45 1298.43 L822.685 1270.56 L809.64 1240.66 L798.367 1208.85 L788.912 1175.27 L781.313 1140.04 L775.6 1103.31 L771.798 1065.22 L769.919 1025.93 
  L769.974 985.601 L771.96 944.391 L775.871 902.465 L781.69 859.994 L789.394 817.149 L798.952 774.101 L810.326 731.025 L823.469 688.093 L838.329 645.479 L854.847 603.354 
  L854.847 603.354  Z
  " fill="#009af9" fill-rule="evenodd" fill-opacity="0.3"/>
<polyline clip-path="url(#clip992)" style="stroke:#000000; stroke-linecap:butt; stroke-linejoin:round; stroke-width:4; stroke-opacity:0.3; fill:none" points="
  854.847,603.354 872.954,561.888 892.579,521.247 913.643,481.596 936.06,443.094 959.74,405.897 984.589,370.153 1010.51,336.006 1037.39,303.595 1065.12,273.05 
  1093.6,244.494 1122.71,218.041 1152.33,193.799 1182.34,171.865 1212.63,152.327 1243.06,135.264 1273.52,120.744 1303.89,108.827 1334.04,99.5592 1363.85,92.9791 
  1393.2,89.113 1421.97,87.9763 1450.05,89.5736 1477.33,93.8985 1503.68,100.934 1529.02,110.651 1553.23,123.01 1576.22,137.963 1597.89,155.448 1618.17,175.396 
  1636.96,197.726 1654.19,222.347 1669.79,249.162 1683.71,278.062 1695.87,308.93 1706.24,341.643 1714.77,376.068 1721.43,412.068 1726.19,449.496 1729.03,488.203 
  1729.94,528.032 1728.92,568.823 1725.97,610.412 1721.11,652.631 1714.34,695.311 1705.71,738.279 1695.23,781.363 1682.97,824.389 1668.96,867.183 1653.26,909.574 
  1635.94,951.39 1617.07,992.464 1596.71,1032.63 1574.96,1071.73 1551.9,1109.6 1527.62,1146.08 1502.23,1181.05 1475.82,1214.34 1448.49,1245.84 1420.37,1275.4 
  1391.56,1302.92 1362.19,1328.28 1332.35,1351.38 1302.19,1372.13 1271.81,1390.44 1241.35,1406.24 1210.92,1419.46 1180.65,1430.06 1150.65,1437.99 1121.06,1443.21 
  1091.98,1445.72 1063.54,1445.49 1035.85,1442.52 1009.02,1436.84 983.164,1428.46 958.378,1417.42 934.766,1403.75 912.423,1387.53 891.438,1368.8 871.896,1347.65 
  853.876,1324.16 837.45,1298.43 822.685,1270.56 809.64,1240.66 798.367,1208.85 788.912,1175.27 781.313,1140.04 775.6,1103.31 771.798,1065.22 769.919,1025.93 
  769.974,985.601 771.96,944.391 775.871,902.465 781.69,859.994 789.394,817.149 798.952,774.101 810.326,731.025 823.469,688.093 838.329,645.479 854.847,603.354 
  854.847,603.354 
  "/>
<path clip-path="url(#clip992)" d="
M1264.42 1143.08 L1260.37 1124.51 L1256.95 1105.86 L1254.19 1087.21 L1252.1 1068.64 L1250.68 1050.23 L1249.94 1032.04 L1249.88 1014.15 L1250.51 996.627 L1251.82 979.551 
  L1253.8 962.985 L1256.45 946.998 L1259.76 931.652 L1263.71 917.01 L1268.29 903.131 L1273.48 890.071 L1279.26 877.882 L1285.6 866.614 L1292.48 856.311 L1299.87 847.015 
  L1307.74 838.765 L1316.07 831.592 L1324.81 825.525 L1333.93 820.59 L1343.4 816.807 L1353.18 814.189 L1363.22 812.748 L1373.49 812.49 L1383.94 813.416 L1394.54 815.522 
  L1405.24 818.799 L1416 823.234 L1426.77 828.81 L1437.51 835.504 L1448.18 843.289 L1458.73 852.133 L1469.13 862.002 L1479.33 872.855 L1489.28 884.648 L1498.96 897.335 
  L1508.32 910.864 L1517.31 925.18 L1525.92 940.226 L1534.1 955.942 L1541.81 972.263 L1549.04 989.125 L1555.74 1006.46 L1561.89 1024.2 L1567.48 1042.27 L1572.46 1060.59 
  L1576.83 1079.1 L1580.57 1097.73 L1583.66 1116.38 L1586.08 1135 L1587.84 1153.5 L1588.92 1171.81 L1589.32 1189.86 L1589.03 1207.58 L1588.06 1224.88 L1586.42 1241.71 
  L1584.1 1258 L1581.12 1273.67 L1577.49 1288.67 L1573.22 1302.94 L1568.33 1316.42 L1562.85 1329.05 L1556.79 1340.78 L1550.17 1351.57 L1543.03 1361.38 L1535.4 1370.15 
  L1527.29 1377.87 L1518.76 1384.49 L1509.82 1390 L1500.52 1394.36 L1490.89 1397.56 L1480.98 1399.59 L1470.82 1400.44 L1460.45 1400.11 L1449.92 1398.59 L1439.27 1395.9 
  L1428.53 1392.04 L1417.76 1387.03 L1407 1380.89 L1396.29 1373.65 L1385.67 1365.33 L1375.19 1355.97 L1364.89 1345.6 L1354.81 1334.27 L1344.99 1322.03 L1335.47 1308.91 
  L1326.28 1294.98 L1317.48 1280.3 L1309.08 1264.91 L1301.13 1248.88 L1293.66 1232.28 L1286.69 1215.17 L1280.26 1197.63 L1274.39 1179.72 L1269.1 1161.51 L1264.42 1143.08 
  L1264.42 1143.08  Z
  " fill="#e26f46" fill-rule="evenodd" fill-opacity="0.3"/>
<polyline clip-path="url(#clip992)" style="stroke:#000000; stroke-linecap:butt; stroke-linejoin:round; stroke-width:4; stroke-opacity:0.3; fill:none" points="
  1264.42,1143.08 1260.37,1124.51 1256.95,1105.86 1254.19,1087.21 1252.1,1068.64 1250.68,1050.23 1249.94,1032.04 1249.88,1014.15 1250.51,996.627 1251.82,979.551 
  1253.8,962.985 1256.45,946.998 1259.76,931.652 1263.71,917.01 1268.29,903.131 1273.48,890.071 1279.26,877.882 1285.6,866.614 1292.48,856.311 1299.87,847.015 
  1307.74,838.765 1316.07,831.592 1324.81,825.525 1333.93,820.59 1343.4,816.807 1353.18,814.189 1363.22,812.748 1373.49,812.49 1383.94,813.416 1394.54,815.522 
  1405.24,818.799 1416,823.234 1426.77,828.81 1437.51,835.504 1448.18,843.289 1458.73,852.133 1469.13,862.002 1479.33,872.855 1489.28,884.648 1498.96,897.335 
  1508.32,910.864 1517.31,925.18 1525.92,940.226 1534.1,955.942 1541.81,972.263 1549.04,989.125 1555.74,1006.46 1561.89,1024.2 1567.48,1042.27 1572.46,1060.59 
  1576.83,1079.1 1580.57,1097.73 1583.66,1116.38 1586.08,1135 1587.84,1153.5 1588.92,1171.81 1589.32,1189.86 1589.03,1207.58 1588.06,1224.88 1586.42,1241.71 
  1584.1,1258 1581.12,1273.67 1577.49,1288.67 1573.22,1302.94 1568.33,1316.42 1562.85,1329.05 1556.79,1340.78 1550.17,1351.57 1543.03,1361.38 1535.4,1370.15 
  1527.29,1377.87 1518.76,1384.49 1509.82,1390 1500.52,1394.36 1490.89,1397.56 1480.98,1399.59 1470.82,1400.44 1460.45,1400.11 1449.92,1398.59 1439.27,1395.9 
  1428.53,1392.04 1417.76,1387.03 1407,1380.89 1396.29,1373.65 1385.67,1365.33 1375.19,1355.97 1364.89,1345.6 1354.81,1334.27 1344.99,1322.03 1335.47,1308.91 
  1326.28,1294.98 1317.48,1280.3 1309.08,1264.91 1301.13,1248.88 1293.66,1232.28 1286.69,1215.17 1280.26,1197.63 1274.39,1179.72 1269.1,1161.51 1264.42,1143.08 
  
  "/>
<polyline clip-path="url(#clip992)" style="stroke:#808080; stroke-linecap:butt; stroke-linejoin:round; stroke-width:4; stroke-opacity:1; fill:none" points="
  1264.42,1143.08 1419.57,1106.46 1350.71,814.733 
  "/>
<path clip-path="url(#clip990)" d="
M1927.87 250.738 L2279.23 250.738 L2279.23 95.2176 L1927.87 95.2176  Z
  " fill="#ffffff" fill-rule="evenodd" fill-opacity="1"/>
<polyline clip-path="url(#clip990)" style="stroke:#000000; stroke-linecap:butt; stroke-linejoin:round; stroke-width:4; stroke-opacity:1; fill:none" points="
  1927.87,250.738 2279.23,250.738 2279.23,95.2176 1927.87,95.2176 1927.87,250.738 
  "/>
<path clip-path="url(#clip990)" d="
M1952.37 167.794 L2099.42 167.794 L2099.42 126.322 L1952.37 126.322 L1952.37 167.794  Z
  " fill="#009af9" fill-rule="evenodd" fill-opacity="0.3"/>
<polyline clip-path="url(#clip990)" style="stroke:#000000; stroke-linecap:butt; stroke-linejoin:round; stroke-width:4; stroke-opacity:1; fill:none" points="
  1952.37,167.794 2099.42,167.794 2099.42,126.322 1952.37,126.322 1952.37,167.794 
  "/>
<path clip-path="url(#clip990)" d="M2144.43 139.407 L2144.43 143.389 Q2142.63 142.393 2140.8 141.907 Q2138.99 141.398 2137.14 141.398 Q2133 141.398 2130.71 144.037 Q2128.41 146.652 2128.41 151.398 Q2128.41 156.143 2130.71 158.782 Q2133 161.398 2137.14 161.398 Q2138.99 161.398 2140.8 160.912 Q2142.63 160.402 2144.43 159.407 L2144.43 163.342 Q2142.65 164.176 2140.73 164.592 Q2138.83 165.009 2136.68 165.009 Q2130.82 165.009 2127.37 161.328 Q2123.92 157.648 2123.92 151.398 Q2123.92 145.055 2127.4 141.421 Q2130.89 137.787 2136.96 137.787 Q2138.92 137.787 2140.8 138.203 Q2142.67 138.597 2144.43 139.407 Z" fill="#000000" fill-rule="evenodd" fill-opacity="1" /><path clip-path="url(#clip990)" d="M2161.89 141.398 Q2158.46 141.398 2156.47 144.083 Q2154.48 146.745 2154.48 151.398 Q2154.48 156.051 2156.45 158.736 Q2158.44 161.398 2161.89 161.398 Q2165.29 161.398 2167.28 158.713 Q2169.27 156.027 2169.27 151.398 Q2169.27 146.791 2167.28 144.106 Q2165.29 141.398 2161.89 141.398 M2161.89 137.787 Q2167.44 137.787 2170.61 141.398 Q2173.79 145.009 2173.79 151.398 Q2173.79 157.764 2170.61 161.398 Q2167.44 165.009 2161.89 165.009 Q2156.31 165.009 2153.14 161.398 Q2149.99 157.764 2149.99 151.398 Q2149.99 145.009 2153.14 141.398 Q2156.31 137.787 2161.89 137.787 Z" fill="#000000" fill-rule="evenodd" fill-opacity="1" /><path clip-path="url(#clip990)" d="M2177.79 138.412 L2182.3 138.412 L2190.41 160.171 L2198.51 138.412 L2203.02 138.412 L2193.3 164.338 L2187.51 164.338 L2177.79 138.412 Z" fill="#000000" fill-rule="evenodd" fill-opacity="1" /><path clip-path="url(#clip990)" d="M2210.31 160.402 L2217.95 160.402 L2217.95 134.037 L2209.64 135.703 L2209.64 131.444 L2217.91 129.778 L2222.58 129.778 L2222.58 160.402 L2230.22 160.402 L2230.22 164.338 L2210.31 164.338 L2210.31 160.402 Z" fill="#000000" fill-rule="evenodd" fill-opacity="1" /><path clip-path="url(#clip990)" d="
M1952.37 219.634 L2099.42 219.634 L2099.42 178.162 L1952.37 178.162 L1952.37 219.634  Z
  " fill="#e26f46" fill-rule="evenodd" fill-opacity="0.3"/>
<polyline clip-path="url(#clip990)" style="stroke:#000000; stroke-linecap:butt; stroke-linejoin:round; stroke-width:4; stroke-opacity:1; fill:none" points="
  1952.37,219.634 2099.42,219.634 2099.42,178.162 1952.37,178.162 1952.37,219.634 
  "/>
<path clip-path="url(#clip990)" d="M2144.43 191.247 L2144.43 195.229 Q2142.63 194.233 2140.8 193.747 Q2138.99 193.238 2137.14 193.238 Q2133 193.238 2130.71 195.877 Q2128.41 198.492 2128.41 203.238 Q2128.41 207.983 2130.71 210.622 Q2133 213.238 2137.14 213.238 Q2138.99 213.238 2140.8 212.752 Q2142.63 212.242 2144.43 211.247 L2144.43 215.182 Q2142.65 216.016 2140.73 216.432 Q2138.83 216.849 2136.68 216.849 Q2130.82 216.849 2127.37 213.168 Q2123.92 209.488 2123.92 203.238 Q2123.92 196.895 2127.4 193.261 Q2130.89 189.627 2136.96 189.627 Q2138.92 189.627 2140.8 190.043 Q2142.67 190.437 2144.43 191.247 Z" fill="#000000" fill-rule="evenodd" fill-opacity="1" /><path clip-path="url(#clip990)" d="M2161.89 193.238 Q2158.46 193.238 2156.47 195.923 Q2154.48 198.585 2154.48 203.238 Q2154.48 207.891 2156.45 210.576 Q2158.44 213.238 2161.89 213.238 Q2165.29 213.238 2167.28 210.553 Q2169.27 207.867 2169.27 203.238 Q2169.27 198.631 2167.28 195.946 Q2165.29 193.238 2161.89 193.238 M2161.89 189.627 Q2167.44 189.627 2170.61 193.238 Q2173.79 196.849 2173.79 203.238 Q2173.79 209.604 2170.61 213.238 Q2167.44 216.849 2161.89 216.849 Q2156.31 216.849 2153.14 213.238 Q2149.99 209.604 2149.99 203.238 Q2149.99 196.849 2153.14 193.238 Q2156.31 189.627 2161.89 189.627 Z" fill="#000000" fill-rule="evenodd" fill-opacity="1" /><path clip-path="url(#clip990)" d="M2177.79 190.252 L2182.3 190.252 L2190.41 212.011 L2198.51 190.252 L2203.02 190.252 L2193.3 216.178 L2187.51 216.178 L2177.79 190.252 Z" fill="#000000" fill-rule="evenodd" fill-opacity="1" /><path clip-path="url(#clip990)" d="M2213.53 212.242 L2229.85 212.242 L2229.85 216.178 L2207.91 216.178 L2207.91 212.242 Q2210.57 209.488 2215.15 204.858 Q2219.76 200.205 2220.94 198.863 Q2223.18 196.34 2224.06 194.604 Q2224.97 192.844 2224.97 191.155 Q2224.97 188.4 2223.02 186.664 Q2221.1 184.928 2218 184.928 Q2215.8 184.928 2213.34 185.692 Q2210.91 186.455 2208.14 188.006 L2208.14 183.284 Q2210.96 182.15 2213.41 181.571 Q2215.87 180.993 2217.91 180.993 Q2223.28 180.993 2226.47 183.678 Q2229.66 186.363 2229.66 190.854 Q2229.66 192.983 2228.85 194.905 Q2228.07 196.803 2225.96 199.395 Q2225.38 200.067 2222.28 203.284 Q2219.18 206.479 2213.53 212.242 Z" fill="#000000" fill-rule="evenodd" fill-opacity="1" /></svg>
