<?xml version="1.0" encoding="utf-8"?>
<svg xmlns="http://www.w3.org/2000/svg" xmlns:xlink="http://www.w3.org/1999/xlink" width="672" height="480" viewBox="0 0 2688 1920">
<defs>
  <clipPath id="clip690">
    <rect x="0" y="0" width="2688" height="1920"/>
  </clipPath>
</defs>
<path clip-path="url(#clip690)" d="
M0 1920 L2688 1920 L2688 0 L0 0  Z
  " fill="#ffffff" fill-rule="evenodd" fill-opacity="1"/>
<defs>
  <clipPath id="clip691">
    <rect x="537" y="0" width="1883" height="1883"/>
  </clipPath>
</defs>
<path clip-path="url(#clip690)" d="
M149.988 1800.78 L2640.76 1800.78 L2640.76 47.2441 L149.988 47.2441  Z
  " fill="#ffffff" fill-rule="evenodd" fill-opacity="1"/>
<defs>
  <clipPath id="clip692">
    <rect x="149" y="47" width="2492" height="1755"/>
  </clipPath>
</defs>
<polyline clip-path="url(#clip692)" style="stroke:#000000; stroke-linecap:butt; stroke-linejoin:round; stroke-width:2; stroke-opacity:0.1; fill:none" points="
  361.13,1800.78 361.13,47.2441 
  "/>
<polyline clip-path="url(#clip692)" style="stroke:#000000; stroke-linecap:butt; stroke-linejoin:round; stroke-width:2; stroke-opacity:0.1; fill:none" points="
  878.185,1800.78 878.185,47.2441 
  "/>
<polyline clip-path="url(#clip692)" style="stroke:#000000; stroke-linecap:butt; stroke-linejoin:round; stroke-width:2; stroke-opacity:0.1; fill:none" points="
  1395.24,1800.78 1395.24,47.2441 
  "/>
<polyline clip-path="url(#clip692)" style="stroke:#000000; stroke-linecap:butt; stroke-linejoin:round; stroke-width:2; stroke-opacity:0.1; fill:none" points="
  1912.3,1800.78 1912.3,47.2441 
  "/>
<polyline clip-path="url(#clip692)" style="stroke:#000000; stroke-linecap:butt; stroke-linejoin:round; stroke-width:2; stroke-opacity:0.1; fill:none" points="
  2429.35,1800.78 2429.35,47.2441 
  "/>
<polyline clip-path="url(#clip690)" style="stroke:#000000; stroke-linecap:butt; stroke-linejoin:round; stroke-width:4; stroke-opacity:1; fill:none" points="
  149.988,1800.78 2640.76,1800.78 
  "/>
<polyline clip-path="url(#clip690)" style="stroke:#000000; stroke-linecap:butt; stroke-linejoin:round; stroke-width:4; stroke-opacity:1; fill:none" points="
  361.13,1800.78 361.13,1781.88 
  "/>
<polyline clip-path="url(#clip690)" style="stroke:#000000; stroke-linecap:butt; stroke-linejoin:round; stroke-width:4; stroke-opacity:1; fill:none" points="
  878.185,1800.78 878.185,1781.88 
  "/>
<polyline clip-path="url(#clip690)" style="stroke:#000000; stroke-linecap:butt; stroke-linejoin:round; stroke-width:4; stroke-opacity:1; fill:none" points="
  1395.24,1800.78 1395.24,1781.88 
  "/>
<polyline clip-path="url(#clip690)" style="stroke:#000000; stroke-linecap:butt; stroke-linejoin:round; stroke-width:4; stroke-opacity:1; fill:none" points="
  1912.3,1800.78 1912.3,1781.88 
  "/>
<polyline clip-path="url(#clip690)" style="stroke:#000000; stroke-linecap:butt; stroke-linejoin:round; stroke-width:4; stroke-opacity:1; fill:none" points="
  2429.35,1800.78 2429.35,1781.88 
  "/>
<path clip-path="url(#clip690)" d="M307.658 1848.65 L337.333 1848.65 L337.333 1852.59 L307.658 1852.59 L307.658 1848.65 Z" fill="#000000" fill-rule="evenodd" fill-opacity="1" /><path clip-path="url(#clip690)" d="M347.472 1830.92 L365.829 1830.92 L365.829 1834.86 L351.755 1834.86 L351.755 1843.33 Q352.773 1842.98 353.792 1842.82 Q354.81 1842.64 355.829 1842.64 Q361.616 1842.64 364.995 1845.81 Q368.375 1848.98 368.375 1854.4 Q368.375 1859.97 364.903 1863.08 Q361.431 1866.15 355.111 1866.15 Q352.935 1866.15 350.667 1865.78 Q348.421 1865.41 346.014 1864.67 L346.014 1859.97 Q348.097 1861.11 350.319 1861.66 Q352.542 1862.22 355.019 1862.22 Q359.023 1862.22 361.361 1860.11 Q363.699 1858.01 363.699 1854.4 Q363.699 1850.78 361.361 1848.68 Q359.023 1846.57 355.019 1846.57 Q353.144 1846.57 351.269 1846.99 Q349.417 1847.4 347.472 1848.28 L347.472 1830.92 Z" fill="#000000" fill-rule="evenodd" fill-opacity="1" /><path clip-path="url(#clip690)" d="M377.588 1859.6 L382.472 1859.6 L382.472 1865.48 L377.588 1865.48 L377.588 1859.6 Z" fill="#000000" fill-rule="evenodd" fill-opacity="1" /><path clip-path="url(#clip690)" d="M402.657 1834 Q399.046 1834 397.217 1837.57 Q395.412 1841.11 395.412 1848.24 Q395.412 1855.34 397.217 1858.91 Q399.046 1862.45 402.657 1862.45 Q406.291 1862.45 408.097 1858.91 Q409.926 1855.34 409.926 1848.24 Q409.926 1841.11 408.097 1837.57 Q406.291 1834 402.657 1834 M402.657 1830.3 Q408.467 1830.3 411.523 1834.9 Q414.602 1839.49 414.602 1848.24 Q414.602 1856.96 411.523 1861.57 Q408.467 1866.15 402.657 1866.15 Q396.847 1866.15 393.768 1861.57 Q390.713 1856.96 390.713 1848.24 Q390.713 1839.49 393.768 1834.9 Q396.847 1830.3 402.657 1830.3 Z" fill="#000000" fill-rule="evenodd" fill-opacity="1" /><path clip-path="url(#clip690)" d="M825.211 1848.65 L854.887 1848.65 L854.887 1852.59 L825.211 1852.59 L825.211 1848.65 Z" fill="#000000" fill-rule="evenodd" fill-opacity="1" /><path clip-path="url(#clip690)" d="M869.007 1861.55 L885.326 1861.55 L885.326 1865.48 L863.382 1865.48 L863.382 1861.55 Q866.044 1858.79 870.627 1854.16 Q875.234 1849.51 876.414 1848.17 Q878.66 1845.65 879.539 1843.91 Q880.442 1842.15 880.442 1840.46 Q880.442 1837.71 878.498 1835.97 Q876.577 1834.23 873.475 1834.23 Q871.276 1834.23 868.822 1835 Q866.391 1835.76 863.614 1837.31 L863.614 1832.59 Q866.438 1831.46 868.891 1830.88 Q871.345 1830.3 873.382 1830.3 Q878.752 1830.3 881.947 1832.98 Q885.141 1835.67 885.141 1840.16 Q885.141 1842.29 884.331 1844.21 Q883.544 1846.11 881.438 1848.7 Q880.859 1849.37 877.757 1852.59 Q874.655 1855.78 869.007 1861.55 Z" fill="#000000" fill-rule="evenodd" fill-opacity="1" /><path clip-path="url(#clip690)" d="M895.141 1859.6 L900.025 1859.6 L900.025 1865.48 L895.141 1865.48 L895.141 1859.6 Z" fill="#000000" fill-rule="evenodd" fill-opacity="1" /><path clip-path="url(#clip690)" d="M910.257 1830.92 L928.613 1830.92 L928.613 1834.86 L914.539 1834.86 L914.539 1843.33 Q915.558 1842.98 916.576 1842.82 Q917.595 1842.64 918.613 1842.64 Q924.4 1842.64 927.78 1845.81 Q931.16 1848.98 931.16 1854.4 Q931.16 1859.97 927.687 1863.08 Q924.215 1866.15 917.896 1866.15 Q915.72 1866.15 913.451 1865.78 Q911.206 1865.41 908.799 1864.67 L908.799 1859.97 Q910.882 1861.11 913.104 1861.66 Q915.326 1862.22 917.803 1862.22 Q921.808 1862.22 924.146 1860.11 Q926.484 1858.01 926.484 1854.4 Q926.484 1850.78 924.146 1848.68 Q921.808 1846.57 917.803 1846.57 Q915.928 1846.57 914.053 1846.99 Q912.201 1847.4 910.257 1848.28 L910.257 1830.92 Z" fill="#000000" fill-rule="evenodd" fill-opacity="1" /><path clip-path="url(#clip690)" d="M1372.63 1834 Q1369.01 1834 1367.19 1837.57 Q1365.38 1841.11 1365.38 1848.24 Q1365.38 1855.34 1367.19 1858.91 Q1369.01 1862.45 1372.63 1862.45 Q1376.26 1862.45 1378.07 1858.91 Q1379.89 1855.34 1379.89 1848.24 Q1379.89 1841.11 1378.07 1837.57 Q1376.26 1834 1372.63 1834 M1372.63 1830.3 Q1378.44 1830.3 1381.49 1834.9 Q1384.57 1839.49 1384.57 1848.24 Q1384.57 1856.96 1381.49 1861.57 Q1378.44 1866.15 1372.63 1866.15 Q1366.82 1866.15 1363.74 1861.57 Q1360.68 1856.96 1360.68 1848.24 Q1360.68 1839.49 1363.74 1834.9 Q1366.82 1830.3 1372.63 1830.3 Z" fill="#000000" fill-rule="evenodd" fill-opacity="1" /><path clip-path="url(#clip690)" d="M1392.79 1859.6 L1397.67 1859.6 L1397.67 1865.48 L1392.79 1865.48 L1392.79 1859.6 Z" fill="#000000" fill-rule="evenodd" fill-opacity="1" /><path clip-path="url(#clip690)" d="M1417.86 1834 Q1414.25 1834 1412.42 1837.57 Q1410.61 1841.11 1410.61 1848.24 Q1410.61 1855.34 1412.42 1858.91 Q1414.25 1862.45 1417.86 1862.45 Q1421.49 1862.45 1423.3 1858.91 Q1425.13 1855.34 1425.13 1848.24 Q1425.13 1841.11 1423.3 1837.57 Q1421.49 1834 1417.86 1834 M1417.86 1830.3 Q1423.67 1830.3 1426.72 1834.9 Q1429.8 1839.49 1429.8 1848.24 Q1429.8 1856.96 1426.72 1861.57 Q1423.67 1866.15 1417.86 1866.15 Q1412.05 1866.15 1408.97 1861.57 Q1405.91 1856.96 1405.91 1848.24 Q1405.91 1839.49 1408.97 1834.9 Q1412.05 1830.3 1417.86 1830.3 Z" fill="#000000" fill-rule="evenodd" fill-opacity="1" /><path clip-path="url(#clip690)" d="M1884.03 1861.55 L1900.35 1861.55 L1900.35 1865.48 L1878.41 1865.48 L1878.41 1861.55 Q1881.07 1858.79 1885.65 1854.16 Q1890.26 1849.51 1891.44 1848.17 Q1893.69 1845.65 1894.57 1843.91 Q1895.47 1842.15 1895.47 1840.46 Q1895.47 1837.71 1893.52 1835.97 Q1891.6 1834.23 1888.5 1834.23 Q1886.3 1834.23 1883.85 1835 Q1881.42 1835.76 1878.64 1837.31 L1878.64 1832.59 Q1881.46 1831.46 1883.92 1830.88 Q1886.37 1830.3 1888.41 1830.3 Q1893.78 1830.3 1896.97 1832.98 Q1900.17 1835.67 1900.17 1840.16 Q1900.17 1842.29 1899.36 1844.21 Q1898.57 1846.11 1896.46 1848.7 Q1895.88 1849.37 1892.78 1852.59 Q1889.68 1855.78 1884.03 1861.55 Z" fill="#000000" fill-rule="evenodd" fill-opacity="1" /><path clip-path="url(#clip690)" d="M1910.17 1859.6 L1915.05 1859.6 L1915.05 1865.48 L1910.17 1865.48 L1910.17 1859.6 Z" fill="#000000" fill-rule="evenodd" fill-opacity="1" /><path clip-path="url(#clip690)" d="M1925.28 1830.92 L1943.64 1830.92 L1943.64 1834.86 L1929.57 1834.86 L1929.57 1843.33 Q1930.58 1842.98 1931.6 1842.82 Q1932.62 1842.64 1933.64 1842.64 Q1939.43 1842.64 1942.81 1845.81 Q1946.19 1848.98 1946.19 1854.4 Q1946.19 1859.97 1942.71 1863.08 Q1939.24 1866.15 1932.92 1866.15 Q1930.75 1866.15 1928.48 1865.78 Q1926.23 1865.41 1923.82 1864.67 L1923.82 1859.97 Q1925.91 1861.11 1928.13 1861.66 Q1930.35 1862.22 1932.83 1862.22 Q1936.83 1862.22 1939.17 1860.11 Q1941.51 1858.01 1941.51 1854.4 Q1941.51 1850.78 1939.17 1848.68 Q1936.83 1846.57 1932.83 1846.57 Q1930.95 1846.57 1929.08 1846.99 Q1927.23 1847.4 1925.28 1848.28 L1925.28 1830.92 Z" fill="#000000" fill-rule="evenodd" fill-opacity="1" /><path clip-path="url(#clip690)" d="M2396.52 1830.92 L2414.87 1830.92 L2414.87 1834.86 L2400.8 1834.86 L2400.8 1843.33 Q2401.82 1842.98 2402.84 1842.82 Q2403.85 1842.64 2404.87 1842.64 Q2410.66 1842.64 2414.04 1845.81 Q2417.42 1848.98 2417.42 1854.4 Q2417.42 1859.97 2413.95 1863.08 Q2410.48 1866.15 2404.16 1866.15 Q2401.98 1866.15 2399.71 1865.78 Q2397.47 1865.41 2395.06 1864.67 L2395.06 1859.97 Q2397.14 1861.11 2399.36 1861.66 Q2401.59 1862.22 2404.06 1862.22 Q2408.07 1862.22 2410.41 1860.11 Q2412.74 1858.01 2412.74 1854.4 Q2412.74 1850.78 2410.41 1848.68 Q2408.07 1846.57 2404.06 1846.57 Q2402.19 1846.57 2400.31 1846.99 Q2398.46 1847.4 2396.52 1848.28 L2396.52 1830.92 Z" fill="#000000" fill-rule="evenodd" fill-opacity="1" /><path clip-path="url(#clip690)" d="M2426.63 1859.6 L2431.52 1859.6 L2431.52 1865.48 L2426.63 1865.48 L2426.63 1859.6 Z" fill="#000000" fill-rule="evenodd" fill-opacity="1" /><path clip-path="url(#clip690)" d="M2451.7 1834 Q2448.09 1834 2446.26 1837.57 Q2444.46 1841.11 2444.46 1848.24 Q2444.46 1855.34 2446.26 1858.91 Q2448.09 1862.45 2451.7 1862.45 Q2455.34 1862.45 2457.14 1858.91 Q2458.97 1855.34 2458.97 1848.24 Q2458.97 1841.11 2457.14 1837.57 Q2455.34 1834 2451.7 1834 M2451.7 1830.3 Q2457.51 1830.3 2460.57 1834.9 Q2463.65 1839.49 2463.65 1848.24 Q2463.65 1856.96 2460.57 1861.57 Q2457.51 1866.15 2451.7 1866.15 Q2445.89 1866.15 2442.81 1861.57 Q2439.76 1856.96 2439.76 1848.24 Q2439.76 1839.49 2442.81 1834.9 Q2445.89 1830.3 2451.7 1830.3 Z" fill="#000000" fill-rule="evenodd" fill-opacity="1" /><polyline clip-path="url(#clip692)" style="stroke:#000000; stroke-linecap:butt; stroke-linejoin:round; stroke-width:2; stroke-opacity:0.1; fill:none" points="
  149.988,1751.44 2640.76,1751.44 
  "/>
<polyline clip-path="url(#clip692)" style="stroke:#000000; stroke-linecap:butt; stroke-linejoin:round; stroke-width:2; stroke-opacity:0.1; fill:none" points="
  149.988,1337.79 2640.76,1337.79 
  "/>
<polyline clip-path="url(#clip692)" style="stroke:#000000; stroke-linecap:butt; stroke-linejoin:round; stroke-width:2; stroke-opacity:0.1; fill:none" points="
  149.988,924.15 2640.76,924.15 
  "/>
<polyline clip-path="url(#clip692)" style="stroke:#000000; stroke-linecap:butt; stroke-linejoin:round; stroke-width:2; stroke-opacity:0.1; fill:none" points="
  149.988,510.505 2640.76,510.505 
  "/>
<polyline clip-path="url(#clip692)" style="stroke:#000000; stroke-linecap:butt; stroke-linejoin:round; stroke-width:2; stroke-opacity:0.1; fill:none" points="
  149.988,96.8606 2640.76,96.8606 
  "/>
<polyline clip-path="url(#clip690)" style="stroke:#000000; stroke-linecap:butt; stroke-linejoin:round; stroke-width:4; stroke-opacity:1; fill:none" points="
  149.988,1800.78 149.988,47.2441 
  "/>
<polyline clip-path="url(#clip690)" style="stroke:#000000; stroke-linecap:butt; stroke-linejoin:round; stroke-width:4; stroke-opacity:1; fill:none" points="
  149.988,1751.44 168.885,1751.44 
  "/>
<polyline clip-path="url(#clip690)" style="stroke:#000000; stroke-linecap:butt; stroke-linejoin:round; stroke-width:4; stroke-opacity:1; fill:none" points="
  149.988,1337.79 168.885,1337.79 
  "/>
<polyline clip-path="url(#clip690)" style="stroke:#000000; stroke-linecap:butt; stroke-linejoin:round; stroke-width:4; stroke-opacity:1; fill:none" points="
  149.988,924.15 168.885,924.15 
  "/>
<polyline clip-path="url(#clip690)" style="stroke:#000000; stroke-linecap:butt; stroke-linejoin:round; stroke-width:4; stroke-opacity:1; fill:none" points="
  149.988,510.505 168.885,510.505 
  "/>
<polyline clip-path="url(#clip690)" style="stroke:#000000; stroke-linecap:butt; stroke-linejoin:round; stroke-width:4; stroke-opacity:1; fill:none" points="
  149.988,96.8606 168.885,96.8606 
  "/>
<path clip-path="url(#clip690)" d="M49.5521 1751.89 L79.2279 1751.89 L79.2279 1755.83 L49.5521 1755.83 L49.5521 1751.89 Z" fill="#000000" fill-rule="evenodd" fill-opacity="1" /><path clip-path="url(#clip690)" d="M93.3482 1764.78 L109.668 1764.78 L109.668 1768.72 L87.7232 1768.72 L87.7232 1764.78 Q90.3852 1762.03 94.9685 1757.4 Q99.575 1752.75 100.756 1751.4 Q103.001 1748.88 103.881 1747.14 Q104.783 1745.39 104.783 1743.7 Q104.783 1740.94 102.839 1739.21 Q100.918 1737.47 97.8158 1737.47 Q95.6167 1737.47 93.163 1738.23 Q90.7325 1739 87.9547 1740.55 L87.9547 1735.83 Q90.7788 1734.69 93.2324 1734.11 Q95.6861 1733.53 97.7232 1733.53 Q103.094 1733.53 106.288 1736.22 Q109.482 1738.9 109.482 1743.39 Q109.482 1745.52 108.672 1747.45 Q107.885 1749.34 105.779 1751.94 Q105.2 1752.61 102.098 1755.83 Q98.9963 1759.02 93.3482 1764.78 Z" fill="#000000" fill-rule="evenodd" fill-opacity="1" /><path clip-path="url(#clip690)" d="M97.7232 1323.59 Q94.1121 1323.59 92.2834 1327.16 Q90.4778 1330.7 90.4778 1337.83 Q90.4778 1344.94 92.2834 1348.5 Q94.1121 1352.04 97.7232 1352.04 Q101.357 1352.04 103.163 1348.5 Q104.992 1344.94 104.992 1337.83 Q104.992 1330.7 103.163 1327.16 Q101.357 1323.59 97.7232 1323.59 M97.7232 1319.89 Q103.533 1319.89 106.589 1324.5 Q109.668 1329.08 109.668 1337.83 Q109.668 1346.56 106.589 1351.16 Q103.533 1355.75 97.7232 1355.75 Q91.913 1355.75 88.8343 1351.16 Q85.7788 1346.56 85.7788 1337.83 Q85.7788 1329.08 88.8343 1324.5 Q91.913 1319.89 97.7232 1319.89 Z" fill="#000000" fill-rule="evenodd" fill-opacity="1" /><path clip-path="url(#clip690)" d="M93.3482 937.495 L109.668 937.495 L109.668 941.43 L87.7232 941.43 L87.7232 937.495 Q90.3852 934.74 94.9685 930.11 Q99.575 925.458 100.756 924.115 Q103.001 921.592 103.881 919.856 Q104.783 918.097 104.783 916.407 Q104.783 913.652 102.839 911.916 Q100.918 910.18 97.8158 910.18 Q95.6167 910.18 93.163 910.944 Q90.7325 911.708 87.9547 913.259 L87.9547 908.536 Q90.7788 907.402 93.2324 906.823 Q95.6861 906.245 97.7232 906.245 Q103.094 906.245 106.288 908.93 Q109.482 911.615 109.482 916.106 Q109.482 918.235 108.672 920.157 Q107.885 922.055 105.779 924.647 Q105.2 925.319 102.098 928.536 Q98.9963 931.731 93.3482 937.495 Z" fill="#000000" fill-rule="evenodd" fill-opacity="1" /><path clip-path="url(#clip690)" d="M100.084 497.299 L88.2788 515.748 L100.084 515.748 L100.084 497.299 M98.8574 493.225 L104.737 493.225 L104.737 515.748 L109.668 515.748 L109.668 519.637 L104.737 519.637 L104.737 527.785 L100.084 527.785 L100.084 519.637 L84.4825 519.637 L84.4825 515.123 L98.8574 493.225 Z" fill="#000000" fill-rule="evenodd" fill-opacity="1" /><path clip-path="url(#clip690)" d="M98.1398 94.9972 Q94.9917 94.9972 93.1399 97.15 Q91.3112 99.3027 91.3112 103.053 Q91.3112 106.78 93.1399 108.955 Q94.9917 111.108 98.1398 111.108 Q101.288 111.108 103.117 108.955 Q104.968 106.78 104.968 103.053 Q104.968 99.3027 103.117 97.15 Q101.288 94.9972 98.1398 94.9972 M107.422 80.3445 L107.422 84.6037 Q105.663 83.7704 103.857 83.3306 Q102.075 82.8908 100.316 82.8908 Q95.6861 82.8908 93.2324 86.0158 Q90.8019 89.1408 90.4547 95.4602 Q91.8204 93.4463 93.8806 92.3815 Q95.9408 91.2935 98.4176 91.2935 Q103.626 91.2935 106.635 94.4648 Q109.668 97.6129 109.668 103.053 Q109.668 108.377 106.519 111.594 Q103.371 114.812 98.1398 114.812 Q92.1445 114.812 88.9732 110.229 Q85.8019 105.622 85.8019 96.8953 Q85.8019 88.7009 89.6908 83.8399 Q93.5797 78.9556 100.131 78.9556 Q101.89 78.9556 103.672 79.3028 Q105.478 79.6501 107.422 80.3445 Z" fill="#000000" fill-rule="evenodd" fill-opacity="1" /><path clip-path="url(#clip692)" d="
M913.997 724.812 L936.06 674.289 L959.971 624.773 L985.635 576.462 L1012.95 529.551 L1041.8 484.229 L1072.08 440.678 L1103.65 399.074 L1136.4 359.584 L1170.2 322.368 
  L1204.9 287.575 L1240.36 255.345 L1276.45 225.808 L1313.02 199.083 L1349.92 175.278 L1387 154.488 L1424.12 136.797 L1461.12 122.277 L1497.85 110.985 L1534.17 102.968 
  L1569.93 98.2574 L1604.99 96.8724 L1639.2 98.8186 L1672.43 104.088 L1704.54 112.66 L1735.41 124.499 L1764.91 139.558 L1792.92 157.776 L1819.33 179.081 L1844.03 203.385 
  L1866.93 230.592 L1887.92 260.591 L1906.93 293.262 L1923.88 328.474 L1938.71 366.084 L1951.34 405.942 L1961.73 447.886 L1969.85 491.748 L1975.65 537.35 L1979.11 584.511 
  L1980.22 633.039 L1978.98 682.739 L1975.38 733.411 L1969.45 784.852 L1961.21 836.853 L1950.69 889.206 L1937.93 941.699 L1922.99 994.122 L1905.92 1046.26 L1886.79 1097.91 
  L1865.69 1148.86 L1842.69 1198.91 L1817.89 1247.85 L1791.39 1295.48 L1763.29 1341.62 L1733.71 1386.08 L1702.77 1428.68 L1670.59 1469.24 L1637.3 1507.62 L1603.04 1543.64 
  L1567.94 1577.17 L1532.14 1608.07 L1495.79 1636.21 L1459.04 1661.49 L1422.03 1683.8 L1384.92 1703.05 L1347.84 1719.16 L1310.96 1732.08 L1274.41 1741.73 L1238.35 1748.1 
  L1202.93 1751.15 L1168.27 1750.87 L1134.54 1747.26 L1101.85 1740.34 L1070.34 1730.13 L1040.14 1716.67 L1011.37 1700.02 L984.148 1680.25 L958.58 1657.44 L934.77 1631.67 
  L912.815 1603.05 L892.801 1571.7 L874.811 1537.74 L858.917 1501.31 L845.182 1462.56 L833.662 1421.64 L824.404 1378.71 L817.443 1333.96 L812.81 1287.55 L810.522 1239.68 
  L810.588 1190.54 L813.008 1140.33 L817.773 1089.25 L824.863 1037.5 L834.25 985.301 L845.896 932.852 L859.753 880.367 L875.767 828.059 L893.873 776.137 L913.997 724.812 
  L913.997 724.812  Z
  " fill="#009af9" fill-rule="evenodd" fill-opacity="0.3"/>
<polyline clip-path="url(#clip692)" style="stroke:#000000; stroke-linecap:butt; stroke-linejoin:round; stroke-width:4; stroke-opacity:0.3; fill:none" points="
  913.997,724.812 936.06,674.289 959.971,624.773 985.635,576.462 1012.95,529.551 1041.8,484.229 1072.08,440.678 1103.65,399.074 1136.4,359.584 1170.2,322.368 
  1204.9,287.575 1240.36,255.345 1276.45,225.808 1313.02,199.083 1349.92,175.278 1387,154.488 1424.12,136.797 1461.12,122.277 1497.85,110.985 1534.17,102.968 
  1569.93,98.2574 1604.99,96.8724 1639.2,98.8186 1672.43,104.088 1704.54,112.66 1735.41,124.499 1764.91,139.558 1792.92,157.776 1819.33,179.081 1844.03,203.385 
  1866.93,230.592 1887.92,260.591 1906.93,293.262 1923.88,328.474 1938.71,366.084 1951.34,405.942 1961.73,447.886 1969.85,491.748 1975.65,537.35 1979.11,584.511 
  1980.22,633.039 1978.98,682.739 1975.38,733.411 1969.45,784.852 1961.21,836.853 1950.69,889.206 1937.93,941.699 1922.99,994.122 1905.92,1046.26 1886.79,1097.91 
  1865.69,1148.86 1842.69,1198.91 1817.89,1247.85 1791.39,1295.48 1763.29,1341.62 1733.71,1386.08 1702.77,1428.68 1670.59,1469.24 1637.3,1507.62 1603.04,1543.64 
  1567.94,1577.17 1532.14,1608.07 1495.79,1636.21 1459.04,1661.49 1422.03,1683.8 1384.92,1703.05 1347.84,1719.16 1310.96,1732.08 1274.41,1741.73 1238.35,1748.1 
  1202.93,1751.15 1168.27,1750.87 1134.54,1747.26 1101.85,1740.34 1070.34,1730.13 1040.14,1716.67 1011.37,1700.02 984.148,1680.25 958.58,1657.44 934.77,1631.67 
  912.815,1603.05 892.801,1571.7 874.811,1537.74 858.917,1501.31 845.182,1462.56 833.662,1421.64 824.404,1378.71 817.443,1333.96 812.81,1287.55 810.522,1239.68 
  810.588,1190.54 813.008,1140.33 817.773,1089.25 824.863,1037.5 834.25,985.301 845.896,932.852 859.753,880.367 875.767,828.059 893.873,776.137 913.997,724.812 
  913.997,724.812 
  "/>
<path clip-path="url(#clip692)" d="
M1413.03 1382.42 L1408.08 1359.79 L1403.92 1337.07 L1400.56 1314.35 L1398.01 1291.72 L1396.28 1269.28 L1395.38 1247.12 L1395.31 1225.32 L1396.08 1203.98 L1397.67 1183.17 
  L1400.09 1162.99 L1403.32 1143.51 L1407.35 1124.81 L1412.16 1106.97 L1417.74 1090.06 L1424.06 1074.15 L1431.1 1059.3 L1438.83 1045.57 L1447.21 1033.02 L1456.22 1021.69 
  L1465.81 1011.64 L1475.95 1002.9 L1486.6 995.507 L1497.72 989.494 L1509.26 984.884 L1521.17 981.695 L1533.4 979.939 L1545.91 979.625 L1558.65 980.753 L1571.56 983.318 
  L1584.6 987.311 L1597.7 992.715 L1610.83 999.509 L1623.92 1007.66 L1636.92 1017.15 L1649.78 1027.93 L1662.44 1039.95 L1674.87 1053.17 L1687 1067.54 L1698.79 1083 
  L1710.19 1099.48 L1721.15 1116.93 L1731.64 1135.26 L1741.6 1154.41 L1751 1174.29 L1759.8 1194.84 L1767.97 1215.96 L1775.47 1237.57 L1782.27 1259.58 L1788.34 1281.91 
  L1793.67 1304.47 L1798.22 1327.16 L1801.98 1349.89 L1804.94 1372.57 L1807.08 1395.11 L1808.4 1417.43 L1808.88 1439.42 L1808.53 1461 L1807.36 1482.09 L1805.35 1502.59 
  L1802.52 1522.43 L1798.89 1541.53 L1794.47 1559.81 L1789.27 1577.19 L1783.32 1593.61 L1776.63 1609 L1769.25 1623.3 L1761.19 1636.45 L1752.49 1648.39 L1743.18 1659.09 
  L1733.31 1668.49 L1722.91 1676.56 L1712.02 1683.26 L1700.69 1688.58 L1688.96 1692.48 L1676.88 1694.95 L1664.5 1695.99 L1651.87 1695.58 L1639.04 1693.73 L1626.06 1690.45 
  L1612.98 1685.75 L1599.86 1679.65 L1586.75 1672.17 L1573.7 1663.35 L1560.76 1653.21 L1547.99 1641.8 L1535.44 1629.17 L1523.15 1615.37 L1511.19 1600.45 L1499.59 1584.47 
  L1488.4 1567.5 L1477.67 1549.6 L1467.44 1530.85 L1457.75 1511.33 L1448.65 1491.1 L1440.16 1470.26 L1432.32 1448.88 L1425.17 1427.06 L1418.73 1404.87 L1413.03 1382.42 
  L1413.03 1382.42  Z
  " fill="#e26f46" fill-rule="evenodd" fill-opacity="0.3"/>
<polyline clip-path="url(#clip692)" style="stroke:#000000; stroke-linecap:butt; stroke-linejoin:round; stroke-width:4; stroke-opacity:0.3; fill:none" points="
  1413.03,1382.42 1408.08,1359.79 1403.92,1337.07 1400.56,1314.35 1398.01,1291.72 1396.28,1269.28 1395.38,1247.12 1395.31,1225.32 1396.08,1203.98 1397.67,1183.17 
  1400.09,1162.99 1403.32,1143.51 1407.35,1124.81 1412.16,1106.97 1417.74,1090.06 1424.06,1074.15 1431.1,1059.3 1438.83,1045.57 1447.21,1033.02 1456.22,1021.69 
  1465.81,1011.64 1475.95,1002.9 1486.6,995.507 1497.72,989.494 1509.26,984.884 1521.17,981.695 1533.4,979.939 1545.91,979.625 1558.65,980.753 1571.56,983.318 
  1584.6,987.311 1597.7,992.715 1610.83,999.509 1623.92,1007.66 1636.92,1017.15 1649.78,1027.93 1662.44,1039.95 1674.87,1053.17 1687,1067.54 1698.79,1083 
  1710.19,1099.48 1721.15,1116.93 1731.64,1135.26 1741.6,1154.41 1751,1174.29 1759.8,1194.84 1767.97,1215.96 1775.47,1237.57 1782.27,1259.58 1788.34,1281.91 
  1793.67,1304.47 1798.22,1327.16 1801.98,1349.89 1804.94,1372.57 1807.08,1395.11 1808.4,1417.43 1808.88,1439.42 1808.53,1461 1807.36,1482.09 1805.35,1502.59 
  1802.52,1522.43 1798.89,1541.53 1794.47,1559.81 1789.27,1577.19 1783.32,1593.61 1776.63,1609 1769.25,1623.3 1761.19,1636.45 1752.49,1648.39 1743.18,1659.09 
  1733.31,1668.49 1722.91,1676.56 1712.02,1683.26 1700.69,1688.58 1688.96,1692.48 1676.88,1694.95 1664.5,1695.99 1651.87,1695.58 1639.04,1693.73 1626.06,1690.45 
  1612.98,1685.75 1599.86,1679.65 1586.75,1672.17 1573.7,1663.35 1560.76,1653.21 1547.99,1641.8 1535.44,1629.17 1523.15,1615.37 1511.19,1600.45 1499.59,1584.47 
  1488.4,1567.5 1477.67,1549.6 1467.44,1530.85 1457.75,1511.33 1448.65,1491.1 1440.16,1470.26 1432.32,1448.88 1425.17,1427.06 1418.73,1404.87 1413.03,1382.42 
  1413.03,1382.42 
  "/>
<polyline clip-path="url(#clip692)" style="stroke:#808080; stroke-linecap:butt; stroke-linejoin:round; stroke-width:4; stroke-opacity:1; fill:none" points="
  1413.03,1382.42 1602.06,1337.79 1518.16,982.358 
  "/>
<path clip-path="url(#clip690)" d="
M2174.68 261.215 L2557.73 261.215 L2557.73 105.695 L2174.68 105.695  Z
  " fill="#ffffff" fill-rule="evenodd" fill-opacity="1"/>
<polyline clip-path="url(#clip690)" style="stroke:#000000; stroke-linecap:butt; stroke-linejoin:round; stroke-width:4; stroke-opacity:1; fill:none" points="
  2174.68,261.215 2557.73,261.215 2557.73,105.695 2174.68,105.695 2174.68,261.215 
  "/>
<path clip-path="url(#clip690)" d="
M2202.36 178.271 L2368.41 178.271 L2368.41 136.799 L2202.36 136.799 L2202.36 178.271  Z
  " fill="#009af9" fill-rule="evenodd" fill-opacity="0.3"/>
<polyline clip-path="url(#clip690)" style="stroke:#000000; stroke-linecap:butt; stroke-linejoin:round; stroke-width:4; stroke-opacity:1; fill:none" points="
  2202.36,178.271 2368.41,178.271 2368.41,136.799 2202.36,136.799 2202.36,178.271 
  "/>
<path clip-path="url(#clip690)" d="M2416.59 149.885 L2416.59 153.866 Q2414.79 152.871 2412.96 152.385 Q2411.15 151.876 2409.3 151.876 Q2405.16 151.876 2402.87 154.514 Q2400.57 157.13 2400.57 161.876 Q2400.57 166.621 2402.87 169.26 Q2405.16 171.875 2409.3 171.875 Q2411.15 171.875 2412.96 171.389 Q2414.79 170.88 2416.59 169.885 L2416.59 173.82 Q2414.81 174.653 2412.89 175.07 Q2410.99 175.487 2408.84 175.487 Q2402.98 175.487 2399.53 171.806 Q2396.08 168.125 2396.08 161.876 Q2396.08 155.533 2399.56 151.899 Q2403.05 148.264 2409.12 148.264 Q2411.08 148.264 2412.96 148.681 Q2414.83 149.075 2416.59 149.885 Z" fill="#000000" fill-rule="evenodd" fill-opacity="1" /><path clip-path="url(#clip690)" d="M2434.05 151.876 Q2430.62 151.876 2428.63 154.561 Q2426.64 157.223 2426.64 161.876 Q2426.64 166.528 2428.61 169.213 Q2430.6 171.875 2434.05 171.875 Q2437.45 171.875 2439.44 169.19 Q2441.43 166.505 2441.43 161.876 Q2441.43 157.269 2439.44 154.584 Q2437.45 151.876 2434.05 151.876 M2434.05 148.264 Q2439.6 148.264 2442.77 151.876 Q2445.95 155.487 2445.95 161.876 Q2445.95 168.241 2442.77 171.875 Q2439.6 175.487 2434.05 175.487 Q2428.47 175.487 2425.3 171.875 Q2422.15 168.241 2422.15 161.876 Q2422.15 155.487 2425.3 151.876 Q2428.47 148.264 2434.05 148.264 Z" fill="#000000" fill-rule="evenodd" fill-opacity="1" /><path clip-path="url(#clip690)" d="M2449.95 148.889 L2454.46 148.889 L2462.57 170.649 L2470.67 148.889 L2475.18 148.889 L2465.46 174.815 L2459.67 174.815 L2449.95 148.889 Z" fill="#000000" fill-rule="evenodd" fill-opacity="1" /><path clip-path="url(#clip690)" d="M2482.47 170.88 L2490.11 170.88 L2490.11 144.515 L2481.8 146.181 L2481.8 141.922 L2490.07 140.255 L2494.74 140.255 L2494.74 170.88 L2502.38 170.88 L2502.38 174.815 L2482.47 174.815 L2482.47 170.88 Z" fill="#000000" fill-rule="evenodd" fill-opacity="1" /><path clip-path="url(#clip690)" d="
M2202.36 230.111 L2368.41 230.111 L2368.41 188.639 L2202.36 188.639 L2202.36 230.111  Z
  " fill="#e26f46" fill-rule="evenodd" fill-opacity="0.3"/>
<polyline clip-path="url(#clip690)" style="stroke:#000000; stroke-linecap:butt; stroke-linejoin:round; stroke-width:4; stroke-opacity:1; fill:none" points="
  2202.36,230.111 2368.41,230.111 2368.41,188.639 2202.36,188.639 2202.36,230.111 
  "/>
<path clip-path="url(#clip690)" d="M2416.59 201.725 L2416.59 205.706 Q2414.79 204.711 2412.96 204.225 Q2411.15 203.716 2409.3 203.716 Q2405.16 203.716 2402.87 206.354 Q2400.57 208.97 2400.57 213.716 Q2400.57 218.461 2402.87 221.1 Q2405.16 223.715 2409.3 223.715 Q2411.15 223.715 2412.96 223.229 Q2414.79 222.72 2416.59 221.725 L2416.59 225.66 Q2414.81 226.493 2412.89 226.91 Q2410.99 227.327 2408.84 227.327 Q2402.98 227.327 2399.53 223.646 Q2396.08 219.965 2396.08 213.716 Q2396.08 207.373 2399.56 203.739 Q2403.05 200.104 2409.12 200.104 Q2411.08 200.104 2412.96 200.521 Q2414.83 200.915 2416.59 201.725 Z" fill="#000000" fill-rule="evenodd" fill-opacity="1" /><path clip-path="url(#clip690)" d="M2434.05 203.716 Q2430.62 203.716 2428.63 206.401 Q2426.64 209.063 2426.64 213.716 Q2426.64 218.368 2428.61 221.053 Q2430.6 223.715 2434.05 223.715 Q2437.45 223.715 2439.44 221.03 Q2441.43 218.345 2441.43 213.716 Q2441.43 209.109 2439.44 206.424 Q2437.45 203.716 2434.05 203.716 M2434.05 200.104 Q2439.6 200.104 2442.77 203.716 Q2445.95 207.327 2445.95 213.716 Q2445.95 220.081 2442.77 223.715 Q2439.6 227.327 2434.05 227.327 Q2428.47 227.327 2425.3 223.715 Q2422.15 220.081 2422.15 213.716 Q2422.15 207.327 2425.3 203.716 Q2428.47 200.104 2434.05 200.104 Z" fill="#000000" fill-rule="evenodd" fill-opacity="1" /><path clip-path="url(#clip690)" d="M2449.95 200.729 L2454.46 200.729 L2462.57 222.489 L2470.67 200.729 L2475.18 200.729 L2465.46 226.655 L2459.67 226.655 L2449.95 200.729 Z" fill="#000000" fill-rule="evenodd" fill-opacity="1" /><path clip-path="url(#clip690)" d="M2485.69 222.72 L2502.01 222.72 L2502.01 226.655 L2480.07 226.655 L2480.07 222.72 Q2482.73 219.965 2487.31 215.336 Q2491.92 210.683 2493.1 209.341 Q2495.34 206.817 2496.22 205.081 Q2497.13 203.322 2497.13 201.632 Q2497.13 198.878 2495.18 197.142 Q2493.26 195.405 2490.16 195.405 Q2487.96 195.405 2485.5 196.169 Q2483.07 196.933 2480.3 198.484 L2480.3 193.762 Q2483.12 192.628 2485.57 192.049 Q2488.03 191.47 2490.07 191.47 Q2495.44 191.47 2498.63 194.155 Q2501.82 196.841 2501.82 201.331 Q2501.82 203.461 2501.01 205.382 Q2500.23 207.28 2498.12 209.873 Q2497.54 210.544 2494.44 213.762 Q2491.34 216.956 2485.69 222.72 Z" fill="#000000" fill-rule="evenodd" fill-opacity="1" /></svg>
