<?xml version="1.0" encoding="utf-8"?>
<svg xmlns="http://www.w3.org/2000/svg" xmlns:xlink="http://www.w3.org/1999/xlink" width="528" height="432" viewBox="0 0 2112 1728">
<defs>
  <clipPath id="clip400">
    <rect x="0" y="0" width="2112" height="1728"/>
  </clipPath>
</defs>
<path clip-path="url(#clip400)" d="
M0 1728 L2112 1728 L2112 0 L0 0  Z
  " fill="#ffffff" fill-rule="evenodd" fill-opacity="1"/>
<defs>
  <clipPath id="clip401">
    <rect x="422" y="0" width="1479" height="1479"/>
  </clipPath>
</defs>
<path clip-path="url(#clip400)" d="
M144.228 1605.31 L2064.76 1605.31 L2064.76 47.2441 L144.228 47.2441  Z
  " fill="#ffffff" fill-rule="evenodd" fill-opacity="1"/>
<defs>
  <clipPath id="clip402">
    <rect x="144" y="47" width="1922" height="1559"/>
  </clipPath>
</defs>
<polyline clip-path="url(#clip402)" style="stroke:#000000; stroke-linecap:butt; stroke-linejoin:round; stroke-width:2; stroke-opacity:0.1; fill:none" points="
  369.304,1605.31 369.304,47.2441 
  "/>
<polyline clip-path="url(#clip402)" style="stroke:#000000; stroke-linecap:butt; stroke-linejoin:round; stroke-width:2; stroke-opacity:0.1; fill:none" points="
  736.84,1605.31 736.84,47.2441 
  "/>
<polyline clip-path="url(#clip402)" style="stroke:#000000; stroke-linecap:butt; stroke-linejoin:round; stroke-width:2; stroke-opacity:0.1; fill:none" points="
  1104.38,1605.31 1104.38,47.2441 
  "/>
<polyline clip-path="url(#clip402)" style="stroke:#000000; stroke-linecap:butt; stroke-linejoin:round; stroke-width:2; stroke-opacity:0.1; fill:none" points="
  1471.91,1605.31 1471.91,47.2441 
  "/>
<polyline clip-path="url(#clip402)" style="stroke:#000000; stroke-linecap:butt; stroke-linejoin:round; stroke-width:2; stroke-opacity:0.1; fill:none" points="
  1839.45,1605.31 1839.45,47.2441 
  "/>
<polyline clip-path="url(#clip400)" style="stroke:#000000; stroke-linecap:butt; stroke-linejoin:round; stroke-width:4; stroke-opacity:1; fill:none" points="
  144.228,1605.31 2064.76,1605.31 
  "/>
<polyline clip-path="url(#clip400)" style="stroke:#000000; stroke-linecap:butt; stroke-linejoin:round; stroke-width:4; stroke-opacity:1; fill:none" points="
  369.304,1605.31 369.304,1586.42 
  "/>
<polyline clip-path="url(#clip400)" style="stroke:#000000; stroke-linecap:butt; stroke-linejoin:round; stroke-width:4; stroke-opacity:1; fill:none" points="
  736.84,1605.31 736.84,1586.42 
  "/>
<polyline clip-path="url(#clip400)" style="stroke:#000000; stroke-linecap:butt; stroke-linejoin:round; stroke-width:4; stroke-opacity:1; fill:none" points="
  1104.38,1605.31 1104.38,1586.42 
  "/>
<polyline clip-path="url(#clip400)" style="stroke:#000000; stroke-linecap:butt; stroke-linejoin:round; stroke-width:4; stroke-opacity:1; fill:none" points="
  1471.91,1605.31 1471.91,1586.42 
  "/>
<polyline clip-path="url(#clip400)" style="stroke:#000000; stroke-linecap:butt; stroke-linejoin:round; stroke-width:4; stroke-opacity:1; fill:none" points="
  1839.45,1605.31 1839.45,1586.42 
  "/>
<path clip-path="url(#clip400)" d="M338.205 1648.58 L367.88 1648.58 L367.88 1652.52 L338.205 1652.52 L338.205 1648.58 Z" fill="#000000" fill-rule="evenodd" fill-opacity="1" /><path clip-path="url(#clip400)" d="M390.82 1634.92 L379.015 1653.37 L390.82 1653.37 L390.82 1634.92 M389.593 1630.85 L395.473 1630.85 L395.473 1653.37 L400.403 1653.37 L400.403 1657.26 L395.473 1657.26 L395.473 1665.41 L390.82 1665.41 L390.82 1657.26 L375.218 1657.26 L375.218 1652.75 L389.593 1630.85 Z" fill="#000000" fill-rule="evenodd" fill-opacity="1" /><path clip-path="url(#clip400)" d="M706.782 1648.58 L736.458 1648.58 L736.458 1652.52 L706.782 1652.52 L706.782 1648.58 Z" fill="#000000" fill-rule="evenodd" fill-opacity="1" /><path clip-path="url(#clip400)" d="M750.578 1661.47 L766.898 1661.47 L766.898 1665.41 L744.953 1665.41 L744.953 1661.47 Q747.615 1658.72 752.199 1654.09 Q756.805 1649.44 757.986 1648.09 Q760.231 1645.57 761.111 1643.84 Q762.013 1642.08 762.013 1640.39 Q762.013 1637.63 760.069 1635.9 Q758.148 1634.16 755.046 1634.16 Q752.847 1634.16 750.393 1634.92 Q747.962 1635.69 745.185 1637.24 L745.185 1632.52 Q748.009 1631.38 750.462 1630.8 Q752.916 1630.22 754.953 1630.22 Q760.324 1630.22 763.518 1632.91 Q766.712 1635.59 766.712 1640.09 Q766.712 1642.22 765.902 1644.14 Q765.115 1646.03 763.009 1648.63 Q762.43 1649.3 759.328 1652.52 Q756.226 1655.71 750.578 1661.47 Z" fill="#000000" fill-rule="evenodd" fill-opacity="1" /><path clip-path="url(#clip400)" d="M1104.38 1633.93 Q1100.76 1633.93 1098.94 1637.49 Q1097.13 1641.03 1097.13 1648.16 Q1097.13 1655.27 1098.94 1658.84 Q1100.76 1662.38 1104.38 1662.38 Q1108.01 1662.38 1109.82 1658.84 Q1111.64 1655.27 1111.64 1648.16 Q1111.64 1641.03 1109.82 1637.49 Q1108.01 1633.93 1104.38 1633.93 M1104.38 1630.22 Q1110.19 1630.22 1113.24 1634.83 Q1116.32 1639.41 1116.32 1648.16 Q1116.32 1656.89 1113.24 1661.5 Q1110.19 1666.08 1104.38 1666.08 Q1098.57 1666.08 1095.49 1661.5 Q1092.43 1656.89 1092.43 1648.16 Q1092.43 1639.41 1095.49 1634.83 Q1098.57 1630.22 1104.38 1630.22 Z" fill="#000000" fill-rule="evenodd" fill-opacity="1" /><path clip-path="url(#clip400)" d="M1466.56 1661.47 L1482.88 1661.47 L1482.88 1665.41 L1460.94 1665.41 L1460.94 1661.47 Q1463.6 1658.72 1468.18 1654.09 Q1472.79 1649.44 1473.97 1648.09 Q1476.22 1645.57 1477.1 1643.84 Q1478 1642.08 1478 1640.39 Q1478 1637.63 1476.05 1635.9 Q1474.13 1634.16 1471.03 1634.16 Q1468.83 1634.16 1466.38 1634.92 Q1463.95 1635.69 1461.17 1637.24 L1461.17 1632.52 Q1463.99 1631.38 1466.45 1630.8 Q1468.9 1630.22 1470.94 1630.22 Q1476.31 1630.22 1479.5 1632.91 Q1482.7 1635.59 1482.7 1640.09 Q1482.7 1642.22 1481.89 1644.14 Q1481.1 1646.03 1478.99 1648.63 Q1478.42 1649.3 1475.31 1652.52 Q1472.21 1655.71 1466.56 1661.47 Z" fill="#000000" fill-rule="evenodd" fill-opacity="1" /><path clip-path="url(#clip400)" d="M1842.46 1634.92 L1830.65 1653.37 L1842.46 1653.37 L1842.46 1634.92 M1841.23 1630.85 L1847.11 1630.85 L1847.11 1653.37 L1852.04 1653.37 L1852.04 1657.26 L1847.11 1657.26 L1847.11 1665.41 L1842.46 1665.41 L1842.46 1657.26 L1826.85 1657.26 L1826.85 1652.75 L1841.23 1630.85 Z" fill="#000000" fill-rule="evenodd" fill-opacity="1" /><polyline clip-path="url(#clip402)" style="stroke:#000000; stroke-linecap:butt; stroke-linejoin:round; stroke-width:2; stroke-opacity:0.1; fill:none" points="
  144.228,1561.47 2064.76,1561.47 
  "/>
<polyline clip-path="url(#clip402)" style="stroke:#000000; stroke-linecap:butt; stroke-linejoin:round; stroke-width:2; stroke-opacity:0.1; fill:none" points="
  144.228,1193.94 2064.76,1193.94 
  "/>
<polyline clip-path="url(#clip402)" style="stroke:#000000; stroke-linecap:butt; stroke-linejoin:round; stroke-width:2; stroke-opacity:0.1; fill:none" points="
  144.228,826.401 2064.76,826.401 
  "/>
<polyline clip-path="url(#clip402)" style="stroke:#000000; stroke-linecap:butt; stroke-linejoin:round; stroke-width:2; stroke-opacity:0.1; fill:none" points="
  144.228,458.866 2064.76,458.866 
  "/>
<polyline clip-path="url(#clip402)" style="stroke:#000000; stroke-linecap:butt; stroke-linejoin:round; stroke-width:2; stroke-opacity:0.1; fill:none" points="
  144.228,91.3299 2064.76,91.3299 
  "/>
<polyline clip-path="url(#clip400)" style="stroke:#000000; stroke-linecap:butt; stroke-linejoin:round; stroke-width:4; stroke-opacity:1; fill:none" points="
  144.228,1605.31 144.228,47.2441 
  "/>
<polyline clip-path="url(#clip400)" style="stroke:#000000; stroke-linecap:butt; stroke-linejoin:round; stroke-width:4; stroke-opacity:1; fill:none" points="
  144.228,1561.47 163.125,1561.47 
  "/>
<polyline clip-path="url(#clip400)" style="stroke:#000000; stroke-linecap:butt; stroke-linejoin:round; stroke-width:4; stroke-opacity:1; fill:none" points="
  144.228,1193.94 163.125,1193.94 
  "/>
<polyline clip-path="url(#clip400)" style="stroke:#000000; stroke-linecap:butt; stroke-linejoin:round; stroke-width:4; stroke-opacity:1; fill:none" points="
  144.228,826.401 163.125,826.401 
  "/>
<polyline clip-path="url(#clip400)" style="stroke:#000000; stroke-linecap:butt; stroke-linejoin:round; stroke-width:4; stroke-opacity:1; fill:none" points="
  144.228,458.866 163.125,458.866 
  "/>
<polyline clip-path="url(#clip400)" style="stroke:#000000; stroke-linecap:butt; stroke-linejoin:round; stroke-width:4; stroke-opacity:1; fill:none" points="
  144.228,91.3299 163.125,91.3299 
  "/>
<path clip-path="url(#clip400)" d="M52.4321 1561.92 L82.1079 1561.92 L82.1079 1565.86 L52.4321 1565.86 L52.4321 1561.92 Z" fill="#000000" fill-rule="evenodd" fill-opacity="1" /><path clip-path="url(#clip400)" d="M96.2282 1574.82 L112.548 1574.82 L112.548 1578.75 L90.6032 1578.75 L90.6032 1574.82 Q93.2652 1572.06 97.8485 1567.43 Q102.455 1562.78 103.636 1561.44 Q105.881 1558.92 106.761 1557.18 Q107.663 1555.42 107.663 1553.73 Q107.663 1550.98 105.719 1549.24 Q103.798 1547.5 100.696 1547.5 Q98.4967 1547.5 96.043 1548.27 Q93.6125 1549.03 90.8347 1550.58 L90.8347 1545.86 Q93.6588 1544.73 96.1124 1544.15 Q98.5661 1543.57 100.603 1543.57 Q105.974 1543.57 109.168 1546.25 Q112.362 1548.94 112.362 1553.43 Q112.362 1555.56 111.552 1557.48 Q110.765 1559.38 108.659 1561.97 Q108.08 1562.64 104.978 1565.86 Q101.876 1569.05 96.2282 1574.82 Z" fill="#000000" fill-rule="evenodd" fill-opacity="1" /><path clip-path="url(#clip400)" d="M100.603 1179.74 Q96.9921 1179.74 95.1634 1183.3 Q93.3578 1186.84 93.3578 1193.97 Q93.3578 1201.08 95.1634 1204.64 Q96.9921 1208.18 100.603 1208.18 Q104.237 1208.18 106.043 1204.64 Q107.872 1201.08 107.872 1193.97 Q107.872 1186.84 106.043 1183.3 Q104.237 1179.74 100.603 1179.74 M100.603 1176.03 Q106.413 1176.03 109.469 1180.64 Q112.548 1185.22 112.548 1193.97 Q112.548 1202.7 109.469 1207.31 Q106.413 1211.89 100.603 1211.89 Q94.793 1211.89 91.7143 1207.31 Q88.6588 1202.7 88.6588 1193.97 Q88.6588 1185.22 91.7143 1180.64 Q94.793 1176.03 100.603 1176.03 Z" fill="#000000" fill-rule="evenodd" fill-opacity="1" /><path clip-path="url(#clip400)" d="M96.2282 839.746 L112.548 839.746 L112.548 843.681 L90.6032 843.681 L90.6032 839.746 Q93.2652 836.992 97.8485 832.362 Q102.455 827.709 103.636 826.367 Q105.881 823.844 106.761 822.107 Q107.663 820.348 107.663 818.658 Q107.663 815.904 105.719 814.168 Q103.798 812.432 100.696 812.432 Q98.4967 812.432 96.043 813.195 Q93.6125 813.959 90.8347 815.51 L90.8347 810.788 Q93.6588 809.654 96.1124 809.075 Q98.5661 808.496 100.603 808.496 Q105.974 808.496 109.168 811.182 Q112.362 813.867 112.362 818.357 Q112.362 820.487 111.552 822.408 Q110.765 824.306 108.659 826.899 Q108.08 827.57 104.978 830.788 Q101.876 833.982 96.2282 839.746 Z" fill="#000000" fill-rule="evenodd" fill-opacity="1" /><path clip-path="url(#clip400)" d="M102.964 445.66 L91.1588 464.109 L102.964 464.109 L102.964 445.66 M101.737 441.586 L107.617 441.586 L107.617 464.109 L112.548 464.109 L112.548 467.998 L107.617 467.998 L107.617 476.146 L102.964 476.146 L102.964 467.998 L87.3625 467.998 L87.3625 463.484 L101.737 441.586 Z" fill="#000000" fill-rule="evenodd" fill-opacity="1" /><path clip-path="url(#clip400)" d="M101.02 89.4665 Q97.8717 89.4665 96.0199 91.6192 Q94.1912 93.772 94.1912 97.522 Q94.1912 101.249 96.0199 103.425 Q97.8717 105.577 101.02 105.577 Q104.168 105.577 105.997 103.425 Q107.848 101.249 107.848 97.522 Q107.848 93.772 105.997 91.6192 Q104.168 89.4665 101.02 89.4665 M110.302 74.8138 L110.302 79.073 Q108.543 78.2397 106.737 77.7999 Q104.955 77.36 103.196 77.36 Q98.5661 77.36 96.1124 80.485 Q93.6819 83.61 93.3347 89.9294 Q94.7004 87.9155 96.7606 86.8507 Q98.8208 85.7628 101.298 85.7628 Q106.506 85.7628 109.515 88.9341 Q112.548 92.0822 112.548 97.522 Q112.548 102.846 109.399 106.064 Q106.251 109.281 101.02 109.281 Q95.0245 109.281 91.8532 104.698 Q88.6819 100.091 88.6819 91.3646 Q88.6819 83.1702 92.5708 78.3091 Q96.4597 73.4249 103.011 73.4249 Q104.77 73.4249 106.552 73.7721 Q108.358 74.1193 110.302 74.8138 Z" fill="#000000" fill-rule="evenodd" fill-opacity="1" /><path clip-path="url(#clip402)" d="
M676.776 649.284 L696.379 604.393 L717.625 560.396 L740.428 517.47 L764.697 475.788 L790.333 435.518 L817.234 396.822 L845.291 359.856 L874.392 324.768 L904.418 291.7 
  L935.25 260.785 L966.763 232.148 L998.83 205.903 L1031.32 182.157 L1064.11 161.006 L1097.06 142.533 L1130.03 126.815 L1162.91 113.913 L1195.55 103.88 L1227.82 96.7564 
  L1259.59 92.571 L1290.74 91.3404 L1321.14 93.0696 L1350.67 97.7518 L1379.2 105.368 L1406.63 115.887 L1432.84 129.268 L1457.73 145.455 L1481.19 164.385 L1503.14 185.98 
  L1523.48 210.154 L1542.14 236.809 L1559.03 265.839 L1574.09 297.126 L1587.26 330.543 L1598.49 365.958 L1607.72 403.226 L1614.93 442.199 L1620.08 482.718 L1623.16 524.622 
  L1624.15 567.741 L1623.04 611.901 L1619.85 656.925 L1614.58 702.631 L1607.26 748.835 L1597.91 795.352 L1586.57 841.995 L1573.29 888.574 L1558.13 934.903 L1541.14 980.795 
  L1522.38 1026.06 L1501.95 1070.53 L1479.91 1114.01 L1456.37 1156.34 L1431.4 1197.34 L1405.12 1236.84 L1377.63 1274.69 L1349.03 1310.73 L1319.45 1344.83 L1289.01 1376.84 
  L1257.82 1406.63 L1226.02 1434.08 L1193.72 1459.09 L1161.07 1481.55 L1128.18 1501.37 L1095.2 1518.48 L1062.26 1532.79 L1029.49 1544.27 L997.016 1552.85 L964.977 1558.51 
  L933.499 1561.22 L902.709 1560.97 L872.731 1557.76 L843.687 1551.61 L815.691 1542.54 L788.859 1530.58 L763.296 1515.79 L739.107 1498.22 L716.389 1477.95 L695.233 1455.05 
  L675.725 1429.62 L657.943 1401.77 L641.958 1371.6 L627.835 1339.23 L615.632 1304.79 L605.396 1268.43 L597.169 1230.29 L590.985 1190.53 L586.868 1149.3 L584.835 1106.76 
  L584.893 1063.1 L587.044 1018.49 L591.278 973.099 L597.577 927.12 L605.918 880.736 L616.265 834.133 L628.578 787.499 L642.807 741.022 L658.895 694.888 L676.776 649.284 
  L676.776 649.284  Z
  " fill="#009af9" fill-rule="evenodd" fill-opacity="0.3"/>
<polyline clip-path="url(#clip402)" style="stroke:#000000; stroke-linecap:butt; stroke-linejoin:round; stroke-width:4; stroke-opacity:0.3; fill:none" points="
  676.776,649.284 696.379,604.393 717.625,560.396 740.428,517.47 764.697,475.788 790.333,435.518 817.234,396.822 845.291,359.856 874.392,324.768 904.418,291.7 
  935.25,260.785 966.763,232.148 998.83,205.903 1031.32,182.157 1064.11,161.006 1097.06,142.533 1130.03,126.815 1162.91,113.913 1195.55,103.88 1227.82,96.7564 
  1259.59,92.571 1290.74,91.3404 1321.14,93.0696 1350.67,97.7518 1379.2,105.368 1406.63,115.887 1432.84,129.268 1457.73,145.455 1481.19,164.385 1503.14,185.98 
  1523.48,210.154 1542.14,236.809 1559.03,265.839 1574.09,297.126 1587.26,330.543 1598.49,365.958 1607.72,403.226 1614.93,442.199 1620.08,482.718 1623.16,524.622 
  1624.15,567.741 1623.04,611.901 1619.85,656.925 1614.58,702.631 1607.26,748.835 1597.91,795.352 1586.57,841.995 1573.29,888.574 1558.13,934.903 1541.14,980.795 
  1522.38,1026.06 1501.95,1070.53 1479.91,1114.01 1456.37,1156.34 1431.4,1197.34 1405.12,1236.84 1377.63,1274.69 1349.03,1310.73 1319.45,1344.83 1289.01,1376.84 
  1257.82,1406.63 1226.02,1434.08 1193.72,1459.09 1161.07,1481.55 1128.18,1501.37 1095.2,1518.48 1062.26,1532.79 1029.49,1544.27 997.016,1552.85 964.977,1558.51 
  933.499,1561.22 902.709,1560.97 872.731,1557.76 843.687,1551.61 815.691,1542.54 788.859,1530.58 763.296,1515.79 739.107,1498.22 716.389,1477.95 695.233,1455.05 
  675.725,1429.62 657.943,1401.77 641.958,1371.6 627.835,1339.23 615.632,1304.79 605.396,1268.43 597.169,1230.29 590.985,1190.53 586.868,1149.3 584.835,1106.76 
  584.893,1063.1 587.044,1018.49 591.278,973.099 597.577,927.12 605.918,880.736 616.265,834.133 628.578,787.499 642.807,741.022 658.895,694.888 676.776,649.284 
  676.776,649.284 
  "/>
<path clip-path="url(#clip402)" d="
M1120.18 1233.59 L1115.79 1213.48 L1112.09 1193.29 L1109.1 1173.1 L1106.84 1153 L1105.3 1133.06 L1104.5 1113.37 L1104.44 1094 L1105.12 1075.04 L1106.54 1056.55 
  L1108.68 1038.62 L1111.55 1021.31 L1115.13 1004.7 L1119.41 988.845 L1124.37 973.82 L1129.98 959.681 L1136.24 946.485 L1143.1 934.286 L1150.55 923.133 L1158.55 913.069 
  L1167.08 904.137 L1176.09 896.372 L1185.56 889.805 L1195.43 884.462 L1205.68 880.366 L1216.26 877.532 L1227.14 875.972 L1238.25 875.693 L1249.57 876.695 L1261.04 878.974 
  L1272.63 882.522 L1284.27 887.324 L1295.93 893.36 L1307.56 900.607 L1319.11 909.035 L1330.54 918.61 L1341.79 929.293 L1352.83 941.043 L1363.61 953.81 L1374.09 967.545 
  L1384.22 982.191 L1393.96 997.69 L1403.27 1013.98 L1412.13 1030.99 L1420.48 1048.66 L1428.3 1066.92 L1435.56 1085.68 L1442.22 1104.88 L1448.26 1124.45 L1453.66 1144.29 
  L1458.39 1164.33 L1462.43 1184.49 L1465.78 1204.68 L1468.41 1224.84 L1470.31 1244.87 L1471.48 1264.69 L1471.91 1284.23 L1471.6 1303.41 L1470.55 1322.14 L1468.77 1340.36 
  L1466.26 1357.99 L1463.03 1374.96 L1459.1 1391.2 L1454.48 1406.65 L1449.19 1421.24 L1443.25 1434.91 L1436.69 1447.62 L1429.53 1459.3 L1421.8 1469.91 L1413.53 1479.41 
  L1404.76 1487.77 L1395.52 1494.94 L1385.84 1500.9 L1375.77 1505.62 L1365.35 1509.08 L1354.62 1511.28 L1343.62 1512.2 L1332.4 1511.84 L1321 1510.2 L1309.46 1507.28 
  L1297.84 1503.11 L1286.18 1497.69 L1274.53 1491.04 L1262.94 1483.2 L1251.44 1474.19 L1240.1 1464.06 L1228.94 1452.84 L1218.03 1440.57 L1207.4 1427.31 L1197.09 1413.12 
  L1187.15 1398.04 L1177.62 1382.13 L1168.53 1365.48 L1159.92 1348.12 L1151.83 1330.15 L1144.29 1311.63 L1137.32 1292.64 L1130.97 1273.25 L1125.24 1253.54 L1120.18 1233.59 
  L1120.18 1233.59  Z
  " fill="#e26f46" fill-rule="evenodd" fill-opacity="0.3"/>
<polyline clip-path="url(#clip402)" style="stroke:#000000; stroke-linecap:butt; stroke-linejoin:round; stroke-width:4; stroke-opacity:0.3; fill:none" points="
  1120.18,1233.59 1115.79,1213.48 1112.09,1193.29 1109.1,1173.1 1106.84,1153 1105.3,1133.06 1104.5,1113.37 1104.44,1094 1105.12,1075.04 1106.54,1056.55 
  1108.68,1038.62 1111.55,1021.31 1115.13,1004.7 1119.41,988.845 1124.37,973.82 1129.98,959.681 1136.24,946.485 1143.1,934.286 1150.55,923.133 1158.55,913.069 
  1167.08,904.137 1176.09,896.372 1185.56,889.805 1195.43,884.462 1205.68,880.366 1216.26,877.532 1227.14,875.972 1238.25,875.693 1249.57,876.695 1261.04,878.974 
  1272.63,882.522 1284.27,887.324 1295.93,893.36 1307.56,900.607 1319.11,909.035 1330.54,918.61 1341.79,929.293 1352.83,941.043 1363.61,953.81 1374.09,967.545 
  1384.22,982.191 1393.96,997.69 1403.27,1013.98 1412.13,1030.99 1420.48,1048.66 1428.3,1066.92 1435.56,1085.68 1442.22,1104.88 1448.26,1124.45 1453.66,1144.29 
  1458.39,1164.33 1462.43,1184.49 1465.78,1204.68 1468.41,1224.84 1470.31,1244.87 1471.48,1264.69 1471.91,1284.23 1471.6,1303.41 1470.55,1322.14 1468.77,1340.36 
  1466.26,1357.99 1463.03,1374.96 1459.1,1391.2 1454.48,1406.65 1449.19,1421.24 1443.25,1434.91 1436.69,1447.62 1429.53,1459.3 1421.8,1469.91 1413.53,1479.41 
  1404.76,1487.77 1395.52,1494.94 1385.84,1500.9 1375.77,1505.62 1365.35,1509.08 1354.62,1511.28 1343.62,1512.2 1332.4,1511.84 1321,1510.2 1309.46,1507.28 
  1297.84,1503.11 1286.18,1497.69 1274.53,1491.04 1262.94,1483.2 1251.44,1474.19 1240.1,1464.06 1228.94,1452.84 1218.03,1440.57 1207.4,1427.31 1197.09,1413.12 
  1187.15,1398.04 1177.62,1382.13 1168.53,1365.48 1159.92,1348.12 1151.83,1330.15 1144.29,1311.63 1137.32,1292.64 1130.97,1273.25 1125.24,1253.54 1120.18,1233.59 
  
  "/>
<polyline clip-path="url(#clip402)" style="stroke:#808080; stroke-linecap:butt; stroke-linejoin:round; stroke-width:4; stroke-opacity:1; fill:none" points="
  1120.18,1233.59 1288.14,1193.94 1213.59,878.121 
  "/>
<path clip-path="url(#clip400)" d="
M1681.05 254.7 L2000.74 254.7 L2000.74 99.1797 L1681.05 99.1797  Z
  " fill="#ffffff" fill-rule="evenodd" fill-opacity="1"/>
<polyline clip-path="url(#clip400)" style="stroke:#000000; stroke-linecap:butt; stroke-linejoin:round; stroke-width:4; stroke-opacity:1; fill:none" points="
  1681.05,254.7 2000.74,254.7 2000.74,99.1797 1681.05,99.1797 1681.05,254.7 
  "/>
<path clip-path="url(#clip400)" d="
M1702.39 171.756 L1830.42 171.756 L1830.42 130.284 L1702.39 130.284 L1702.39 171.756  Z
  " fill="#009af9" fill-rule="evenodd" fill-opacity="0.3"/>
<polyline clip-path="url(#clip400)" style="stroke:#000000; stroke-linecap:butt; stroke-linejoin:round; stroke-width:4; stroke-opacity:1; fill:none" points="
  1702.39,171.756 1830.42,171.756 1830.42,130.284 1702.39,130.284 1702.39,171.756 
  "/>
<path clip-path="url(#clip400)" d="M1872.27 143.369 L1872.27 147.351 Q1870.47 146.355 1868.64 145.869 Q1866.83 145.36 1864.98 145.36 Q1860.84 145.36 1858.55 147.999 Q1856.25 150.615 1856.25 155.36 Q1856.25 160.105 1858.55 162.744 Q1860.84 165.36 1864.98 165.36 Q1866.83 165.36 1868.64 164.874 Q1870.47 164.365 1872.27 163.369 L1872.27 167.304 Q1870.49 168.138 1868.57 168.554 Q1866.67 168.971 1864.52 168.971 Q1858.66 168.971 1855.21 165.29 Q1851.76 161.61 1851.76 155.36 Q1851.76 149.017 1855.24 145.383 Q1858.73 141.749 1864.8 141.749 Q1866.76 141.749 1868.64 142.166 Q1870.51 142.559 1872.27 143.369 Z" fill="#000000" fill-rule="evenodd" fill-opacity="1" /><path clip-path="url(#clip400)" d="M1889.73 145.36 Q1886.3 145.36 1884.31 148.045 Q1882.32 150.707 1882.32 155.36 Q1882.32 160.013 1884.29 162.698 Q1886.28 165.36 1889.73 165.36 Q1893.13 165.36 1895.12 162.675 Q1897.11 159.99 1897.11 155.36 Q1897.11 150.754 1895.12 148.068 Q1893.13 145.36 1889.73 145.36 M1889.73 141.749 Q1895.28 141.749 1898.45 145.36 Q1901.63 148.971 1901.63 155.36 Q1901.63 161.726 1898.45 165.36 Q1895.28 168.971 1889.73 168.971 Q1884.15 168.971 1880.98 165.36 Q1877.83 161.726 1877.83 155.36 Q1877.83 148.971 1880.98 145.36 Q1884.15 141.749 1889.73 141.749 Z" fill="#000000" fill-rule="evenodd" fill-opacity="1" /><path clip-path="url(#clip400)" d="M1905.63 142.374 L1910.14 142.374 L1918.25 164.133 L1926.35 142.374 L1930.86 142.374 L1921.14 168.3 L1915.35 168.3 L1905.63 142.374 Z" fill="#000000" fill-rule="evenodd" fill-opacity="1" /><path clip-path="url(#clip400)" d="M1938.15 164.365 L1945.79 164.365 L1945.79 137.999 L1937.48 139.666 L1937.48 135.406 L1945.75 133.74 L1950.42 133.74 L1950.42 164.365 L1958.06 164.365 L1958.06 168.3 L1938.15 168.3 L1938.15 164.365 Z" fill="#000000" fill-rule="evenodd" fill-opacity="1" /><path clip-path="url(#clip400)" d="
M1702.39 223.596 L1830.42 223.596 L1830.42 182.124 L1702.39 182.124 L1702.39 223.596  Z
  " fill="#e26f46" fill-rule="evenodd" fill-opacity="0.3"/>
<polyline clip-path="url(#clip400)" style="stroke:#000000; stroke-linecap:butt; stroke-linejoin:round; stroke-width:4; stroke-opacity:1; fill:none" points="
  1702.39,223.596 1830.42,223.596 1830.42,182.124 1702.39,182.124 1702.39,223.596 
  "/>
<path clip-path="url(#clip400)" d="M1872.27 195.209 L1872.27 199.191 Q1870.47 198.195 1868.64 197.709 Q1866.83 197.2 1864.98 197.2 Q1860.84 197.2 1858.55 199.839 Q1856.25 202.455 1856.25 207.2 Q1856.25 211.945 1858.55 214.584 Q1860.84 217.2 1864.98 217.2 Q1866.83 217.2 1868.64 216.714 Q1870.47 216.205 1872.27 215.209 L1872.27 219.144 Q1870.49 219.978 1868.57 220.394 Q1866.67 220.811 1864.52 220.811 Q1858.66 220.811 1855.21 217.13 Q1851.76 213.45 1851.76 207.2 Q1851.76 200.857 1855.24 197.223 Q1858.73 193.589 1864.8 193.589 Q1866.76 193.589 1868.64 194.006 Q1870.51 194.399 1872.27 195.209 Z" fill="#000000" fill-rule="evenodd" fill-opacity="1" /><path clip-path="url(#clip400)" d="M1889.73 197.2 Q1886.3 197.2 1884.31 199.885 Q1882.32 202.547 1882.32 207.2 Q1882.32 211.853 1884.29 214.538 Q1886.28 217.2 1889.73 217.2 Q1893.13 217.2 1895.12 214.515 Q1897.11 211.83 1897.11 207.2 Q1897.11 202.594 1895.12 199.908 Q1893.13 197.2 1889.73 197.2 M1889.73 193.589 Q1895.28 193.589 1898.45 197.2 Q1901.63 200.811 1901.63 207.2 Q1901.63 213.566 1898.45 217.2 Q1895.28 220.811 1889.73 220.811 Q1884.15 220.811 1880.98 217.2 Q1877.83 213.566 1877.83 207.2 Q1877.83 200.811 1880.98 197.2 Q1884.15 193.589 1889.73 193.589 Z" fill="#000000" fill-rule="evenodd" fill-opacity="1" /><path clip-path="url(#clip400)" d="M1905.63 194.214 L1910.14 194.214 L1918.25 215.973 L1926.35 194.214 L1930.86 194.214 L1921.14 220.14 L1915.35 220.14 L1905.63 194.214 Z" fill="#000000" fill-rule="evenodd" fill-opacity="1" /><path clip-path="url(#clip400)" d="M1941.37 216.205 L1957.69 216.205 L1957.69 220.14 L1935.75 220.14 L1935.75 216.205 Q1938.41 213.45 1942.99 208.82 Q1947.6 204.168 1948.78 202.825 Q1951.02 200.302 1951.9 198.566 Q1952.81 196.807 1952.81 195.117 Q1952.81 192.362 1950.86 190.626 Q1948.94 188.89 1945.84 188.89 Q1943.64 188.89 1941.18 189.654 Q1938.75 190.418 1935.98 191.969 L1935.98 187.246 Q1938.8 186.112 1941.25 185.533 Q1943.71 184.955 1945.75 184.955 Q1951.12 184.955 1954.31 187.64 Q1957.5 190.325 1957.5 194.816 Q1957.5 196.945 1956.69 198.867 Q1955.91 200.765 1953.8 203.357 Q1953.22 204.029 1950.12 207.246 Q1947.02 210.441 1941.37 216.205 Z" fill="#000000" fill-rule="evenodd" fill-opacity="1" /></svg>
