<?xml version="1.0" encoding="utf-8"?>
<svg xmlns="http://www.w3.org/2000/svg" xmlns:xlink="http://www.w3.org/1999/xlink" width="672" height="480" viewBox="0 0 2688 1920">
<defs>
  <clipPath id="clip700">
    <rect x="0" y="0" width="2688" height="1920"/>
  </clipPath>
</defs>
<path clip-path="url(#clip700)" d="
M0 1920 L2688 1920 L2688 0 L0 0  Z
  " fill="#ffffff" fill-rule="evenodd" fill-opacity="1"/>
<defs>
  <clipPath id="clip701">
    <rect x="537" y="0" width="1883" height="1883"/>
  </clipPath>
</defs>
<path clip-path="url(#clip700)" d="
M336.261 1800.78 L2640.76 1800.78 L2640.76 47.2441 L336.261 47.2441  Z
  " fill="#ffffff" fill-rule="evenodd" fill-opacity="1"/>
<defs>
  <clipPath id="clip702">
    <rect x="336" y="47" width="2305" height="1755"/>
  </clipPath>
</defs>
<polyline clip-path="url(#clip702)" style="stroke:#000000; stroke-linecap:butt; stroke-linejoin:round; stroke-width:2; stroke-opacity:0.1; fill:none" points="
  401.483,1800.78 401.483,47.2445 
  "/>
<polyline clip-path="url(#clip702)" style="stroke:#000000; stroke-linecap:butt; stroke-linejoin:round; stroke-width:2; stroke-opacity:0.1; fill:none" points="
  944.996,1800.78 944.996,47.2445 
  "/>
<polyline clip-path="url(#clip702)" style="stroke:#000000; stroke-linecap:butt; stroke-linejoin:round; stroke-width:2; stroke-opacity:0.1; fill:none" points="
  1488.51,1800.78 1488.51,47.2445 
  "/>
<polyline clip-path="url(#clip702)" style="stroke:#000000; stroke-linecap:butt; stroke-linejoin:round; stroke-width:2; stroke-opacity:0.1; fill:none" points="
  2032.02,1800.78 2032.02,47.2445 
  "/>
<polyline clip-path="url(#clip702)" style="stroke:#000000; stroke-linecap:butt; stroke-linejoin:round; stroke-width:2; stroke-opacity:0.1; fill:none" points="
  2575.53,1800.78 2575.53,47.2445 
  "/>
<polyline clip-path="url(#clip700)" style="stroke:#000000; stroke-linecap:butt; stroke-linejoin:round; stroke-width:4; stroke-opacity:1; fill:none" points="
  336.261,1800.78 2640.76,1800.78 
  "/>
<polyline clip-path="url(#clip700)" style="stroke:#000000; stroke-linecap:butt; stroke-linejoin:round; stroke-width:4; stroke-opacity:1; fill:none" points="
  401.483,1800.78 401.483,1781.88 
  "/>
<polyline clip-path="url(#clip700)" style="stroke:#000000; stroke-linecap:butt; stroke-linejoin:round; stroke-width:4; stroke-opacity:1; fill:none" points="
  944.996,1800.78 944.996,1781.88 
  "/>
<polyline clip-path="url(#clip700)" style="stroke:#000000; stroke-linecap:butt; stroke-linejoin:round; stroke-width:4; stroke-opacity:1; fill:none" points="
  1488.51,1800.78 1488.51,1781.88 
  "/>
<polyline clip-path="url(#clip700)" style="stroke:#000000; stroke-linecap:butt; stroke-linejoin:round; stroke-width:4; stroke-opacity:1; fill:none" points="
  2032.02,1800.78 2032.02,1781.88 
  "/>
<polyline clip-path="url(#clip700)" style="stroke:#000000; stroke-linecap:butt; stroke-linejoin:round; stroke-width:4; stroke-opacity:1; fill:none" points="
  2575.53,1800.78 2575.53,1781.88 
  "/>
<path clip-path="url(#clip700)" d="M363.786 1834 Q360.175 1834 358.346 1837.57 Q356.541 1841.11 356.541 1848.24 Q356.541 1855.34 358.346 1858.91 Q360.175 1862.45 363.786 1862.45 Q367.42 1862.45 369.226 1858.91 Q371.055 1855.34 371.055 1848.24 Q371.055 1841.11 369.226 1837.57 Q367.42 1834 363.786 1834 M363.786 1830.3 Q369.596 1830.3 372.652 1834.9 Q375.731 1839.49 375.731 1848.24 Q375.731 1856.96 372.652 1861.57 Q369.596 1866.15 363.786 1866.15 Q357.976 1866.15 354.897 1861.57 Q351.842 1856.96 351.842 1848.24 Q351.842 1839.49 354.897 1834.9 Q357.976 1830.3 363.786 1830.3 Z" fill="#000000" fill-rule="evenodd" fill-opacity="1" /><path clip-path="url(#clip700)" d="M383.948 1859.6 L388.832 1859.6 L388.832 1865.48 L383.948 1865.48 L383.948 1859.6 Z" fill="#000000" fill-rule="evenodd" fill-opacity="1" /><path clip-path="url(#clip700)" d="M409.017 1834 Q405.406 1834 403.578 1837.57 Q401.772 1841.11 401.772 1848.24 Q401.772 1855.34 403.578 1858.91 Q405.406 1862.45 409.017 1862.45 Q412.652 1862.45 414.457 1858.91 Q416.286 1855.34 416.286 1848.24 Q416.286 1841.11 414.457 1837.57 Q412.652 1834 409.017 1834 M409.017 1830.3 Q414.828 1830.3 417.883 1834.9 Q420.962 1839.49 420.962 1848.24 Q420.962 1856.96 417.883 1861.57 Q414.828 1866.15 409.017 1866.15 Q403.207 1866.15 400.129 1861.57 Q397.073 1856.96 397.073 1848.24 Q397.073 1839.49 400.129 1834.9 Q403.207 1830.3 409.017 1830.3 Z" fill="#000000" fill-rule="evenodd" fill-opacity="1" /><path clip-path="url(#clip700)" d="M439.179 1834 Q435.568 1834 433.739 1837.57 Q431.934 1841.11 431.934 1848.24 Q431.934 1855.34 433.739 1858.91 Q435.568 1862.45 439.179 1862.45 Q442.813 1862.45 444.619 1858.91 Q446.448 1855.34 446.448 1848.24 Q446.448 1841.11 444.619 1837.57 Q442.813 1834 439.179 1834 M439.179 1830.3 Q444.989 1830.3 448.045 1834.9 Q451.124 1839.49 451.124 1848.24 Q451.124 1856.96 448.045 1861.57 Q444.989 1866.15 439.179 1866.15 Q433.369 1866.15 430.29 1861.57 Q427.235 1856.96 427.235 1848.24 Q427.235 1839.49 430.29 1834.9 Q433.369 1830.3 439.179 1830.3 Z" fill="#000000" fill-rule="evenodd" fill-opacity="1" /><path clip-path="url(#clip700)" d="M907.797 1834 Q904.186 1834 902.357 1837.57 Q900.551 1841.11 900.551 1848.24 Q900.551 1855.34 902.357 1858.91 Q904.186 1862.45 907.797 1862.45 Q911.431 1862.45 913.237 1858.91 Q915.065 1855.34 915.065 1848.24 Q915.065 1841.11 913.237 1837.57 Q911.431 1834 907.797 1834 M907.797 1830.3 Q913.607 1830.3 916.662 1834.9 Q919.741 1839.49 919.741 1848.24 Q919.741 1856.96 916.662 1861.57 Q913.607 1866.15 907.797 1866.15 Q901.987 1866.15 898.908 1861.57 Q895.852 1856.96 895.852 1848.24 Q895.852 1839.49 898.908 1834.9 Q901.987 1830.3 907.797 1830.3 Z" fill="#000000" fill-rule="evenodd" fill-opacity="1" /><path clip-path="url(#clip700)" d="M927.959 1859.6 L932.843 1859.6 L932.843 1865.48 L927.959 1865.48 L927.959 1859.6 Z" fill="#000000" fill-rule="evenodd" fill-opacity="1" /><path clip-path="url(#clip700)" d="M947.056 1861.55 L963.375 1861.55 L963.375 1865.48 L941.431 1865.48 L941.431 1861.55 Q944.093 1858.79 948.676 1854.16 Q953.283 1849.51 954.463 1848.17 Q956.709 1845.65 957.588 1843.91 Q958.491 1842.15 958.491 1840.46 Q958.491 1837.71 956.546 1835.97 Q954.625 1834.23 951.523 1834.23 Q949.324 1834.23 946.871 1835 Q944.44 1835.76 941.662 1837.31 L941.662 1832.59 Q944.486 1831.46 946.94 1830.88 Q949.394 1830.3 951.431 1830.3 Q956.801 1830.3 959.996 1832.98 Q963.19 1835.67 963.19 1840.16 Q963.19 1842.29 962.38 1844.21 Q961.593 1846.11 959.486 1848.7 Q958.908 1849.37 955.806 1852.59 Q952.704 1855.78 947.056 1861.55 Z" fill="#000000" fill-rule="evenodd" fill-opacity="1" /><path clip-path="url(#clip700)" d="M973.236 1830.92 L991.593 1830.92 L991.593 1834.86 L977.519 1834.86 L977.519 1843.33 Q978.537 1842.98 979.556 1842.82 Q980.574 1842.64 981.593 1842.64 Q987.38 1842.64 990.759 1845.81 Q994.139 1848.98 994.139 1854.4 Q994.139 1859.97 990.667 1863.08 Q987.194 1866.15 980.875 1866.15 Q978.699 1866.15 976.431 1865.78 Q974.185 1865.41 971.778 1864.67 L971.778 1859.97 Q973.861 1861.11 976.083 1861.66 Q978.306 1862.22 980.782 1862.22 Q984.787 1862.22 987.125 1860.11 Q989.463 1858.01 989.463 1854.4 Q989.463 1850.78 987.125 1848.68 Q984.787 1846.57 980.782 1846.57 Q978.907 1846.57 977.032 1846.99 Q975.181 1847.4 973.236 1848.28 L973.236 1830.92 Z" fill="#000000" fill-rule="evenodd" fill-opacity="1" /><path clip-path="url(#clip700)" d="M1450.81 1834 Q1447.2 1834 1445.37 1837.57 Q1443.57 1841.11 1443.57 1848.24 Q1443.57 1855.34 1445.37 1858.91 Q1447.2 1862.45 1450.81 1862.45 Q1454.45 1862.45 1456.25 1858.91 Q1458.08 1855.34 1458.08 1848.24 Q1458.08 1841.11 1456.25 1837.57 Q1454.45 1834 1450.81 1834 M1450.81 1830.3 Q1456.62 1830.3 1459.68 1834.9 Q1462.76 1839.49 1462.76 1848.24 Q1462.76 1856.96 1459.68 1861.57 Q1456.62 1866.15 1450.81 1866.15 Q1445 1866.15 1441.92 1861.57 Q1438.87 1856.96 1438.87 1848.24 Q1438.87 1839.49 1441.92 1834.9 Q1445 1830.3 1450.81 1830.3 Z" fill="#000000" fill-rule="evenodd" fill-opacity="1" /><path clip-path="url(#clip700)" d="M1470.97 1859.6 L1475.86 1859.6 L1475.86 1865.48 L1470.97 1865.48 L1470.97 1859.6 Z" fill="#000000" fill-rule="evenodd" fill-opacity="1" /><path clip-path="url(#clip700)" d="M1486.09 1830.92 L1504.45 1830.92 L1504.45 1834.86 L1490.37 1834.86 L1490.37 1843.33 Q1491.39 1842.98 1492.41 1842.82 Q1493.43 1842.64 1494.45 1842.64 Q1500.23 1842.64 1503.61 1845.81 Q1506.99 1848.98 1506.99 1854.4 Q1506.99 1859.97 1503.52 1863.08 Q1500.05 1866.15 1493.73 1866.15 Q1491.55 1866.15 1489.28 1865.78 Q1487.04 1865.41 1484.63 1864.67 L1484.63 1859.97 Q1486.71 1861.11 1488.94 1861.66 Q1491.16 1862.22 1493.64 1862.22 Q1497.64 1862.22 1499.98 1860.11 Q1502.32 1858.01 1502.32 1854.4 Q1502.32 1850.78 1499.98 1848.68 Q1497.64 1846.57 1493.64 1846.57 Q1491.76 1846.57 1489.89 1846.99 Q1488.03 1847.4 1486.09 1848.28 L1486.09 1830.92 Z" fill="#000000" fill-rule="evenodd" fill-opacity="1" /><path clip-path="url(#clip700)" d="M1526.21 1834 Q1522.59 1834 1520.77 1837.57 Q1518.96 1841.11 1518.96 1848.24 Q1518.96 1855.34 1520.77 1858.91 Q1522.59 1862.45 1526.21 1862.45 Q1529.84 1862.45 1531.64 1858.91 Q1533.47 1855.34 1533.47 1848.24 Q1533.47 1841.11 1531.64 1837.57 Q1529.84 1834 1526.21 1834 M1526.21 1830.3 Q1532.02 1830.3 1535.07 1834.9 Q1538.15 1839.49 1538.15 1848.24 Q1538.15 1856.96 1535.07 1861.57 Q1532.02 1866.15 1526.21 1866.15 Q1520.39 1866.15 1517.32 1861.57 Q1514.26 1856.96 1514.26 1848.24 Q1514.26 1839.49 1517.32 1834.9 Q1520.39 1830.3 1526.21 1830.3 Z" fill="#000000" fill-rule="evenodd" fill-opacity="1" /><path clip-path="url(#clip700)" d="M1994.82 1834 Q1991.21 1834 1989.38 1837.57 Q1987.58 1841.11 1987.58 1848.24 Q1987.58 1855.34 1989.38 1858.91 Q1991.21 1862.45 1994.82 1862.45 Q1998.46 1862.45 2000.26 1858.91 Q2002.09 1855.34 2002.09 1848.24 Q2002.09 1841.11 2000.26 1837.57 Q1998.46 1834 1994.82 1834 M1994.82 1830.3 Q2000.63 1830.3 2003.69 1834.9 Q2006.77 1839.49 2006.77 1848.24 Q2006.77 1856.96 2003.69 1861.57 Q2000.63 1866.15 1994.82 1866.15 Q1989.01 1866.15 1985.93 1861.57 Q1982.88 1856.96 1982.88 1848.24 Q1982.88 1839.49 1985.93 1834.9 Q1989.01 1830.3 1994.82 1830.3 Z" fill="#000000" fill-rule="evenodd" fill-opacity="1" /><path clip-path="url(#clip700)" d="M2014.98 1859.6 L2019.87 1859.6 L2019.87 1865.48 L2014.98 1865.48 L2014.98 1859.6 Z" fill="#000000" fill-rule="evenodd" fill-opacity="1" /><path clip-path="url(#clip700)" d="M2028.87 1830.92 L2051.1 1830.92 L2051.1 1832.91 L2038.55 1865.48 L2033.66 1865.48 L2045.47 1834.86 L2028.87 1834.86 L2028.87 1830.92 Z" fill="#000000" fill-rule="evenodd" fill-opacity="1" /><path clip-path="url(#clip700)" d="M2060.26 1830.92 L2078.62 1830.92 L2078.62 1834.86 L2064.54 1834.86 L2064.54 1843.33 Q2065.56 1842.98 2066.58 1842.82 Q2067.6 1842.64 2068.62 1842.64 Q2074.41 1842.64 2077.79 1845.81 Q2081.16 1848.98 2081.16 1854.4 Q2081.16 1859.97 2077.69 1863.08 Q2074.22 1866.15 2067.9 1866.15 Q2065.72 1866.15 2063.46 1865.78 Q2061.21 1865.41 2058.8 1864.67 L2058.8 1859.97 Q2060.89 1861.11 2063.11 1861.66 Q2065.33 1862.22 2067.81 1862.22 Q2071.81 1862.22 2074.15 1860.11 Q2076.49 1858.01 2076.49 1854.4 Q2076.49 1850.78 2074.15 1848.68 Q2071.81 1846.57 2067.81 1846.57 Q2065.93 1846.57 2064.06 1846.99 Q2062.21 1847.4 2060.26 1848.28 L2060.26 1830.92 Z" fill="#000000" fill-rule="evenodd" fill-opacity="1" /><path clip-path="url(#clip700)" d="M2527.61 1861.55 L2535.25 1861.55 L2535.25 1835.18 L2526.94 1836.85 L2526.94 1832.59 L2535.2 1830.92 L2539.87 1830.92 L2539.87 1861.55 L2547.51 1861.55 L2547.51 1865.48 L2527.61 1865.48 L2527.61 1861.55 Z" fill="#000000" fill-rule="evenodd" fill-opacity="1" /><path clip-path="url(#clip700)" d="M2556.96 1859.6 L2561.84 1859.6 L2561.84 1865.48 L2556.96 1865.48 L2556.96 1859.6 Z" fill="#000000" fill-rule="evenodd" fill-opacity="1" /><path clip-path="url(#clip700)" d="M2582.03 1834 Q2578.42 1834 2576.59 1837.57 Q2574.78 1841.11 2574.78 1848.24 Q2574.78 1855.34 2576.59 1858.91 Q2578.42 1862.45 2582.03 1862.45 Q2585.66 1862.45 2587.47 1858.91 Q2589.3 1855.34 2589.3 1848.24 Q2589.3 1841.11 2587.47 1837.57 Q2585.66 1834 2582.03 1834 M2582.03 1830.3 Q2587.84 1830.3 2590.89 1834.9 Q2593.97 1839.49 2593.97 1848.24 Q2593.97 1856.96 2590.89 1861.57 Q2587.84 1866.15 2582.03 1866.15 Q2576.22 1866.15 2573.14 1861.57 Q2570.08 1856.96 2570.08 1848.24 Q2570.08 1839.49 2573.14 1834.9 Q2576.22 1830.3 2582.03 1830.3 Z" fill="#000000" fill-rule="evenodd" fill-opacity="1" /><path clip-path="url(#clip700)" d="M2612.19 1834 Q2608.58 1834 2606.75 1837.57 Q2604.94 1841.11 2604.94 1848.24 Q2604.94 1855.34 2606.75 1858.91 Q2608.58 1862.45 2612.19 1862.45 Q2615.82 1862.45 2617.63 1858.91 Q2619.46 1855.34 2619.46 1848.24 Q2619.46 1841.11 2617.63 1837.57 Q2615.82 1834 2612.19 1834 M2612.19 1830.3 Q2618 1830.3 2621.05 1834.9 Q2624.13 1839.49 2624.13 1848.24 Q2624.13 1856.96 2621.05 1861.57 Q2618 1866.15 2612.19 1866.15 Q2606.38 1866.15 2603.3 1861.57 Q2600.24 1856.96 2600.24 1848.24 Q2600.24 1839.49 2603.3 1834.9 Q2606.38 1830.3 2612.19 1830.3 Z" fill="#000000" fill-rule="evenodd" fill-opacity="1" /><polyline clip-path="url(#clip702)" style="stroke:#000000; stroke-linecap:butt; stroke-linejoin:round; stroke-width:2; stroke-opacity:0.1; fill:none" points="
  336.261,1751.15 2640.76,1751.15 
  "/>
<polyline clip-path="url(#clip702)" style="stroke:#000000; stroke-linecap:butt; stroke-linejoin:round; stroke-width:2; stroke-opacity:0.1; fill:none" points="
  336.261,1199.72 2640.76,1199.72 
  "/>
<polyline clip-path="url(#clip702)" style="stroke:#000000; stroke-linecap:butt; stroke-linejoin:round; stroke-width:2; stroke-opacity:0.1; fill:none" points="
  336.261,648.298 2640.76,648.298 
  "/>
<polyline clip-path="url(#clip702)" style="stroke:#000000; stroke-linecap:butt; stroke-linejoin:round; stroke-width:2; stroke-opacity:0.1; fill:none" points="
  336.261,96.8721 2640.76,96.8721 
  "/>
<polyline clip-path="url(#clip700)" style="stroke:#000000; stroke-linecap:butt; stroke-linejoin:round; stroke-width:4; stroke-opacity:1; fill:none" points="
  336.261,1800.78 336.261,47.2445 
  "/>
<polyline clip-path="url(#clip700)" style="stroke:#000000; stroke-linecap:butt; stroke-linejoin:round; stroke-width:4; stroke-opacity:1; fill:none" points="
  336.261,1751.15 355.159,1751.15 
  "/>
<polyline clip-path="url(#clip700)" style="stroke:#000000; stroke-linecap:butt; stroke-linejoin:round; stroke-width:4; stroke-opacity:1; fill:none" points="
  336.261,1199.72 355.159,1199.72 
  "/>
<polyline clip-path="url(#clip700)" style="stroke:#000000; stroke-linecap:butt; stroke-linejoin:round; stroke-width:4; stroke-opacity:1; fill:none" points="
  336.261,648.298 355.159,648.298 
  "/>
<polyline clip-path="url(#clip700)" style="stroke:#000000; stroke-linecap:butt; stroke-linejoin:round; stroke-width:4; stroke-opacity:1; fill:none" points="
  336.261,96.8721 355.159,96.8721 
  "/>
<path clip-path="url(#clip700)" d="M50.2234 1770.94 L57.8623 1770.94 L57.8623 1744.58 L49.5521 1746.24 L49.5521 1741.98 L57.816 1740.32 L62.4919 1740.32 L62.4919 1770.94 L70.1307 1770.94 L70.1307 1774.88 L50.2234 1774.88 L50.2234 1770.94 Z" fill="#000000" fill-rule="evenodd" fill-opacity="1" /><path clip-path="url(#clip700)" d="M79.5751 1769 L84.4593 1769 L84.4593 1774.88 L79.5751 1774.88 L79.5751 1769 Z" fill="#000000" fill-rule="evenodd" fill-opacity="1" /><path clip-path="url(#clip700)" d="M98.6722 1770.94 L114.992 1770.94 L114.992 1774.88 L93.0473 1774.88 L93.0473 1770.94 Q95.7093 1768.19 100.293 1763.56 Q104.899 1758.91 106.08 1757.56 Q108.325 1755.04 109.205 1753.3 Q110.107 1751.54 110.107 1749.85 Q110.107 1747.1 108.163 1745.36 Q106.242 1743.63 103.14 1743.63 Q100.941 1743.63 98.487 1744.39 Q96.0565 1745.16 93.2787 1746.71 L93.2787 1741.98 Q96.1028 1740.85 98.5565 1740.27 Q101.01 1739.69 103.047 1739.69 Q108.418 1739.69 111.612 1742.38 Q114.806 1745.06 114.806 1749.55 Q114.806 1751.68 113.996 1753.6 Q113.209 1755.5 111.103 1758.1 Q110.524 1758.77 107.422 1761.98 Q104.32 1765.18 98.6722 1770.94 Z" fill="#000000" fill-rule="evenodd" fill-opacity="1" /><path clip-path="url(#clip700)" d="M134.806 1743.4 Q131.195 1743.4 129.367 1746.96 Q127.561 1750.5 127.561 1757.63 Q127.561 1764.74 129.367 1768.3 Q131.195 1771.85 134.806 1771.85 Q138.441 1771.85 140.246 1768.3 Q142.075 1764.74 142.075 1757.63 Q142.075 1750.5 140.246 1746.96 Q138.441 1743.4 134.806 1743.4 M134.806 1739.69 Q140.616 1739.69 143.672 1744.3 Q146.751 1748.88 146.751 1757.63 Q146.751 1766.36 143.672 1770.97 Q140.616 1775.55 134.806 1775.55 Q128.996 1775.55 125.917 1770.97 Q122.862 1766.36 122.862 1757.63 Q122.862 1748.88 125.917 1744.3 Q128.996 1739.69 134.806 1739.69 Z" fill="#000000" fill-rule="evenodd" fill-opacity="1" /><path clip-path="url(#clip700)" d="M183.139 1749.41 L172.561 1760.04 L183.139 1770.62 L180.385 1773.42 L169.76 1762.79 L159.135 1773.42 L156.403 1770.62 L166.959 1760.04 L156.403 1749.41 L159.135 1746.61 L169.76 1757.24 L180.385 1746.61 L183.139 1749.41 Z" fill="#000000" fill-rule="evenodd" fill-opacity="1" /><path clip-path="url(#clip700)" d="M195.5 1770.94 L203.139 1770.94 L203.139 1744.58 L194.829 1746.24 L194.829 1741.98 L203.093 1740.32 L207.769 1740.32 L207.769 1770.94 L215.408 1770.94 L215.408 1774.88 L195.5 1774.88 L195.5 1770.94 Z" fill="#000000" fill-rule="evenodd" fill-opacity="1" /><path clip-path="url(#clip700)" d="M234.852 1743.4 Q231.241 1743.4 229.412 1746.96 Q227.607 1750.5 227.607 1757.63 Q227.607 1764.74 229.412 1768.3 Q231.241 1771.85 234.852 1771.85 Q238.486 1771.85 240.292 1768.3 Q242.121 1764.74 242.121 1757.63 Q242.121 1750.5 240.292 1746.96 Q238.486 1743.4 234.852 1743.4 M234.852 1739.69 Q240.662 1739.69 243.718 1744.3 Q246.796 1748.88 246.796 1757.63 Q246.796 1766.36 243.718 1770.97 Q240.662 1775.55 234.852 1775.55 Q229.042 1775.55 225.963 1770.97 Q222.908 1766.36 222.908 1757.63 Q222.908 1748.88 225.963 1744.3 Q229.042 1739.69 234.852 1739.69 Z" fill="#000000" fill-rule="evenodd" fill-opacity="1" /><path clip-path="url(#clip700)" d="M246.796 1733.79 L270.908 1733.79 L270.908 1736.99 L246.796 1736.99 L246.796 1733.79 Z" fill="#000000" fill-rule="evenodd" fill-opacity="1" /><path clip-path="url(#clip700)" d="M279.766 1744.27 L285.973 1744.27 L285.973 1722.85 L279.221 1724.2 L279.221 1720.74 L285.935 1719.39 L289.735 1719.39 L289.735 1744.27 L295.941 1744.27 L295.941 1747.47 L279.766 1747.47 L279.766 1744.27 Z" fill="#000000" fill-rule="evenodd" fill-opacity="1" /><path clip-path="url(#clip700)" d="M50.2234 1219.52 L57.8623 1219.52 L57.8623 1193.15 L49.5521 1194.82 L49.5521 1190.56 L57.816 1188.89 L62.4919 1188.89 L62.4919 1219.52 L70.1307 1219.52 L70.1307 1223.45 L50.2234 1223.45 L50.2234 1219.52 Z" fill="#000000" fill-rule="evenodd" fill-opacity="1" /><path clip-path="url(#clip700)" d="M79.5751 1217.57 L84.4593 1217.57 L84.4593 1223.45 L79.5751 1223.45 L79.5751 1217.57 Z" fill="#000000" fill-rule="evenodd" fill-opacity="1" /><path clip-path="url(#clip700)" d="M98.6722 1219.52 L114.992 1219.52 L114.992 1223.45 L93.0473 1223.45 L93.0473 1219.52 Q95.7093 1216.76 100.293 1212.13 Q104.899 1207.48 106.08 1206.14 Q108.325 1203.61 109.205 1201.88 Q110.107 1200.12 110.107 1198.43 Q110.107 1195.67 108.163 1193.94 Q106.242 1192.2 103.14 1192.2 Q100.941 1192.2 98.487 1192.97 Q96.0565 1193.73 93.2787 1195.28 L93.2787 1190.56 Q96.1028 1189.42 98.5565 1188.85 Q101.01 1188.27 103.047 1188.27 Q108.418 1188.27 111.612 1190.95 Q114.806 1193.64 114.806 1198.13 Q114.806 1200.26 113.996 1202.18 Q113.209 1204.08 111.103 1206.67 Q110.524 1207.34 107.422 1210.56 Q104.32 1213.75 98.6722 1219.52 Z" fill="#000000" fill-rule="evenodd" fill-opacity="1" /><path clip-path="url(#clip700)" d="M134.806 1191.97 Q131.195 1191.97 129.367 1195.54 Q127.561 1199.08 127.561 1206.21 Q127.561 1213.31 129.367 1216.88 Q131.195 1220.42 134.806 1220.42 Q138.441 1220.42 140.246 1216.88 Q142.075 1213.31 142.075 1206.21 Q142.075 1199.08 140.246 1195.54 Q138.441 1191.97 134.806 1191.97 M134.806 1188.27 Q140.616 1188.27 143.672 1192.87 Q146.751 1197.46 146.751 1206.21 Q146.751 1214.93 143.672 1219.54 Q140.616 1224.12 134.806 1224.12 Q128.996 1224.12 125.917 1219.54 Q122.862 1214.93 122.862 1206.21 Q122.862 1197.46 125.917 1192.87 Q128.996 1188.27 134.806 1188.27 Z" fill="#000000" fill-rule="evenodd" fill-opacity="1" /><path clip-path="url(#clip700)" d="M183.139 1197.99 L172.561 1208.61 L183.139 1219.19 L180.385 1221.99 L169.76 1211.37 L159.135 1221.99 L156.403 1219.19 L166.959 1208.61 L156.403 1197.99 L159.135 1195.19 L169.76 1205.81 L180.385 1195.19 L183.139 1197.99 Z" fill="#000000" fill-rule="evenodd" fill-opacity="1" /><path clip-path="url(#clip700)" d="M195.5 1219.52 L203.139 1219.52 L203.139 1193.15 L194.829 1194.82 L194.829 1190.56 L203.093 1188.89 L207.769 1188.89 L207.769 1219.52 L215.408 1219.52 L215.408 1223.45 L195.5 1223.45 L195.5 1219.52 Z" fill="#000000" fill-rule="evenodd" fill-opacity="1" /><path clip-path="url(#clip700)" d="M234.852 1191.97 Q231.241 1191.97 229.412 1195.54 Q227.607 1199.08 227.607 1206.21 Q227.607 1213.31 229.412 1216.88 Q231.241 1220.42 234.852 1220.42 Q238.486 1220.42 240.292 1216.88 Q242.121 1213.31 242.121 1206.21 Q242.121 1199.08 240.292 1195.54 Q238.486 1191.97 234.852 1191.97 M234.852 1188.27 Q240.662 1188.27 243.718 1192.87 Q246.796 1197.46 246.796 1206.21 Q246.796 1214.93 243.718 1219.54 Q240.662 1224.12 234.852 1224.12 Q229.042 1224.12 225.963 1219.54 Q222.908 1214.93 222.908 1206.21 Q222.908 1197.46 225.963 1192.87 Q229.042 1188.27 234.852 1188.27 Z" fill="#000000" fill-rule="evenodd" fill-opacity="1" /><path clip-path="url(#clip700)" d="M246.796 1182.37 L270.908 1182.37 L270.908 1185.57 L246.796 1185.57 L246.796 1182.37 Z" fill="#000000" fill-rule="evenodd" fill-opacity="1" /><path clip-path="url(#clip700)" d="M279.766 1192.84 L285.973 1192.84 L285.973 1171.42 L279.221 1172.78 L279.221 1169.32 L285.935 1167.96 L289.735 1167.96 L289.735 1192.84 L295.941 1192.84 L295.941 1196.04 L279.766 1196.04 L279.766 1192.84 Z" fill="#000000" fill-rule="evenodd" fill-opacity="1" /><path clip-path="url(#clip700)" d="M50.2234 668.09 L57.8623 668.09 L57.8623 641.725 L49.5521 643.391 L49.5521 639.132 L57.816 637.465 L62.4919 637.465 L62.4919 668.09 L70.1307 668.09 L70.1307 672.025 L50.2234 672.025 L50.2234 668.09 Z" fill="#000000" fill-rule="evenodd" fill-opacity="1" /><path clip-path="url(#clip700)" d="M79.5751 666.146 L84.4593 666.146 L84.4593 672.025 L79.5751 672.025 L79.5751 666.146 Z" fill="#000000" fill-rule="evenodd" fill-opacity="1" /><path clip-path="url(#clip700)" d="M98.6722 668.09 L114.992 668.09 L114.992 672.025 L93.0473 672.025 L93.0473 668.09 Q95.7093 665.336 100.293 660.706 Q104.899 656.053 106.08 654.711 Q108.325 652.187 109.205 650.451 Q110.107 648.692 110.107 647.002 Q110.107 644.248 108.163 642.512 Q106.242 640.775 103.14 640.775 Q100.941 640.775 98.487 641.539 Q96.0565 642.303 93.2787 643.854 L93.2787 639.132 Q96.1028 637.998 98.5565 637.419 Q101.01 636.84 103.047 636.84 Q108.418 636.84 111.612 639.526 Q114.806 642.211 114.806 646.701 Q114.806 648.831 113.996 650.752 Q113.209 652.65 111.103 655.243 Q110.524 655.914 107.422 659.132 Q104.32 662.326 98.6722 668.09 Z" fill="#000000" fill-rule="evenodd" fill-opacity="1" /><path clip-path="url(#clip700)" d="M134.806 640.544 Q131.195 640.544 129.367 644.109 Q127.561 647.65 127.561 654.78 Q127.561 661.886 129.367 665.451 Q131.195 668.993 134.806 668.993 Q138.441 668.993 140.246 665.451 Q142.075 661.886 142.075 654.78 Q142.075 647.65 140.246 644.109 Q138.441 640.544 134.806 640.544 M134.806 636.84 Q140.616 636.84 143.672 641.447 Q146.751 646.03 146.751 654.78 Q146.751 663.507 143.672 668.113 Q140.616 672.697 134.806 672.697 Q128.996 672.697 125.917 668.113 Q122.862 663.507 122.862 654.78 Q122.862 646.03 125.917 641.447 Q128.996 636.84 134.806 636.84 Z" fill="#000000" fill-rule="evenodd" fill-opacity="1" /><path clip-path="url(#clip700)" d="M183.139 646.563 L172.561 657.187 L183.139 667.766 L180.385 670.567 L169.76 659.942 L159.135 670.567 L156.403 667.766 L166.959 657.187 L156.403 646.563 L159.135 643.762 L169.76 654.387 L180.385 643.762 L183.139 646.563 Z" fill="#000000" fill-rule="evenodd" fill-opacity="1" /><path clip-path="url(#clip700)" d="M195.5 668.09 L203.139 668.09 L203.139 641.725 L194.829 643.391 L194.829 639.132 L203.093 637.465 L207.769 637.465 L207.769 668.09 L215.408 668.09 L215.408 672.025 L195.5 672.025 L195.5 668.09 Z" fill="#000000" fill-rule="evenodd" fill-opacity="1" /><path clip-path="url(#clip700)" d="M234.852 640.544 Q231.241 640.544 229.412 644.109 Q227.607 647.65 227.607 654.78 Q227.607 661.886 229.412 665.451 Q231.241 668.993 234.852 668.993 Q238.486 668.993 240.292 665.451 Q242.121 661.886 242.121 654.78 Q242.121 647.65 240.292 644.109 Q238.486 640.544 234.852 640.544 M234.852 636.84 Q240.662 636.84 243.718 641.447 Q246.796 646.03 246.796 654.78 Q246.796 663.507 243.718 668.113 Q240.662 672.697 234.852 672.697 Q229.042 672.697 225.963 668.113 Q222.908 663.507 222.908 654.78 Q222.908 646.03 225.963 641.447 Q229.042 636.84 234.852 636.84 Z" fill="#000000" fill-rule="evenodd" fill-opacity="1" /><path clip-path="url(#clip700)" d="M246.796 630.942 L270.908 630.942 L270.908 634.139 L246.796 634.139 L246.796 630.942 Z" fill="#000000" fill-rule="evenodd" fill-opacity="1" /><path clip-path="url(#clip700)" d="M279.766 641.418 L285.973 641.418 L285.973 619.996 L279.221 621.35 L279.221 617.889 L285.935 616.535 L289.735 616.535 L289.735 641.418 L295.941 641.418 L295.941 644.615 L279.766 644.615 L279.766 641.418 Z" fill="#000000" fill-rule="evenodd" fill-opacity="1" /><path clip-path="url(#clip700)" d="M50.2234 116.665 L57.8623 116.665 L57.8623 90.299 L49.5521 91.9656 L49.5521 87.7064 L57.816 86.0397 L62.4919 86.0397 L62.4919 116.665 L70.1307 116.665 L70.1307 120.6 L50.2234 120.6 L50.2234 116.665 Z" fill="#000000" fill-rule="evenodd" fill-opacity="1" /><path clip-path="url(#clip700)" d="M79.5751 114.72 L84.4593 114.72 L84.4593 120.6 L79.5751 120.6 L79.5751 114.72 Z" fill="#000000" fill-rule="evenodd" fill-opacity="1" /><path clip-path="url(#clip700)" d="M98.6722 116.665 L114.992 116.665 L114.992 120.6 L93.0473 120.6 L93.0473 116.665 Q95.7093 113.91 100.293 109.28 Q104.899 104.628 106.08 103.285 Q108.325 100.762 109.205 99.0258 Q110.107 97.2665 110.107 95.5767 Q110.107 92.8221 108.163 91.086 Q106.242 89.3499 103.14 89.3499 Q100.941 89.3499 98.487 90.1138 Q96.0565 90.8777 93.2787 92.4286 L93.2787 87.7064 Q96.1028 86.5721 98.5565 85.9934 Q101.01 85.4147 103.047 85.4147 Q108.418 85.4147 111.612 88.0999 Q114.806 90.7851 114.806 95.2758 Q114.806 97.4054 113.996 99.3267 Q113.209 101.225 111.103 103.817 Q110.524 104.489 107.422 107.706 Q104.32 110.901 98.6722 116.665 Z" fill="#000000" fill-rule="evenodd" fill-opacity="1" /><path clip-path="url(#clip700)" d="M134.806 89.1184 Q131.195 89.1184 129.367 92.6832 Q127.561 96.2249 127.561 103.354 Q127.561 110.461 129.367 114.026 Q131.195 117.567 134.806 117.567 Q138.441 117.567 140.246 114.026 Q142.075 110.461 142.075 103.354 Q142.075 96.2249 140.246 92.6832 Q138.441 89.1184 134.806 89.1184 M134.806 85.4147 Q140.616 85.4147 143.672 90.0212 Q146.751 94.6045 146.751 103.354 Q146.751 112.081 143.672 116.688 Q140.616 121.271 134.806 121.271 Q128.996 121.271 125.917 116.688 Q122.862 112.081 122.862 103.354 Q122.862 94.6045 125.917 90.0212 Q128.996 85.4147 134.806 85.4147 Z" fill="#000000" fill-rule="evenodd" fill-opacity="1" /><path clip-path="url(#clip700)" d="M183.139 95.1369 L172.561 105.762 L183.139 116.34 L180.385 119.141 L169.76 108.516 L159.135 119.141 L156.403 116.34 L166.959 105.762 L156.403 95.1369 L159.135 92.336 L169.76 102.961 L180.385 92.336 L183.139 95.1369 Z" fill="#000000" fill-rule="evenodd" fill-opacity="1" /><path clip-path="url(#clip700)" d="M195.5 116.665 L203.139 116.665 L203.139 90.299 L194.829 91.9656 L194.829 87.7064 L203.093 86.0397 L207.769 86.0397 L207.769 116.665 L215.408 116.665 L215.408 120.6 L195.5 120.6 L195.5 116.665 Z" fill="#000000" fill-rule="evenodd" fill-opacity="1" /><path clip-path="url(#clip700)" d="M234.852 89.1184 Q231.241 89.1184 229.412 92.6832 Q227.607 96.2249 227.607 103.354 Q227.607 110.461 229.412 114.026 Q231.241 117.567 234.852 117.567 Q238.486 117.567 240.292 114.026 Q242.121 110.461 242.121 103.354 Q242.121 96.2249 240.292 92.6832 Q238.486 89.1184 234.852 89.1184 M234.852 85.4147 Q240.662 85.4147 243.718 90.0212 Q246.796 94.6045 246.796 103.354 Q246.796 112.081 243.718 116.688 Q240.662 121.271 234.852 121.271 Q229.042 121.271 225.963 116.688 Q222.908 112.081 222.908 103.354 Q222.908 94.6045 225.963 90.0212 Q229.042 85.4147 234.852 85.4147 Z" fill="#000000" fill-rule="evenodd" fill-opacity="1" /><path clip-path="url(#clip700)" d="M246.796 79.5161 L270.908 79.5161 L270.908 82.7134 L246.796 82.7134 L246.796 79.5161 Z" fill="#000000" fill-rule="evenodd" fill-opacity="1" /><path clip-path="url(#clip700)" d="M279.766 89.992 L285.973 89.992 L285.973 68.57 L279.221 69.9241 L279.221 66.4635 L285.935 65.1093 L289.735 65.1093 L289.735 89.992 L295.941 89.992 L295.941 93.1893 L279.766 93.1893 L279.766 89.992 Z" fill="#000000" fill-rule="evenodd" fill-opacity="1" /><polyline clip-path="url(#clip702)" style="stroke:#009af9; stroke-linecap:butt; stroke-linejoin:round; stroke-width:4; stroke-opacity:1; fill:none" points="
  401.483,1751.15 2575.53,96.8734 
  "/>
<path clip-path="url(#clip700)" d="
M2255.45 209.375 L2563.94 209.375 L2563.94 105.695 L2255.45 105.695  Z
  " fill="#ffffff" fill-rule="evenodd" fill-opacity="1"/>
<polyline clip-path="url(#clip700)" style="stroke:#000000; stroke-linecap:butt; stroke-linejoin:round; stroke-width:4; stroke-opacity:1; fill:none" points="
  2255.45,209.375 2563.94,209.375 2563.94,105.695 2255.45,105.695 2255.45,209.375 
  "/>
<polyline clip-path="url(#clip700)" style="stroke:#009af9; stroke-linecap:butt; stroke-linejoin:round; stroke-width:4; stroke-opacity:1; fill:none" points="
  2281.06,157.535 2434.69,157.535 
  "/>
<path clip-path="url(#clip700)" d="M2474.14 177.223 Q2472.34 181.852 2470.62 183.264 Q2468.91 184.676 2466.04 184.676 L2462.64 184.676 L2462.64 181.112 L2465.14 181.112 Q2466.9 181.112 2467.87 180.278 Q2468.84 179.445 2470.02 176.343 L2470.78 174.399 L2460.3 148.889 L2464.81 148.889 L2472.91 169.167 L2481.02 148.889 L2485.53 148.889 L2474.14 177.223 Z" fill="#000000" fill-rule="evenodd" fill-opacity="1" /><path clip-path="url(#clip700)" d="M2492.82 170.88 L2500.46 170.88 L2500.46 144.515 L2492.15 146.181 L2492.15 141.922 L2500.41 140.255 L2505.09 140.255 L2505.09 170.88 L2512.73 170.88 L2512.73 174.815 L2492.82 174.815 L2492.82 170.88 Z" fill="#000000" fill-rule="evenodd" fill-opacity="1" /></svg>
