<?xml version="1.0" encoding="utf-8"?>
<svg xmlns="http://www.w3.org/2000/svg" xmlns:xlink="http://www.w3.org/1999/xlink" width="528" height="432" viewBox="0 0 2112 1728">
<defs>
  <clipPath id="clip280">
    <rect x="0" y="0" width="2112" height="1728"/>
  </clipPath>
</defs>
<path clip-path="url(#clip280)" d="
M0 1728 L2112 1728 L2112 0 L0 0  Z
  " fill="#ffffff" fill-rule="evenodd" fill-opacity="1"/>
<defs>
  <clipPath id="clip281">
    <rect x="422" y="0" width="1479" height="1479"/>
  </clipPath>
</defs>
<path clip-path="url(#clip280)" d="
M330.501 1605.31 L2064.76 1605.31 L2064.76 47.2441 L330.501 47.2441  Z
  " fill="#ffffff" fill-rule="evenodd" fill-opacity="1"/>
<defs>
  <clipPath id="clip282">
    <rect x="330" y="47" width="1735" height="1559"/>
  </clipPath>
</defs>
<polyline clip-path="url(#clip282)" style="stroke:#000000; stroke-linecap:butt; stroke-linejoin:round; stroke-width:2; stroke-opacity:0.1; fill:none" points="
  379.584,1605.31 379.584,47.2438 
  "/>
<polyline clip-path="url(#clip282)" style="stroke:#000000; stroke-linecap:butt; stroke-linejoin:round; stroke-width:2; stroke-opacity:0.1; fill:none" points="
  788.606,1605.31 788.606,47.2438 
  "/>
<polyline clip-path="url(#clip282)" style="stroke:#000000; stroke-linecap:butt; stroke-linejoin:round; stroke-width:2; stroke-opacity:0.1; fill:none" points="
  1197.63,1605.31 1197.63,47.2438 
  "/>
<polyline clip-path="url(#clip282)" style="stroke:#000000; stroke-linecap:butt; stroke-linejoin:round; stroke-width:2; stroke-opacity:0.1; fill:none" points="
  1606.65,1605.31 1606.65,47.2438 
  "/>
<polyline clip-path="url(#clip282)" style="stroke:#000000; stroke-linecap:butt; stroke-linejoin:round; stroke-width:2; stroke-opacity:0.1; fill:none" points="
  2015.67,1605.31 2015.67,47.2438 
  "/>
<polyline clip-path="url(#clip280)" style="stroke:#000000; stroke-linecap:butt; stroke-linejoin:round; stroke-width:4; stroke-opacity:1; fill:none" points="
  330.501,1605.31 2064.76,1605.31 
  "/>
<polyline clip-path="url(#clip280)" style="stroke:#000000; stroke-linecap:butt; stroke-linejoin:round; stroke-width:4; stroke-opacity:1; fill:none" points="
  379.584,1605.31 379.584,1586.42 
  "/>
<polyline clip-path="url(#clip280)" style="stroke:#000000; stroke-linecap:butt; stroke-linejoin:round; stroke-width:4; stroke-opacity:1; fill:none" points="
  788.606,1605.31 788.606,1586.42 
  "/>
<polyline clip-path="url(#clip280)" style="stroke:#000000; stroke-linecap:butt; stroke-linejoin:round; stroke-width:4; stroke-opacity:1; fill:none" points="
  1197.63,1605.31 1197.63,1586.42 
  "/>
<polyline clip-path="url(#clip280)" style="stroke:#000000; stroke-linecap:butt; stroke-linejoin:round; stroke-width:4; stroke-opacity:1; fill:none" points="
  1606.65,1605.31 1606.65,1586.42 
  "/>
<polyline clip-path="url(#clip280)" style="stroke:#000000; stroke-linecap:butt; stroke-linejoin:round; stroke-width:4; stroke-opacity:1; fill:none" points="
  2015.67,1605.31 2015.67,1586.42 
  "/>
<path clip-path="url(#clip280)" d="M341.887 1633.93 Q338.276 1633.93 336.447 1637.49 Q334.642 1641.03 334.642 1648.16 Q334.642 1655.27 336.447 1658.84 Q338.276 1662.38 341.887 1662.38 Q345.522 1662.38 347.327 1658.84 Q349.156 1655.27 349.156 1648.16 Q349.156 1641.03 347.327 1637.49 Q345.522 1633.93 341.887 1633.93 M341.887 1630.22 Q347.697 1630.22 350.753 1634.83 Q353.832 1639.41 353.832 1648.16 Q353.832 1656.89 350.753 1661.5 Q347.697 1666.08 341.887 1666.08 Q336.077 1666.08 332.998 1661.5 Q329.943 1656.89 329.943 1648.16 Q329.943 1639.41 332.998 1634.83 Q336.077 1630.22 341.887 1630.22 Z" fill="#000000" fill-rule="evenodd" fill-opacity="1" /><path clip-path="url(#clip280)" d="M362.049 1659.53 L366.933 1659.53 L366.933 1665.41 L362.049 1665.41 L362.049 1659.53 Z" fill="#000000" fill-rule="evenodd" fill-opacity="1" /><path clip-path="url(#clip280)" d="M387.119 1633.93 Q383.507 1633.93 381.679 1637.49 Q379.873 1641.03 379.873 1648.16 Q379.873 1655.27 381.679 1658.84 Q383.507 1662.38 387.119 1662.38 Q390.753 1662.38 392.558 1658.84 Q394.387 1655.27 394.387 1648.16 Q394.387 1641.03 392.558 1637.49 Q390.753 1633.93 387.119 1633.93 M387.119 1630.22 Q392.929 1630.22 395.984 1634.83 Q399.063 1639.41 399.063 1648.16 Q399.063 1656.89 395.984 1661.5 Q392.929 1666.08 387.119 1666.08 Q381.308 1666.08 378.23 1661.5 Q375.174 1656.89 375.174 1648.16 Q375.174 1639.41 378.23 1634.83 Q381.308 1630.22 387.119 1630.22 Z" fill="#000000" fill-rule="evenodd" fill-opacity="1" /><path clip-path="url(#clip280)" d="M417.28 1633.93 Q413.669 1633.93 411.841 1637.49 Q410.035 1641.03 410.035 1648.16 Q410.035 1655.27 411.841 1658.84 Q413.669 1662.38 417.28 1662.38 Q420.915 1662.38 422.72 1658.84 Q424.549 1655.27 424.549 1648.16 Q424.549 1641.03 422.72 1637.49 Q420.915 1633.93 417.28 1633.93 M417.28 1630.22 Q423.091 1630.22 426.146 1634.83 Q429.225 1639.41 429.225 1648.16 Q429.225 1656.89 426.146 1661.5 Q423.091 1666.08 417.28 1666.08 Q411.47 1666.08 408.392 1661.5 Q405.336 1656.89 405.336 1648.16 Q405.336 1639.41 408.392 1634.83 Q411.47 1630.22 417.28 1630.22 Z" fill="#000000" fill-rule="evenodd" fill-opacity="1" /><path clip-path="url(#clip280)" d="M751.407 1633.93 Q747.796 1633.93 745.968 1637.49 Q744.162 1641.03 744.162 1648.16 Q744.162 1655.27 745.968 1658.84 Q747.796 1662.38 751.407 1662.38 Q755.042 1662.38 756.847 1658.84 Q758.676 1655.27 758.676 1648.16 Q758.676 1641.03 756.847 1637.49 Q755.042 1633.93 751.407 1633.93 M751.407 1630.22 Q757.217 1630.22 760.273 1634.83 Q763.352 1639.41 763.352 1648.16 Q763.352 1656.89 760.273 1661.5 Q757.217 1666.08 751.407 1666.08 Q745.597 1666.08 742.518 1661.5 Q739.463 1656.89 739.463 1648.16 Q739.463 1639.41 742.518 1634.83 Q745.597 1630.22 751.407 1630.22 Z" fill="#000000" fill-rule="evenodd" fill-opacity="1" /><path clip-path="url(#clip280)" d="M771.569 1659.53 L776.453 1659.53 L776.453 1665.41 L771.569 1665.41 L771.569 1659.53 Z" fill="#000000" fill-rule="evenodd" fill-opacity="1" /><path clip-path="url(#clip280)" d="M790.666 1661.47 L806.986 1661.47 L806.986 1665.41 L785.041 1665.41 L785.041 1661.47 Q787.703 1658.72 792.287 1654.09 Q796.893 1649.44 798.074 1648.09 Q800.319 1645.57 801.199 1643.84 Q802.101 1642.08 802.101 1640.39 Q802.101 1637.63 800.157 1635.9 Q798.236 1634.16 795.134 1634.16 Q792.935 1634.16 790.481 1634.92 Q788.051 1635.69 785.273 1637.24 L785.273 1632.52 Q788.097 1631.38 790.551 1630.8 Q793.004 1630.22 795.041 1630.22 Q800.412 1630.22 803.606 1632.91 Q806.801 1635.59 806.801 1640.09 Q806.801 1642.22 805.99 1644.14 Q805.203 1646.03 803.097 1648.63 Q802.518 1649.3 799.416 1652.52 Q796.314 1655.71 790.666 1661.47 Z" fill="#000000" fill-rule="evenodd" fill-opacity="1" /><path clip-path="url(#clip280)" d="M816.847 1630.85 L835.203 1630.85 L835.203 1634.78 L821.129 1634.78 L821.129 1643.26 Q822.148 1642.91 823.166 1642.75 Q824.185 1642.56 825.203 1642.56 Q830.99 1642.56 834.37 1645.73 Q837.749 1648.9 837.749 1654.32 Q837.749 1659.9 834.277 1663 Q830.805 1666.08 824.486 1666.08 Q822.31 1666.08 820.041 1665.71 Q817.796 1665.34 815.388 1664.6 L815.388 1659.9 Q817.472 1661.03 819.694 1661.59 Q821.916 1662.15 824.393 1662.15 Q828.398 1662.15 830.736 1660.04 Q833.074 1657.93 833.074 1654.32 Q833.074 1650.71 830.736 1648.6 Q828.398 1646.5 824.393 1646.5 Q822.518 1646.5 820.643 1646.91 Q818.791 1647.33 816.847 1648.21 L816.847 1630.85 Z" fill="#000000" fill-rule="evenodd" fill-opacity="1" /><path clip-path="url(#clip280)" d="M1159.93 1633.93 Q1156.32 1633.93 1154.49 1637.49 Q1152.69 1641.03 1152.69 1648.16 Q1152.69 1655.27 1154.49 1658.84 Q1156.32 1662.38 1159.93 1662.38 Q1163.57 1662.38 1165.37 1658.84 Q1167.2 1655.27 1167.2 1648.16 Q1167.2 1641.03 1165.37 1637.49 Q1163.57 1633.93 1159.93 1633.93 M1159.93 1630.22 Q1165.74 1630.22 1168.8 1634.83 Q1171.88 1639.41 1171.88 1648.16 Q1171.88 1656.89 1168.8 1661.5 Q1165.74 1666.08 1159.93 1666.08 Q1154.12 1666.08 1151.04 1661.5 Q1147.99 1656.89 1147.99 1648.16 Q1147.99 1639.41 1151.04 1634.83 Q1154.12 1630.22 1159.93 1630.22 Z" fill="#000000" fill-rule="evenodd" fill-opacity="1" /><path clip-path="url(#clip280)" d="M1180.09 1659.53 L1184.98 1659.53 L1184.98 1665.41 L1180.09 1665.41 L1180.09 1659.53 Z" fill="#000000" fill-rule="evenodd" fill-opacity="1" /><path clip-path="url(#clip280)" d="M1195.21 1630.85 L1213.57 1630.85 L1213.57 1634.78 L1199.49 1634.78 L1199.49 1643.26 Q1200.51 1642.91 1201.53 1642.75 Q1202.55 1642.56 1203.57 1642.56 Q1209.35 1642.56 1212.73 1645.73 Q1216.11 1648.9 1216.11 1654.32 Q1216.11 1659.9 1212.64 1663 Q1209.17 1666.08 1202.85 1666.08 Q1200.67 1666.08 1198.4 1665.71 Q1196.16 1665.34 1193.75 1664.6 L1193.75 1659.9 Q1195.83 1661.03 1198.06 1661.59 Q1200.28 1662.15 1202.76 1662.15 Q1206.76 1662.15 1209.1 1660.04 Q1211.44 1657.93 1211.44 1654.32 Q1211.44 1650.71 1209.1 1648.6 Q1206.76 1646.5 1202.76 1646.5 Q1200.88 1646.5 1199.01 1646.91 Q1197.15 1647.33 1195.21 1648.21 L1195.21 1630.85 Z" fill="#000000" fill-rule="evenodd" fill-opacity="1" /><path clip-path="url(#clip280)" d="M1235.33 1633.93 Q1231.71 1633.93 1229.89 1637.49 Q1228.08 1641.03 1228.08 1648.16 Q1228.08 1655.27 1229.89 1658.84 Q1231.71 1662.38 1235.33 1662.38 Q1238.96 1662.38 1240.76 1658.84 Q1242.59 1655.27 1242.59 1648.16 Q1242.59 1641.03 1240.76 1637.49 Q1238.96 1633.93 1235.33 1633.93 M1235.33 1630.22 Q1241.14 1630.22 1244.19 1634.83 Q1247.27 1639.41 1247.27 1648.16 Q1247.27 1656.89 1244.19 1661.5 Q1241.14 1666.08 1235.33 1666.08 Q1229.51 1666.08 1226.44 1661.5 Q1223.38 1656.89 1223.38 1648.16 Q1223.38 1639.41 1226.44 1634.83 Q1229.51 1630.22 1235.33 1630.22 Z" fill="#000000" fill-rule="evenodd" fill-opacity="1" /><path clip-path="url(#clip280)" d="M1569.45 1633.93 Q1565.84 1633.93 1564.01 1637.49 Q1562.21 1641.03 1562.21 1648.16 Q1562.21 1655.27 1564.01 1658.84 Q1565.84 1662.38 1569.45 1662.38 Q1573.09 1662.38 1574.89 1658.84 Q1576.72 1655.27 1576.72 1648.16 Q1576.72 1641.03 1574.89 1637.49 Q1573.09 1633.93 1569.45 1633.93 M1569.45 1630.22 Q1575.26 1630.22 1578.32 1634.83 Q1581.4 1639.41 1581.4 1648.16 Q1581.4 1656.89 1578.32 1661.5 Q1575.26 1666.08 1569.45 1666.08 Q1563.64 1666.08 1560.56 1661.5 Q1557.51 1656.89 1557.51 1648.16 Q1557.51 1639.41 1560.56 1634.83 Q1563.64 1630.22 1569.45 1630.22 Z" fill="#000000" fill-rule="evenodd" fill-opacity="1" /><path clip-path="url(#clip280)" d="M1589.61 1659.53 L1594.5 1659.53 L1594.5 1665.41 L1589.61 1665.41 L1589.61 1659.53 Z" fill="#000000" fill-rule="evenodd" fill-opacity="1" /><path clip-path="url(#clip280)" d="M1603.5 1630.85 L1625.72 1630.85 L1625.72 1632.84 L1613.18 1665.41 L1608.29 1665.41 L1620.1 1634.78 L1603.5 1634.78 L1603.5 1630.85 Z" fill="#000000" fill-rule="evenodd" fill-opacity="1" /><path clip-path="url(#clip280)" d="M1634.89 1630.85 L1653.25 1630.85 L1653.25 1634.78 L1639.17 1634.78 L1639.17 1643.26 Q1640.19 1642.91 1641.21 1642.75 Q1642.23 1642.56 1643.25 1642.56 Q1649.03 1642.56 1652.41 1645.73 Q1655.79 1648.9 1655.79 1654.32 Q1655.79 1659.9 1652.32 1663 Q1648.85 1666.08 1642.53 1666.08 Q1640.35 1666.08 1638.09 1665.71 Q1635.84 1665.34 1633.43 1664.6 L1633.43 1659.9 Q1635.52 1661.03 1637.74 1661.59 Q1639.96 1662.15 1642.44 1662.15 Q1646.44 1662.15 1648.78 1660.04 Q1651.12 1657.93 1651.12 1654.32 Q1651.12 1650.71 1648.78 1648.6 Q1646.44 1646.5 1642.44 1646.5 Q1640.56 1646.5 1638.69 1646.91 Q1636.84 1647.33 1634.89 1648.21 L1634.89 1630.85 Z" fill="#000000" fill-rule="evenodd" fill-opacity="1" /><path clip-path="url(#clip280)" d="M1967.75 1661.47 L1975.38 1661.47 L1975.38 1635.11 L1967.07 1636.78 L1967.07 1632.52 L1975.34 1630.85 L1980.01 1630.85 L1980.01 1661.47 L1987.65 1661.47 L1987.65 1665.41 L1967.75 1665.41 L1967.75 1661.47 Z" fill="#000000" fill-rule="evenodd" fill-opacity="1" /><path clip-path="url(#clip280)" d="M1997.1 1659.53 L2001.98 1659.53 L2001.98 1665.41 L1997.1 1665.41 L1997.1 1659.53 Z" fill="#000000" fill-rule="evenodd" fill-opacity="1" /><path clip-path="url(#clip280)" d="M2022.17 1633.93 Q2018.56 1633.93 2016.73 1637.49 Q2014.92 1641.03 2014.92 1648.16 Q2014.92 1655.27 2016.73 1658.84 Q2018.56 1662.38 2022.17 1662.38 Q2025.8 1662.38 2027.61 1658.84 Q2029.43 1655.27 2029.43 1648.16 Q2029.43 1641.03 2027.61 1637.49 Q2025.8 1633.93 2022.17 1633.93 M2022.17 1630.22 Q2027.98 1630.22 2031.03 1634.83 Q2034.11 1639.41 2034.11 1648.16 Q2034.11 1656.89 2031.03 1661.5 Q2027.98 1666.08 2022.17 1666.08 Q2016.36 1666.08 2013.28 1661.5 Q2010.22 1656.89 2010.22 1648.16 Q2010.22 1639.41 2013.28 1634.83 Q2016.36 1630.22 2022.17 1630.22 Z" fill="#000000" fill-rule="evenodd" fill-opacity="1" /><path clip-path="url(#clip280)" d="M2052.33 1633.93 Q2048.72 1633.93 2046.89 1637.49 Q2045.08 1641.03 2045.08 1648.16 Q2045.08 1655.27 2046.89 1658.84 Q2048.72 1662.38 2052.33 1662.38 Q2055.96 1662.38 2057.77 1658.84 Q2059.6 1655.27 2059.6 1648.16 Q2059.6 1641.03 2057.77 1637.49 Q2055.96 1633.93 2052.33 1633.93 M2052.33 1630.22 Q2058.14 1630.22 2061.19 1634.83 Q2064.27 1639.41 2064.27 1648.16 Q2064.27 1656.89 2061.19 1661.5 Q2058.14 1666.08 2052.33 1666.08 Q2046.52 1666.08 2043.44 1661.5 Q2040.38 1656.89 2040.38 1648.16 Q2040.38 1639.41 2043.44 1634.83 Q2046.52 1630.22 2052.33 1630.22 Z" fill="#000000" fill-rule="evenodd" fill-opacity="1" /><polyline clip-path="url(#clip282)" style="stroke:#000000; stroke-linecap:butt; stroke-linejoin:round; stroke-width:2; stroke-opacity:0.1; fill:none" points="
  330.501,1561.22 2064.76,1561.22 
  "/>
<polyline clip-path="url(#clip282)" style="stroke:#000000; stroke-linecap:butt; stroke-linejoin:round; stroke-width:2; stroke-opacity:0.1; fill:none" points="
  330.501,1071.26 2064.76,1071.26 
  "/>
<polyline clip-path="url(#clip282)" style="stroke:#000000; stroke-linecap:butt; stroke-linejoin:round; stroke-width:2; stroke-opacity:0.1; fill:none" points="
  330.501,581.298 2064.76,581.298 
  "/>
<polyline clip-path="url(#clip282)" style="stroke:#000000; stroke-linecap:butt; stroke-linejoin:round; stroke-width:2; stroke-opacity:0.1; fill:none" points="
  330.501,91.3398 2064.76,91.3398 
  "/>
<polyline clip-path="url(#clip280)" style="stroke:#000000; stroke-linecap:butt; stroke-linejoin:round; stroke-width:4; stroke-opacity:1; fill:none" points="
  330.501,1605.31 330.501,47.2438 
  "/>
<polyline clip-path="url(#clip280)" style="stroke:#000000; stroke-linecap:butt; stroke-linejoin:round; stroke-width:4; stroke-opacity:1; fill:none" points="
  330.501,1561.22 349.399,1561.22 
  "/>
<polyline clip-path="url(#clip280)" style="stroke:#000000; stroke-linecap:butt; stroke-linejoin:round; stroke-width:4; stroke-opacity:1; fill:none" points="
  330.501,1071.26 349.399,1071.26 
  "/>
<polyline clip-path="url(#clip280)" style="stroke:#000000; stroke-linecap:butt; stroke-linejoin:round; stroke-width:4; stroke-opacity:1; fill:none" points="
  330.501,581.298 349.399,581.298 
  "/>
<polyline clip-path="url(#clip280)" style="stroke:#000000; stroke-linecap:butt; stroke-linejoin:round; stroke-width:4; stroke-opacity:1; fill:none" points="
  330.501,91.3398 349.399,91.3398 
  "/>
<path clip-path="url(#clip280)" d="M53.1034 1581.01 L60.7423 1581.01 L60.7423 1554.64 L52.4321 1556.31 L52.4321 1552.05 L60.696 1550.38 L65.3719 1550.38 L65.3719 1581.01 L73.0107 1581.01 L73.0107 1584.94 L53.1034 1584.94 L53.1034 1581.01 Z" fill="#000000" fill-rule="evenodd" fill-opacity="1" /><path clip-path="url(#clip280)" d="M82.4551 1579.06 L87.3393 1579.06 L87.3393 1584.94 L82.4551 1584.94 L82.4551 1579.06 Z" fill="#000000" fill-rule="evenodd" fill-opacity="1" /><path clip-path="url(#clip280)" d="M101.552 1581.01 L117.872 1581.01 L117.872 1584.94 L95.9273 1584.94 L95.9273 1581.01 Q98.5893 1578.25 103.173 1573.62 Q107.779 1568.97 108.96 1567.63 Q111.205 1565.11 112.085 1563.37 Q112.987 1561.61 112.987 1559.92 Q112.987 1557.17 111.043 1555.43 Q109.122 1553.69 106.02 1553.69 Q103.821 1553.69 101.367 1554.46 Q98.9365 1555.22 96.1587 1556.77 L96.1587 1552.05 Q98.9828 1550.92 101.436 1550.34 Q103.89 1549.76 105.927 1549.76 Q111.298 1549.76 114.492 1552.44 Q117.686 1555.13 117.686 1559.62 Q117.686 1561.75 116.876 1563.67 Q116.089 1565.57 113.983 1568.16 Q113.404 1568.83 110.302 1572.05 Q107.2 1575.25 101.552 1581.01 Z" fill="#000000" fill-rule="evenodd" fill-opacity="1" /><path clip-path="url(#clip280)" d="M137.686 1553.46 Q134.075 1553.46 132.247 1557.03 Q130.441 1560.57 130.441 1567.7 Q130.441 1574.81 132.247 1578.37 Q134.075 1581.91 137.686 1581.91 Q141.321 1581.91 143.126 1578.37 Q144.955 1574.81 144.955 1567.7 Q144.955 1560.57 143.126 1557.03 Q141.321 1553.46 137.686 1553.46 M137.686 1549.76 Q143.496 1549.76 146.552 1554.37 Q149.631 1558.95 149.631 1567.7 Q149.631 1576.43 146.552 1581.03 Q143.496 1585.62 137.686 1585.62 Q131.876 1585.62 128.797 1581.03 Q125.742 1576.43 125.742 1567.7 Q125.742 1558.95 128.797 1554.37 Q131.876 1549.76 137.686 1549.76 Z" fill="#000000" fill-rule="evenodd" fill-opacity="1" /><path clip-path="url(#clip280)" d="M186.019 1559.48 L175.441 1570.11 L186.019 1580.68 L183.265 1583.49 L172.64 1572.86 L162.015 1583.49 L159.283 1580.68 L169.839 1570.11 L159.283 1559.48 L162.015 1556.68 L172.64 1567.31 L183.265 1556.68 L186.019 1559.48 Z" fill="#000000" fill-rule="evenodd" fill-opacity="1" /><path clip-path="url(#clip280)" d="M198.38 1581.01 L206.019 1581.01 L206.019 1554.64 L197.709 1556.31 L197.709 1552.05 L205.973 1550.38 L210.649 1550.38 L210.649 1581.01 L218.288 1581.01 L218.288 1584.94 L198.38 1584.94 L198.38 1581.01 Z" fill="#000000" fill-rule="evenodd" fill-opacity="1" /><path clip-path="url(#clip280)" d="M237.732 1553.46 Q234.121 1553.46 232.292 1557.03 Q230.487 1560.57 230.487 1567.7 Q230.487 1574.81 232.292 1578.37 Q234.121 1581.91 237.732 1581.91 Q241.366 1581.91 243.172 1578.37 Q245.001 1574.81 245.001 1567.7 Q245.001 1560.57 243.172 1557.03 Q241.366 1553.46 237.732 1553.46 M237.732 1549.76 Q243.542 1549.76 246.598 1554.37 Q249.676 1558.95 249.676 1567.7 Q249.676 1576.43 246.598 1581.03 Q243.542 1585.62 237.732 1585.62 Q231.922 1585.62 228.843 1581.03 Q225.788 1576.43 225.788 1567.7 Q225.788 1558.95 228.843 1554.37 Q231.922 1549.76 237.732 1549.76 Z" fill="#000000" fill-rule="evenodd" fill-opacity="1" /><path clip-path="url(#clip280)" d="M249.676 1543.86 L273.788 1543.86 L273.788 1547.06 L249.676 1547.06 L249.676 1543.86 Z" fill="#000000" fill-rule="evenodd" fill-opacity="1" /><path clip-path="url(#clip280)" d="M282.646 1554.34 L288.853 1554.34 L288.853 1532.91 L282.101 1534.27 L282.101 1530.81 L288.815 1529.45 L292.615 1529.45 L292.615 1554.34 L298.821 1554.34 L298.821 1557.53 L282.646 1557.53 L282.646 1554.34 Z" fill="#000000" fill-rule="evenodd" fill-opacity="1" /><path clip-path="url(#clip280)" d="M53.1034 1091.05 L60.7423 1091.05 L60.7423 1064.68 L52.4321 1066.35 L52.4321 1062.09 L60.696 1060.43 L65.3719 1060.43 L65.3719 1091.05 L73.0107 1091.05 L73.0107 1094.99 L53.1034 1094.99 L53.1034 1091.05 Z" fill="#000000" fill-rule="evenodd" fill-opacity="1" /><path clip-path="url(#clip280)" d="M82.4551 1089.11 L87.3393 1089.11 L87.3393 1094.99 L82.4551 1094.99 L82.4551 1089.11 Z" fill="#000000" fill-rule="evenodd" fill-opacity="1" /><path clip-path="url(#clip280)" d="M101.552 1091.05 L117.872 1091.05 L117.872 1094.99 L95.9273 1094.99 L95.9273 1091.05 Q98.5893 1088.3 103.173 1083.67 Q107.779 1079.01 108.96 1077.67 Q111.205 1075.15 112.085 1073.41 Q112.987 1071.65 112.987 1069.96 Q112.987 1067.21 111.043 1065.47 Q109.122 1063.74 106.02 1063.74 Q103.821 1063.74 101.367 1064.5 Q98.9365 1065.26 96.1587 1066.81 L96.1587 1062.09 Q98.9828 1060.96 101.436 1060.38 Q103.89 1059.8 105.927 1059.8 Q111.298 1059.8 114.492 1062.49 Q117.686 1065.17 117.686 1069.66 Q117.686 1071.79 116.876 1073.71 Q116.089 1075.61 113.983 1078.2 Q113.404 1078.87 110.302 1082.09 Q107.2 1085.29 101.552 1091.05 Z" fill="#000000" fill-rule="evenodd" fill-opacity="1" /><path clip-path="url(#clip280)" d="M137.686 1063.5 Q134.075 1063.5 132.247 1067.07 Q130.441 1070.61 130.441 1077.74 Q130.441 1084.85 132.247 1088.41 Q134.075 1091.95 137.686 1091.95 Q141.321 1091.95 143.126 1088.41 Q144.955 1084.85 144.955 1077.74 Q144.955 1070.61 143.126 1067.07 Q141.321 1063.5 137.686 1063.5 M137.686 1059.8 Q143.496 1059.8 146.552 1064.41 Q149.631 1068.99 149.631 1077.74 Q149.631 1086.47 146.552 1091.07 Q143.496 1095.66 137.686 1095.66 Q131.876 1095.66 128.797 1091.07 Q125.742 1086.47 125.742 1077.74 Q125.742 1068.99 128.797 1064.41 Q131.876 1059.8 137.686 1059.8 Z" fill="#000000" fill-rule="evenodd" fill-opacity="1" /><path clip-path="url(#clip280)" d="M186.019 1069.52 L175.441 1080.15 L186.019 1090.73 L183.265 1093.53 L172.64 1082.9 L162.015 1093.53 L159.283 1090.73 L169.839 1080.15 L159.283 1069.52 L162.015 1066.72 L172.64 1077.35 L183.265 1066.72 L186.019 1069.52 Z" fill="#000000" fill-rule="evenodd" fill-opacity="1" /><path clip-path="url(#clip280)" d="M198.38 1091.05 L206.019 1091.05 L206.019 1064.68 L197.709 1066.35 L197.709 1062.09 L205.973 1060.43 L210.649 1060.43 L210.649 1091.05 L218.288 1091.05 L218.288 1094.99 L198.38 1094.99 L198.38 1091.05 Z" fill="#000000" fill-rule="evenodd" fill-opacity="1" /><path clip-path="url(#clip280)" d="M237.732 1063.5 Q234.121 1063.5 232.292 1067.07 Q230.487 1070.61 230.487 1077.74 Q230.487 1084.85 232.292 1088.41 Q234.121 1091.95 237.732 1091.95 Q241.366 1091.95 243.172 1088.41 Q245.001 1084.85 245.001 1077.74 Q245.001 1070.61 243.172 1067.07 Q241.366 1063.5 237.732 1063.5 M237.732 1059.8 Q243.542 1059.8 246.598 1064.41 Q249.676 1068.99 249.676 1077.74 Q249.676 1086.47 246.598 1091.07 Q243.542 1095.66 237.732 1095.66 Q231.922 1095.66 228.843 1091.07 Q225.788 1086.47 225.788 1077.74 Q225.788 1068.99 228.843 1064.41 Q231.922 1059.8 237.732 1059.8 Z" fill="#000000" fill-rule="evenodd" fill-opacity="1" /><path clip-path="url(#clip280)" d="M249.676 1053.9 L273.788 1053.9 L273.788 1057.1 L249.676 1057.1 L249.676 1053.9 Z" fill="#000000" fill-rule="evenodd" fill-opacity="1" /><path clip-path="url(#clip280)" d="M282.646 1064.38 L288.853 1064.38 L288.853 1042.96 L282.101 1044.31 L282.101 1040.85 L288.815 1039.5 L292.615 1039.5 L292.615 1064.38 L298.821 1064.38 L298.821 1067.58 L282.646 1067.58 L282.646 1064.38 Z" fill="#000000" fill-rule="evenodd" fill-opacity="1" /><path clip-path="url(#clip280)" d="M53.1034 601.091 L60.7423 601.091 L60.7423 574.725 L52.4321 576.392 L52.4321 572.133 L60.696 570.466 L65.3719 570.466 L65.3719 601.091 L73.0107 601.091 L73.0107 605.026 L53.1034 605.026 L53.1034 601.091 Z" fill="#000000" fill-rule="evenodd" fill-opacity="1" /><path clip-path="url(#clip280)" d="M82.4551 599.146 L87.3393 599.146 L87.3393 605.026 L82.4551 605.026 L82.4551 599.146 Z" fill="#000000" fill-rule="evenodd" fill-opacity="1" /><path clip-path="url(#clip280)" d="M101.552 601.091 L117.872 601.091 L117.872 605.026 L95.9273 605.026 L95.9273 601.091 Q98.5893 598.336 103.173 593.707 Q107.779 589.054 108.96 587.711 Q111.205 585.188 112.085 583.452 Q112.987 581.693 112.987 580.003 Q112.987 577.248 111.043 575.512 Q109.122 573.776 106.02 573.776 Q103.821 573.776 101.367 574.54 Q98.9365 575.304 96.1587 576.855 L96.1587 572.133 Q98.9828 570.998 101.436 570.42 Q103.89 569.841 105.927 569.841 Q111.298 569.841 114.492 572.526 Q117.686 575.211 117.686 579.702 Q117.686 581.832 116.876 583.753 Q116.089 585.651 113.983 588.244 Q113.404 588.915 110.302 592.132 Q107.2 595.327 101.552 601.091 Z" fill="#000000" fill-rule="evenodd" fill-opacity="1" /><path clip-path="url(#clip280)" d="M137.686 573.545 Q134.075 573.545 132.247 577.109 Q130.441 580.651 130.441 587.781 Q130.441 594.887 132.247 598.452 Q134.075 601.994 137.686 601.994 Q141.321 601.994 143.126 598.452 Q144.955 594.887 144.955 587.781 Q144.955 580.651 143.126 577.109 Q141.321 573.545 137.686 573.545 M137.686 569.841 Q143.496 569.841 146.552 574.447 Q149.631 579.031 149.631 587.781 Q149.631 596.507 146.552 601.114 Q143.496 605.697 137.686 605.697 Q131.876 605.697 128.797 601.114 Q125.742 596.507 125.742 587.781 Q125.742 579.031 128.797 574.447 Q131.876 569.841 137.686 569.841 Z" fill="#000000" fill-rule="evenodd" fill-opacity="1" /><path clip-path="url(#clip280)" d="M186.019 579.563 L175.441 590.188 L186.019 600.767 L183.265 603.568 L172.64 592.943 L162.015 603.568 L159.283 600.767 L169.839 590.188 L159.283 579.563 L162.015 576.762 L172.64 587.387 L183.265 576.762 L186.019 579.563 Z" fill="#000000" fill-rule="evenodd" fill-opacity="1" /><path clip-path="url(#clip280)" d="M198.38 601.091 L206.019 601.091 L206.019 574.725 L197.709 576.392 L197.709 572.133 L205.973 570.466 L210.649 570.466 L210.649 601.091 L218.288 601.091 L218.288 605.026 L198.38 605.026 L198.38 601.091 Z" fill="#000000" fill-rule="evenodd" fill-opacity="1" /><path clip-path="url(#clip280)" d="M237.732 573.545 Q234.121 573.545 232.292 577.109 Q230.487 580.651 230.487 587.781 Q230.487 594.887 232.292 598.452 Q234.121 601.994 237.732 601.994 Q241.366 601.994 243.172 598.452 Q245.001 594.887 245.001 587.781 Q245.001 580.651 243.172 577.109 Q241.366 573.545 237.732 573.545 M237.732 569.841 Q243.542 569.841 246.598 574.447 Q249.676 579.031 249.676 587.781 Q249.676 596.507 246.598 601.114 Q243.542 605.697 237.732 605.697 Q231.922 605.697 228.843 601.114 Q225.788 596.507 225.788 587.781 Q225.788 579.031 228.843 574.447 Q231.922 569.841 237.732 569.841 Z" fill="#000000" fill-rule="evenodd" fill-opacity="1" /><path clip-path="url(#clip280)" d="M249.676 563.942 L273.788 563.942 L273.788 567.14 L249.676 567.14 L249.676 563.942 Z" fill="#000000" fill-rule="evenodd" fill-opacity="1" /><path clip-path="url(#clip280)" d="M282.646 574.418 L288.853 574.418 L288.853 552.996 L282.101 554.35 L282.101 550.89 L288.815 549.536 L292.615 549.536 L292.615 574.418 L298.821 574.418 L298.821 577.616 L282.646 577.616 L282.646 574.418 Z" fill="#000000" fill-rule="evenodd" fill-opacity="1" /><path clip-path="url(#clip280)" d="M53.1034 111.132 L60.7423 111.132 L60.7423 84.7666 L52.4321 86.4333 L52.4321 82.174 L60.696 80.5074 L65.3719 80.5074 L65.3719 111.132 L73.0107 111.132 L73.0107 115.067 L53.1034 115.067 L53.1034 111.132 Z" fill="#000000" fill-rule="evenodd" fill-opacity="1" /><path clip-path="url(#clip280)" d="M82.4551 109.188 L87.3393 109.188 L87.3393 115.067 L82.4551 115.067 L82.4551 109.188 Z" fill="#000000" fill-rule="evenodd" fill-opacity="1" /><path clip-path="url(#clip280)" d="M101.552 111.132 L117.872 111.132 L117.872 115.067 L95.9273 115.067 L95.9273 111.132 Q98.5893 108.378 103.173 103.748 Q107.779 99.0952 108.96 97.7527 Q111.205 95.2295 112.085 93.4934 Q112.987 91.7342 112.987 90.0444 Q112.987 87.2898 111.043 85.5537 Q109.122 83.8176 106.02 83.8176 Q103.821 83.8176 101.367 84.5814 Q98.9365 85.3453 96.1587 86.8962 L96.1587 82.174 Q98.9828 81.0398 101.436 80.4611 Q103.89 79.8824 105.927 79.8824 Q111.298 79.8824 114.492 82.5676 Q117.686 85.2527 117.686 89.7434 Q117.686 91.8731 116.876 93.7943 Q116.089 95.6925 113.983 98.2851 Q113.404 98.9564 110.302 102.174 Q107.2 105.368 101.552 111.132 Z" fill="#000000" fill-rule="evenodd" fill-opacity="1" /><path clip-path="url(#clip280)" d="M137.686 83.5861 Q134.075 83.5861 132.247 87.1509 Q130.441 90.6925 130.441 97.8221 Q130.441 104.929 132.247 108.493 Q134.075 112.035 137.686 112.035 Q141.321 112.035 143.126 108.493 Q144.955 104.929 144.955 97.8221 Q144.955 90.6925 143.126 87.1509 Q141.321 83.5861 137.686 83.5861 M137.686 79.8824 Q143.496 79.8824 146.552 84.4888 Q149.631 89.0722 149.631 97.8221 Q149.631 106.549 146.552 111.155 Q143.496 115.739 137.686 115.739 Q131.876 115.739 128.797 111.155 Q125.742 106.549 125.742 97.8221 Q125.742 89.0722 128.797 84.4888 Q131.876 79.8824 137.686 79.8824 Z" fill="#000000" fill-rule="evenodd" fill-opacity="1" /><path clip-path="url(#clip280)" d="M186.019 89.6046 L175.441 100.229 L186.019 110.808 L183.265 113.609 L172.64 102.984 L162.015 113.609 L159.283 110.808 L169.839 100.229 L159.283 89.6046 L162.015 86.8036 L172.64 97.4286 L183.265 86.8036 L186.019 89.6046 Z" fill="#000000" fill-rule="evenodd" fill-opacity="1" /><path clip-path="url(#clip280)" d="M198.38 111.132 L206.019 111.132 L206.019 84.7666 L197.709 86.4333 L197.709 82.174 L205.973 80.5074 L210.649 80.5074 L210.649 111.132 L218.288 111.132 L218.288 115.067 L198.38 115.067 L198.38 111.132 Z" fill="#000000" fill-rule="evenodd" fill-opacity="1" /><path clip-path="url(#clip280)" d="M237.732 83.5861 Q234.121 83.5861 232.292 87.1509 Q230.487 90.6925 230.487 97.8221 Q230.487 104.929 232.292 108.493 Q234.121 112.035 237.732 112.035 Q241.366 112.035 243.172 108.493 Q245.001 104.929 245.001 97.8221 Q245.001 90.6925 243.172 87.1509 Q241.366 83.5861 237.732 83.5861 M237.732 79.8824 Q243.542 79.8824 246.598 84.4888 Q249.676 89.0722 249.676 97.8221 Q249.676 106.549 246.598 111.155 Q243.542 115.739 237.732 115.739 Q231.922 115.739 228.843 111.155 Q225.788 106.549 225.788 97.8221 Q225.788 89.0722 228.843 84.4888 Q231.922 79.8824 237.732 79.8824 Z" fill="#000000" fill-rule="evenodd" fill-opacity="1" /><path clip-path="url(#clip280)" d="M249.676 73.9837 L273.788 73.9837 L273.788 77.1811 L249.676 77.1811 L249.676 73.9837 Z" fill="#000000" fill-rule="evenodd" fill-opacity="1" /><path clip-path="url(#clip280)" d="M282.646 84.4597 L288.853 84.4597 L288.853 63.0376 L282.101 64.3918 L282.101 60.9311 L288.815 59.577 L292.615 59.577 L292.615 84.4597 L298.821 84.4597 L298.821 87.657 L282.646 87.657 L282.646 84.4597 Z" fill="#000000" fill-rule="evenodd" fill-opacity="1" /><polyline clip-path="url(#clip282)" style="stroke:#009af9; stroke-linecap:butt; stroke-linejoin:round; stroke-width:4; stroke-opacity:1; fill:none" points="
  379.584,1561.22 2015.67,91.3408 
  "/>
<path clip-path="url(#clip280)" d="
M1761.82 202.86 L2006.95 202.86 L2006.95 99.1797 L1761.82 99.1797  Z
  " fill="#ffffff" fill-rule="evenodd" fill-opacity="1"/>
<polyline clip-path="url(#clip280)" style="stroke:#000000; stroke-linecap:butt; stroke-linejoin:round; stroke-width:4; stroke-opacity:1; fill:none" points="
  1761.82,202.86 2006.95,202.86 2006.95,99.1797 1761.82,99.1797 1761.82,202.86 
  "/>
<polyline clip-path="url(#clip280)" style="stroke:#009af9; stroke-linecap:butt; stroke-linejoin:round; stroke-width:4; stroke-opacity:1; fill:none" points="
  1781.09,151.02 1896.71,151.02 
  "/>
<path clip-path="url(#clip280)" d="M1929.82 170.707 Q1928.02 175.337 1926.3 176.749 Q1924.59 178.161 1921.72 178.161 L1918.32 178.161 L1918.32 174.596 L1920.82 174.596 Q1922.58 174.596 1923.55 173.763 Q1924.52 172.929 1925.7 169.828 L1926.46 167.883 L1915.98 142.374 L1920.49 142.374 L1928.59 162.652 L1936.7 142.374 L1941.21 142.374 L1929.82 170.707 Z" fill="#000000" fill-rule="evenodd" fill-opacity="1" /><path clip-path="url(#clip280)" d="M1948.5 164.365 L1956.14 164.365 L1956.14 137.999 L1947.83 139.666 L1947.83 135.406 L1956.09 133.74 L1960.77 133.74 L1960.77 164.365 L1968.41 164.365 L1968.41 168.3 L1948.5 168.3 L1948.5 164.365 Z" fill="#000000" fill-rule="evenodd" fill-opacity="1" /></svg>
